<ttFont>
    <TTGlyph name="A" xMin="-60" yMin="-8" xMax="571" yMax="669">
      <contour>
        <pt x="305" y="669" on="1"/>
        <pt x="443" y="669" on="1"/>
        <pt x="571" y="0" on="1"/>
        <pt x="405" y="0" on="1"/>
        <pt x="380" y="160" on="1"/>
        <pt x="184" y="160" on="1"/>
        <pt x="98" y="-8" on="1"/>
        <pt x="-60" y="19" on="1"/>
      </contour>
      <contour>
        <pt x="361" y="281" on="1"/>
        <pt x="353" y="332" on="0"/>
        <pt x="341" y="429" on="0"/>
        <pt x="336" y="463" on="1"/>
        <pt x="318" y="428" on="0"/>
        <pt x="270" y="332" on="0"/>
        <pt x="245" y="281" on="1"/>
      </contour>
    </TTGlyph>
    <TTGlyph name="AE" xMin="-53" yMin="-16" xMax="885" yMax="669">
      <contour>
        <pt x="376" y="161" on="1"/>
        <pt x="219" y="161" on="1"/>
        <pt x="106" y="-16" on="1"/>
        <pt x="-53" y="27" on="1"/>
        <pt x="383" y="669" on="1"/>
        <pt x="885" y="669" on="1"/>
        <pt x="859" y="548" on="1"/>
        <pt x="613" y="548" on="1"/>
        <pt x="586" y="411" on="1"/>
        <pt x="786" y="411" on="1"/>
        <pt x="759" y="290" on="1"/>
        <pt x="564" y="290" on="1"/>
        <pt x="529" y="121" on="1"/>
        <pt x="780" y="121" on="1"/>
        <pt x="780" y="0" on="1"/>
        <pt x="345" y="0" on="1"/>
      </contour>
      <contour>
        <pt x="295" y="282" on="1"/>
        <pt x="400" y="282" on="1"/>
        <pt x="449" y="540" on="1"/>
        <pt x="445" y="540" on="1"/>
        <pt x="441" y="532" on="0"/>
        <pt x="414" y="483" on="0"/>
        <pt x="376" y="414" on="0"/>
        <pt x="328" y="333" on="0"/>
        <pt x="303" y="293" on="1"/>
      </contour>
    </TTGlyph>
    <TTGlyph name="Aacute" xMin="-48" yMin="-8" xMax="615" yMax="942">
      <contour>
        <pt x="317" y="669" on="1"/>
        <pt x="455" y="669" on="1"/>
        <pt x="583" y="0" on="1"/>
        <pt x="417" y="0" on="1"/>
        <pt x="392" y="160" on="1"/>
        <pt x="196" y="160" on="1"/>
        <pt x="110" y="-8" on="1"/>
        <pt x="-48" y="19" on="1"/>
      </contour>
      <contour>
        <pt x="373" y="281" on="1"/>
        <pt x="365" y="332" on="0"/>
        <pt x="353" y="429" on="0"/>
        <pt x="348" y="463" on="1"/>
        <pt x="330" y="428" on="0"/>
        <pt x="282" y="332" on="0"/>
        <pt x="257" y="281" on="1"/>
      </contour>
      <contour>
        <pt x="334" y="789" on="1"/>
        <pt x="364" y="821" on="0"/>
        <pt x="399" y="850" on="1"/>
        <pt x="429" y="875" on="0"/>
        <pt x="507" y="927" on="0"/>
        <pt x="551" y="942" on="1"/>
        <pt x="565" y="928" on="0"/>
        <pt x="577" y="910" on="1"/>
        <pt x="588" y="894" on="0"/>
        <pt x="608" y="847" on="0"/>
        <pt x="615" y="817" on="1"/>
        <pt x="571" y="805" on="0"/>
        <pt x="489" y="767" on="0"/>
        <pt x="457" y="749" on="1"/>
        <pt x="419" y="728" on="0"/>
        <pt x="385" y="705" on="1"/>
      </contour>
    </TTGlyph>
    <TTGlyph name="Acircumflex" xMin="-48" yMin="-8" xMax="596" yMax="953">
      <contour>
        <pt x="317" y="669" on="1"/>
        <pt x="455" y="669" on="1"/>
        <pt x="583" y="0" on="1"/>
        <pt x="417" y="0" on="1"/>
        <pt x="392" y="160" on="1"/>
        <pt x="196" y="160" on="1"/>
        <pt x="110" y="-8" on="1"/>
        <pt x="-48" y="19" on="1"/>
      </contour>
      <contour>
        <pt x="373" y="281" on="1"/>
        <pt x="365" y="332" on="0"/>
        <pt x="353" y="429" on="0"/>
        <pt x="348" y="463" on="1"/>
        <pt x="330" y="428" on="0"/>
        <pt x="282" y="332" on="0"/>
        <pt x="257" y="281" on="1"/>
      </contour>
      <contour>
        <pt x="229" y="803" on="1"/>
        <pt x="262" y="831" on="0"/>
        <pt x="298" y="858" on="1"/>
        <pt x="329" y="881" on="0"/>
        <pt x="403" y="933" on="0"/>
        <pt x="440" y="953" on="1"/>
        <pt x="463" y="921" on="0"/>
        <pt x="518" y="865" on="0"/>
        <pt x="541" y="845" on="1"/>
        <pt x="568" y="821" on="0"/>
        <pt x="596" y="801" on="1"/>
        <pt x="542" y="719" on="1"/>
        <pt x="521" y="726" on="0"/>
        <pt x="498" y="737" on="1"/>
        <pt x="478" y="747" on="0"/>
        <pt x="431" y="776" on="0"/>
        <pt x="408" y="799" on="1"/>
        <pt x="382" y="783" on="0"/>
        <pt x="337" y="754" on="0"/>
        <pt x="319" y="743" on="1"/>
        <pt x="298" y="730" on="0"/>
        <pt x="280" y="719" on="1"/>
      </contour>
    </TTGlyph>
    <TTGlyph name="Adieresis" xMin="-48" yMin="-8" xMax="600" yMax="891">
      <contour>
        <pt x="317" y="669" on="1"/>
        <pt x="455" y="669" on="1"/>
        <pt x="583" y="0" on="1"/>
        <pt x="417" y="0" on="1"/>
        <pt x="392" y="160" on="1"/>
        <pt x="196" y="160" on="1"/>
        <pt x="110" y="-8" on="1"/>
        <pt x="-48" y="19" on="1"/>
      </contour>
      <contour>
        <pt x="373" y="281" on="1"/>
        <pt x="365" y="332" on="0"/>
        <pt x="353" y="429" on="0"/>
        <pt x="348" y="463" on="1"/>
        <pt x="330" y="428" on="0"/>
        <pt x="282" y="332" on="0"/>
        <pt x="257" y="281" on="1"/>
      </contour>
      <contour>
        <pt x="308" y="891" on="1"/>
        <pt x="346" y="891" on="0"/>
        <pt x="383" y="853" on="0"/>
        <pt x="383" y="819" on="1"/>
        <pt x="383" y="787" on="0"/>
        <pt x="337" y="739" on="0"/>
        <pt x="297" y="739" on="1"/>
        <pt x="259" y="739" on="0"/>
        <pt x="224" y="778" on="0"/>
        <pt x="224" y="809" on="1"/>
        <pt x="224" y="843" on="0"/>
        <pt x="268" y="891" on="0"/>
      </contour>
      <contour>
        <pt x="525" y="891" on="1"/>
        <pt x="563" y="891" on="0"/>
        <pt x="600" y="853" on="0"/>
        <pt x="600" y="819" on="1"/>
        <pt x="600" y="787" on="0"/>
        <pt x="554" y="739" on="0"/>
        <pt x="515" y="739" on="1"/>
        <pt x="477" y="739" on="0"/>
        <pt x="442" y="778" on="0"/>
        <pt x="442" y="809" on="1"/>
        <pt x="442" y="843" on="0"/>
        <pt x="486" y="891" on="0"/>
      </contour>
    </TTGlyph>
    <TTGlyph name="Agrave" xMin="-48" yMin="-8" xMax="583" yMax="944">
      <contour>
        <pt x="317" y="669" on="1"/>
        <pt x="455" y="669" on="1"/>
        <pt x="583" y="0" on="1"/>
        <pt x="417" y="0" on="1"/>
        <pt x="392" y="160" on="1"/>
        <pt x="196" y="160" on="1"/>
        <pt x="110" y="-8" on="1"/>
        <pt x="-48" y="19" on="1"/>
      </contour>
      <contour>
        <pt x="373" y="281" on="1"/>
        <pt x="365" y="332" on="0"/>
        <pt x="353" y="429" on="0"/>
        <pt x="348" y="463" on="1"/>
        <pt x="330" y="428" on="0"/>
        <pt x="282" y="332" on="0"/>
        <pt x="257" y="281" on="1"/>
      </contour>
      <contour>
        <pt x="385" y="704" on="1"/>
        <pt x="347" y="716" on="0"/>
        <pt x="308" y="734" on="1"/>
        <pt x="275" y="750" on="0"/>
        <pt x="200" y="799" on="0"/>
        <pt x="170" y="834" on="1"/>
        <pt x="177" y="851" on="0"/>
        <pt x="189" y="869" on="1"/>
        <pt x="200" y="885" on="0"/>
        <pt x="234" y="924" on="0"/>
        <pt x="260" y="944" on="1"/>
        <pt x="289" y="906" on="0"/>
        <pt x="353" y="847" on="0"/>
        <pt x="379" y="827" on="1"/>
        <pt x="410" y="803" on="0"/>
        <pt x="440" y="785" on="1"/>
      </contour>
    </TTGlyph>
    <TTGlyph name="Aring" xMin="-48" yMin="-8" xMax="583" yMax="864">
      <contour>
        <pt x="313" y="661" on="1"/>
        <pt x="285" y="687" on="0"/>
        <pt x="285" y="732" on="1"/>
        <pt x="285" y="759" on="0"/>
        <pt x="304" y="807" on="0"/>
        <pt x="339" y="843" on="0"/>
        <pt x="388" y="864" on="0"/>
        <pt x="417" y="864" on="1"/>
        <pt x="463" y="864" on="0"/>
        <pt x="513" y="810" on="0"/>
        <pt x="513" y="769" on="1"/>
        <pt x="513" y="735" on="0"/>
        <pt x="483" y="679" on="0"/>
        <pt x="457" y="660" on="1"/>
        <pt x="583" y="0" on="1"/>
        <pt x="417" y="0" on="1"/>
        <pt x="392" y="160" on="1"/>
        <pt x="196" y="160" on="1"/>
        <pt x="110" y="-8" on="1"/>
        <pt x="-48" y="19" on="1"/>
      </contour>
      <contour>
        <pt x="373" y="281" on="1"/>
        <pt x="365" y="332" on="0"/>
        <pt x="353" y="429" on="0"/>
        <pt x="348" y="463" on="1"/>
        <pt x="330" y="428" on="0"/>
        <pt x="282" y="332" on="0"/>
        <pt x="257" y="281" on="1"/>
      </contour>
      <contour>
        <pt x="406" y="792" on="1"/>
        <pt x="386" y="792" on="0"/>
        <pt x="363" y="759" on="0"/>
        <pt x="363" y="739" on="1"/>
        <pt x="363" y="726" on="0"/>
        <pt x="377" y="709" on="0"/>
        <pt x="391" y="709" on="1"/>
        <pt x="411" y="709" on="0"/>
        <pt x="434" y="741" on="0"/>
        <pt x="434" y="761" on="1"/>
        <pt x="434" y="775" on="0"/>
        <pt x="420" y="792" on="0"/>
      </contour>
    </TTGlyph>
    <TTGlyph name="Atilde" xMin="-48" yMin="-8" xMax="589" yMax="896">
      <contour>
        <pt x="317" y="669" on="1"/>
        <pt x="455" y="669" on="1"/>
        <pt x="583" y="0" on="1"/>
        <pt x="417" y="0" on="1"/>
        <pt x="392" y="160" on="1"/>
        <pt x="196" y="160" on="1"/>
        <pt x="110" y="-8" on="1"/>
        <pt x="-48" y="19" on="1"/>
      </contour>
      <contour>
        <pt x="373" y="281" on="1"/>
        <pt x="365" y="332" on="0"/>
        <pt x="353" y="429" on="0"/>
        <pt x="348" y="463" on="1"/>
        <pt x="330" y="428" on="0"/>
        <pt x="282" y="332" on="0"/>
        <pt x="257" y="281" on="1"/>
      </contour>
      <contour>
        <pt x="568" y="787" on="1"/>
        <pt x="555" y="779" on="0"/>
        <pt x="540" y="774" on="1"/>
        <pt x="527" y="769" on="0"/>
        <pt x="492" y="762" on="0"/>
        <pt x="472" y="762" on="1"/>
        <pt x="454" y="762" on="0"/>
        <pt x="422" y="769" on="0"/>
        <pt x="389" y="777" on="0"/>
        <pt x="354" y="784" on="0"/>
        <pt x="333" y="784" on="1"/>
        <pt x="316" y="784" on="0"/>
        <pt x="283" y="779" on="0"/>
        <pt x="269" y="776" on="1"/>
        <pt x="253" y="772" on="0"/>
        <pt x="239" y="768" on="1"/>
        <pt x="260" y="871" on="1"/>
        <pt x="272" y="878" on="0"/>
        <pt x="288" y="883" on="1"/>
        <pt x="301" y="888" on="0"/>
        <pt x="337" y="896" on="0"/>
        <pt x="357" y="896" on="1"/>
        <pt x="375" y="896" on="0"/>
        <pt x="407" y="889" on="0"/>
        <pt x="440" y="881" on="0"/>
        <pt x="475" y="874" on="0"/>
        <pt x="495" y="874" on="1"/>
        <pt x="512" y="874" on="0"/>
        <pt x="544" y="879" on="0"/>
        <pt x="558" y="882" on="1"/>
        <pt x="574" y="886" on="0"/>
        <pt x="589" y="890" on="1"/>
      </contour>
    </TTGlyph>
    <TTGlyph name="B" xMin="7" yMin="-1" xMax="551" yMax="675">
      <contour>
        <pt x="137" y="673" on="1"/>
        <pt x="253" y="666" on="1"/>
        <pt x="275" y="669" on="0"/>
        <pt x="327" y="675" on="0"/>
        <pt x="353" y="675" on="1"/>
        <pt x="394" y="675" on="0"/>
        <pt x="466" y="659" on="0"/>
        <pt x="520" y="623" on="0"/>
        <pt x="551" y="565" on="0"/>
        <pt x="551" y="522" on="1"/>
        <pt x="551" y="461" on="0"/>
        <pt x="485" y="379" on="0"/>
        <pt x="423" y="352" on="1"/>
        <pt x="475" y="332" on="0"/>
        <pt x="518" y="270" on="0"/>
        <pt x="518" y="223" on="1"/>
        <pt x="518" y="169" on="0"/>
        <pt x="469" y="85" on="0"/>
        <pt x="385" y="28" on="0"/>
        <pt x="274" y="-1" on="0"/>
        <pt x="212" y="-1" on="1"/>
        <pt x="186" y="-1" on="0"/>
        <pt x="134" y="-1" on="0"/>
        <pt x="89" y="0" on="0"/>
        <pt x="58" y="0" on="0"/>
        <pt x="53" y="0" on="1"/>
        <pt x="7" y="0" on="1"/>
      </contour>
      <contour>
        <pt x="224" y="289" on="1"/>
        <pt x="190" y="108" on="1"/>
        <pt x="224" y="108" on="1"/>
        <pt x="246" y="108" on="0"/>
        <pt x="290" y="121" on="0"/>
        <pt x="325" y="148" on="0"/>
        <pt x="346" y="187" on="0"/>
        <pt x="346" y="214" on="1"/>
        <pt x="346" y="253" on="0"/>
        <pt x="310" y="289" on="0"/>
        <pt x="272" y="289" on="1"/>
      </contour>
      <contour>
        <pt x="311" y="567" on="1"/>
        <pt x="293" y="567" on="0"/>
        <pt x="278" y="563" on="1"/>
        <pt x="247" y="402" on="1"/>
        <pt x="272" y="402" on="1"/>
        <pt x="326" y="402" on="0"/>
        <pt x="381" y="456" on="0"/>
        <pt x="381" y="494" on="1"/>
        <pt x="381" y="534" on="0"/>
        <pt x="346" y="567" on="0"/>
      </contour>
    </TTGlyph>
    <TTGlyph name="C" xMin="32" yMin="-13" xMax="557" yMax="681">
      <contour>
        <pt x="429" y="499" on="1"/>
        <pt x="424" y="522" on="0"/>
        <pt x="399" y="557" on="0"/>
        <pt x="372" y="557" on="1"/>
        <pt x="328" y="557" on="0"/>
        <pt x="266" y="493" on="0"/>
        <pt x="225" y="397" on="0"/>
        <pt x="206" y="283" on="0"/>
        <pt x="206" y="233" on="1"/>
        <pt x="206" y="207" on="0"/>
        <pt x="215" y="162" on="0"/>
        <pt x="236" y="128" on="0"/>
        <pt x="271" y="109" on="0"/>
        <pt x="297" y="109" on="1"/>
        <pt x="333" y="109" on="0"/>
        <pt x="392" y="127" on="0"/>
        <pt x="433" y="144" on="1"/>
        <pt x="460" y="29" on="1"/>
        <pt x="419" y="11" on="0"/>
        <pt x="328" y="-13" on="0"/>
        <pt x="264" y="-13" on="1"/>
        <pt x="202" y="-13" on="0"/>
        <pt x="114" y="18" on="0"/>
        <pt x="58" y="76" on="0"/>
        <pt x="32" y="161" on="0"/>
        <pt x="32" y="215" on="1"/>
        <pt x="32" y="304" on="0"/>
        <pt x="77" y="472" on="0"/>
        <pt x="166" y="602" on="0"/>
        <pt x="300" y="681" on="0"/>
        <pt x="389" y="681" on="1"/>
        <pt x="431" y="681" on="0"/>
        <pt x="491" y="661" on="0"/>
        <pt x="530" y="627" on="0"/>
        <pt x="552" y="581" on="0"/>
        <pt x="557" y="555" on="1"/>
      </contour>
    </TTGlyph>
    <TTGlyph name="Ccedilla" xMin="32" yMin="-227" xMax="557" yMax="681">
      <contour>
        <pt x="429" y="499" on="1"/>
        <pt x="424" y="522" on="0"/>
        <pt x="399" y="557" on="0"/>
        <pt x="372" y="557" on="1"/>
        <pt x="328" y="557" on="0"/>
        <pt x="266" y="493" on="0"/>
        <pt x="225" y="397" on="0"/>
        <pt x="206" y="283" on="0"/>
        <pt x="206" y="233" on="1"/>
        <pt x="206" y="207" on="0"/>
        <pt x="215" y="162" on="0"/>
        <pt x="236" y="128" on="0"/>
        <pt x="271" y="109" on="0"/>
        <pt x="297" y="109" on="1"/>
        <pt x="333" y="109" on="0"/>
        <pt x="392" y="127" on="0"/>
        <pt x="433" y="144" on="1"/>
        <pt x="460" y="29" on="1"/>
        <pt x="422" y="12" on="0"/>
        <pt x="341" y="-11" on="0"/>
        <pt x="285" y="-13" on="1"/>
        <pt x="283" y="-18" on="0"/>
        <pt x="283" y="-26" on="1"/>
        <pt x="283" y="-36" on="0"/>
        <pt x="307" y="-51" on="0"/>
        <pt x="335" y="-70" on="0"/>
        <pt x="359" y="-98" on="0"/>
        <pt x="359" y="-121" on="1"/>
        <pt x="359" y="-148" on="0"/>
        <pt x="335" y="-188" on="0"/>
        <pt x="296" y="-214" on="0"/>
        <pt x="248" y="-227" on="0"/>
        <pt x="224" y="-227" on="1"/>
        <pt x="165" y="-227" on="0"/>
        <pt x="113" y="-195" on="1"/>
        <pt x="152" y="-118" on="1"/>
        <pt x="167" y="-129" on="0"/>
        <pt x="199" y="-143" on="0"/>
        <pt x="218" y="-143" on="1"/>
        <pt x="250" y="-143" on="0"/>
        <pt x="250" y="-126" on="1"/>
        <pt x="250" y="-114" on="0"/>
        <pt x="230" y="-101" on="0"/>
        <pt x="205" y="-87" on="0"/>
        <pt x="185" y="-69" on="0"/>
        <pt x="185" y="-54" on="1"/>
        <pt x="185" y="-34" on="0"/>
        <pt x="203" y="-8" on="1"/>
        <pt x="112" y="6" on="0"/>
        <pt x="32" y="121" on="0"/>
        <pt x="32" y="215" on="1"/>
        <pt x="32" y="304" on="0"/>
        <pt x="77" y="472" on="0"/>
        <pt x="166" y="602" on="0"/>
        <pt x="300" y="681" on="0"/>
        <pt x="389" y="681" on="1"/>
        <pt x="431" y="681" on="0"/>
        <pt x="491" y="661" on="0"/>
        <pt x="530" y="627" on="0"/>
        <pt x="552" y="581" on="0"/>
        <pt x="557" y="555" on="1"/>
      </contour>
    </TTGlyph>
    <TTGlyph name="D" xMin="7" yMin="-2" xMax="619" yMax="681">
      <contour>
        <pt x="137" y="674" on="1"/>
        <pt x="241" y="666" on="1"/>
        <pt x="273" y="673" on="0"/>
        <pt x="350" y="681" on="0"/>
        <pt x="387" y="681" on="1"/>
        <pt x="509" y="681" on="0"/>
        <pt x="619" y="561" on="0"/>
        <pt x="619" y="453" on="1"/>
        <pt x="619" y="354" on="0"/>
        <pt x="579" y="188" on="0"/>
        <pt x="483" y="66" on="0"/>
        <pt x="325" y="-2" on="0"/>
        <pt x="208" y="-2" on="1"/>
        <pt x="159" y="-2" on="0"/>
        <pt x="79" y="0" on="0"/>
        <pt x="68" y="0" on="1"/>
        <pt x="7" y="0" on="1"/>
      </contour>
      <contour>
        <pt x="354" y="559" on="1"/>
        <pt x="331" y="559" on="0"/>
        <pt x="294" y="556" on="0"/>
        <pt x="276" y="551" on="1"/>
        <pt x="194" y="125" on="1"/>
        <pt x="236" y="125" on="1"/>
        <pt x="292" y="125" on="0"/>
        <pt x="372" y="175" on="0"/>
        <pt x="423" y="261" on="0"/>
        <pt x="446" y="374" on="0"/>
        <pt x="446" y="437" on="1"/>
        <pt x="446" y="463" on="0"/>
        <pt x="437" y="507" on="0"/>
        <pt x="415" y="540" on="0"/>
        <pt x="380" y="559" on="0"/>
      </contour>
    </TTGlyph>
    <TTGlyph name="E" xMin="7" yMin="0" xMax="553" yMax="669">
      <contour>
        <pt x="137" y="669" on="1"/>
        <pt x="553" y="669" on="1"/>
        <pt x="526" y="548" on="1"/>
        <pt x="276" y="548" on="1"/>
        <pt x="248" y="411" on="1"/>
        <pt x="453" y="411" on="1"/>
        <pt x="427" y="290" on="1"/>
        <pt x="226" y="290" on="1"/>
        <pt x="192" y="121" on="1"/>
        <pt x="448" y="121" on="1"/>
        <pt x="448" y="0" on="1"/>
        <pt x="7" y="0" on="1"/>
      </contour>
    </TTGlyph>
    <TTGlyph name="Eacute" xMin="7" yMin="0" xMax="561" yMax="942">
      <contour>
        <pt x="137" y="669" on="1"/>
        <pt x="553" y="669" on="1"/>
        <pt x="526" y="548" on="1"/>
        <pt x="276" y="548" on="1"/>
        <pt x="248" y="411" on="1"/>
        <pt x="453" y="411" on="1"/>
        <pt x="427" y="290" on="1"/>
        <pt x="226" y="290" on="1"/>
        <pt x="192" y="121" on="1"/>
        <pt x="448" y="121" on="1"/>
        <pt x="448" y="0" on="1"/>
        <pt x="7" y="0" on="1"/>
      </contour>
      <contour>
        <pt x="279" y="789" on="1"/>
        <pt x="310" y="821" on="0"/>
        <pt x="345" y="850" on="1"/>
        <pt x="375" y="875" on="0"/>
        <pt x="453" y="927" on="0"/>
        <pt x="497" y="942" on="1"/>
        <pt x="511" y="928" on="0"/>
        <pt x="523" y="910" on="1"/>
        <pt x="534" y="894" on="0"/>
        <pt x="554" y="847" on="0"/>
        <pt x="561" y="817" on="1"/>
        <pt x="517" y="805" on="0"/>
        <pt x="435" y="767" on="0"/>
        <pt x="403" y="749" on="1"/>
        <pt x="365" y="728" on="0"/>
        <pt x="331" y="705" on="1"/>
      </contour>
    </TTGlyph>
    <TTGlyph name="Ecircumflex" xMin="7" yMin="0" xMax="553" yMax="953">
      <contour>
        <pt x="137" y="669" on="1"/>
        <pt x="553" y="669" on="1"/>
        <pt x="526" y="548" on="1"/>
        <pt x="276" y="548" on="1"/>
        <pt x="248" y="411" on="1"/>
        <pt x="453" y="411" on="1"/>
        <pt x="427" y="290" on="1"/>
        <pt x="226" y="290" on="1"/>
        <pt x="192" y="121" on="1"/>
        <pt x="448" y="121" on="1"/>
        <pt x="448" y="0" on="1"/>
        <pt x="7" y="0" on="1"/>
      </contour>
      <contour>
        <pt x="175" y="803" on="1"/>
        <pt x="208" y="831" on="0"/>
        <pt x="244" y="858" on="1"/>
        <pt x="275" y="881" on="0"/>
        <pt x="349" y="933" on="0"/>
        <pt x="386" y="953" on="1"/>
        <pt x="409" y="921" on="0"/>
        <pt x="464" y="865" on="0"/>
        <pt x="487" y="845" on="1"/>
        <pt x="514" y="821" on="0"/>
        <pt x="542" y="801" on="1"/>
        <pt x="488" y="719" on="1"/>
        <pt x="466" y="726" on="0"/>
        <pt x="443" y="737" on="1"/>
        <pt x="423" y="747" on="0"/>
        <pt x="377" y="776" on="0"/>
        <pt x="354" y="799" on="1"/>
        <pt x="328" y="783" on="0"/>
        <pt x="281" y="754" on="0"/>
        <pt x="264" y="743" on="1"/>
        <pt x="243" y="730" on="0"/>
        <pt x="226" y="719" on="1"/>
      </contour>
    </TTGlyph>
    <TTGlyph name="Edieresis" xMin="7" yMin="0" xMax="553" yMax="891">
      <contour>
        <pt x="137" y="669" on="1"/>
        <pt x="553" y="669" on="1"/>
        <pt x="526" y="548" on="1"/>
        <pt x="276" y="548" on="1"/>
        <pt x="248" y="411" on="1"/>
        <pt x="453" y="411" on="1"/>
        <pt x="427" y="290" on="1"/>
        <pt x="226" y="290" on="1"/>
        <pt x="192" y="121" on="1"/>
        <pt x="448" y="121" on="1"/>
        <pt x="448" y="0" on="1"/>
        <pt x="7" y="0" on="1"/>
      </contour>
      <contour>
        <pt x="254" y="891" on="1"/>
        <pt x="292" y="891" on="0"/>
        <pt x="329" y="853" on="0"/>
        <pt x="329" y="819" on="1"/>
        <pt x="329" y="787" on="0"/>
        <pt x="282" y="739" on="0"/>
        <pt x="243" y="739" on="1"/>
        <pt x="205" y="739" on="0"/>
        <pt x="170" y="778" on="0"/>
        <pt x="170" y="809" on="1"/>
        <pt x="170" y="843" on="0"/>
        <pt x="214" y="891" on="0"/>
      </contour>
      <contour>
        <pt x="471" y="891" on="1"/>
        <pt x="509" y="891" on="0"/>
        <pt x="546" y="853" on="0"/>
        <pt x="546" y="819" on="1"/>
        <pt x="546" y="787" on="0"/>
        <pt x="500" y="739" on="0"/>
        <pt x="461" y="739" on="1"/>
        <pt x="423" y="739" on="0"/>
        <pt x="388" y="778" on="0"/>
        <pt x="388" y="809" on="1"/>
        <pt x="388" y="843" on="0"/>
        <pt x="432" y="891" on="0"/>
      </contour>
    </TTGlyph>
    <TTGlyph name="Egrave" xMin="7" yMin="0" xMax="553" yMax="944">
      <contour>
        <pt x="137" y="669" on="1"/>
        <pt x="553" y="669" on="1"/>
        <pt x="526" y="548" on="1"/>
        <pt x="276" y="548" on="1"/>
        <pt x="248" y="411" on="1"/>
        <pt x="453" y="411" on="1"/>
        <pt x="427" y="290" on="1"/>
        <pt x="226" y="290" on="1"/>
        <pt x="192" y="121" on="1"/>
        <pt x="448" y="121" on="1"/>
        <pt x="448" y="0" on="1"/>
        <pt x="7" y="0" on="1"/>
      </contour>
      <contour>
        <pt x="331" y="704" on="1"/>
        <pt x="293" y="716" on="0"/>
        <pt x="254" y="734" on="1"/>
        <pt x="221" y="750" on="0"/>
        <pt x="146" y="799" on="0"/>
        <pt x="116" y="834" on="1"/>
        <pt x="122" y="851" on="0"/>
        <pt x="134" y="869" on="1"/>
        <pt x="145" y="885" on="0"/>
        <pt x="179" y="924" on="0"/>
        <pt x="206" y="944" on="1"/>
        <pt x="235" y="906" on="0"/>
        <pt x="297" y="847" on="0"/>
        <pt x="324" y="827" on="1"/>
        <pt x="355" y="803" on="0"/>
        <pt x="386" y="785" on="1"/>
      </contour>
    </TTGlyph>
    <TTGlyph name="Eth" xMin="-2" yMin="-2" xMax="622" yMax="681">
      <contour>
        <pt x="21" y="408" on="1"/>
        <pt x="88" y="408" on="1"/>
        <pt x="140" y="674" on="1"/>
        <pt x="244" y="666" on="1"/>
        <pt x="276" y="673" on="0"/>
        <pt x="353" y="681" on="0"/>
        <pt x="390" y="681" on="1"/>
        <pt x="512" y="681" on="0"/>
        <pt x="622" y="561" on="0"/>
        <pt x="622" y="453" on="1"/>
        <pt x="622" y="354" on="0"/>
        <pt x="582" y="188" on="0"/>
        <pt x="486" y="66" on="0"/>
        <pt x="328" y="-2" on="0"/>
        <pt x="211" y="-2" on="1"/>
        <pt x="162" y="-2" on="0"/>
        <pt x="82" y="0" on="0"/>
        <pt x="71" y="0" on="1"/>
        <pt x="10" y="0" on="1"/>
        <pt x="65" y="286" on="1"/>
        <pt x="-2" y="286" on="1"/>
      </contour>
      <contour>
        <pt x="357" y="559" on="1"/>
        <pt x="334" y="559" on="0"/>
        <pt x="297" y="556" on="0"/>
        <pt x="279" y="551" on="1"/>
        <pt x="251" y="408" on="1"/>
        <pt x="366" y="408" on="1"/>
        <pt x="342" y="286" on="1"/>
        <pt x="227" y="286" on="1"/>
        <pt x="197" y="125" on="1"/>
        <pt x="239" y="125" on="1"/>
        <pt x="295" y="125" on="0"/>
        <pt x="375" y="175" on="0"/>
        <pt x="426" y="261" on="0"/>
        <pt x="449" y="374" on="0"/>
        <pt x="449" y="437" on="1"/>
        <pt x="449" y="463" on="0"/>
        <pt x="440" y="507" on="0"/>
        <pt x="418" y="540" on="0"/>
        <pt x="383" y="559" on="0"/>
      </contour>
    </TTGlyph>
    <TTGlyph name="Euro" xMin="17" yMin="-11" xMax="603" yMax="643">
      <contour>
        <pt x="70" y="440" on="1"/>
        <pt x="138" y="440" on="1"/>
        <pt x="158" y="483" on="0"/>
        <pt x="216" y="557" on="0"/>
        <pt x="291" y="612" on="0"/>
        <pt x="384" y="643" on="0"/>
        <pt x="440" y="643" on="1"/>
        <pt x="479" y="643" on="0"/>
        <pt x="533" y="630" on="0"/>
        <pt x="571" y="607" on="0"/>
        <pt x="594" y="574" on="0"/>
        <pt x="603" y="555" on="1"/>
        <pt x="485" y="478" on="1"/>
        <pt x="474" y="501" on="0"/>
        <pt x="447" y="519" on="0"/>
        <pt x="420" y="519" on="1"/>
        <pt x="382" y="519" on="0"/>
        <pt x="327" y="474" on="0"/>
        <pt x="307" y="440" on="1"/>
        <pt x="475" y="440" on="1"/>
        <pt x="432" y="318" on="1"/>
        <pt x="267" y="318" on="1"/>
        <pt x="264" y="303" on="0"/>
        <pt x="262" y="290" on="1"/>
        <pt x="422" y="290" on="1"/>
        <pt x="379" y="168" on="1"/>
        <pt x="266" y="168" on="1"/>
        <pt x="274" y="142" on="0"/>
        <pt x="310" y="109" on="0"/>
        <pt x="345" y="109" on="1"/>
        <pt x="380" y="109" on="0"/>
        <pt x="437" y="121" on="0"/>
        <pt x="477" y="135" on="1"/>
        <pt x="508" y="24" on="1"/>
        <pt x="466" y="7" on="0"/>
        <pt x="375" y="-11" on="0"/>
        <pt x="312" y="-11" on="1"/>
        <pt x="209" y="-11" on="0"/>
        <pt x="104" y="83" on="0"/>
        <pt x="93" y="168" on="1"/>
        <pt x="17" y="168" on="1"/>
        <pt x="41" y="290" on="1"/>
        <pt x="95" y="290" on="1"/>
        <pt x="95" y="296" on="0"/>
        <pt x="97" y="311" on="0"/>
        <pt x="99" y="318" on="1"/>
        <pt x="46" y="318" on="1"/>
      </contour>
    </TTGlyph>
    <TTGlyph name="F" xMin="7" yMin="0" xMax="553" yMax="669">
      <contour>
        <pt x="137" y="669" on="1"/>
        <pt x="553" y="669" on="1"/>
        <pt x="526" y="548" on="1"/>
        <pt x="276" y="548" on="1"/>
        <pt x="247" y="402" on="1"/>
        <pt x="453" y="402" on="1"/>
        <pt x="427" y="281" on="1"/>
        <pt x="224" y="281" on="1"/>
        <pt x="169" y="0" on="1"/>
        <pt x="7" y="0" on="1"/>
      </contour>
    </TTGlyph>
    <TTGlyph name="G" xMin="28" yMin="-222" xMax="598" yMax="681">
      <contour>
        <pt x="374" y="77" on="1"/>
        <pt x="349" y="35" on="0"/>
        <pt x="274" y="-12" on="0"/>
        <pt x="226" y="-12" on="1"/>
        <pt x="131" y="-12" on="0"/>
        <pt x="38" y="106" on="0"/>
        <pt x="38" y="215" on="1"/>
        <pt x="38" y="304" on="0"/>
        <pt x="83" y="472" on="0"/>
        <pt x="176" y="602" on="0"/>
        <pt x="320" y="681" on="0"/>
        <pt x="419" y="681" on="1"/>
        <pt x="466" y="681" on="0"/>
        <pt x="529" y="661" on="0"/>
        <pt x="570" y="628" on="0"/>
        <pt x="592" y="582" on="0"/>
        <pt x="598" y="557" on="1"/>
        <pt x="471" y="499" on="1"/>
        <pt x="467" y="510" on="0"/>
        <pt x="456" y="531" on="0"/>
        <pt x="438" y="547" on="0"/>
        <pt x="409" y="557" on="0"/>
        <pt x="387" y="557" on="1"/>
        <pt x="340" y="557" on="0"/>
        <pt x="274" y="493" on="0"/>
        <pt x="231" y="396" on="0"/>
        <pt x="211" y="282" on="0"/>
        <pt x="211" y="233" on="1"/>
        <pt x="211" y="181" on="0"/>
        <pt x="243" y="112" on="0"/>
        <pt x="280" y="112" on="1"/>
        <pt x="296" y="112" on="0"/>
        <pt x="330" y="130" on="0"/>
        <pt x="361" y="162" on="0"/>
        <pt x="385" y="206" on="0"/>
        <pt x="390" y="232" on="1"/>
        <pt x="413" y="350" on="1"/>
        <pt x="571" y="350" on="1"/>
        <pt x="500" y="-20" on="1"/>
        <pt x="492" y="-62" on="0"/>
        <pt x="449" y="-136" on="0"/>
        <pt x="385" y="-191" on="0"/>
        <pt x="302" y="-222" on="0"/>
        <pt x="253" y="-222" on="1"/>
        <pt x="223" y="-222" on="0"/>
        <pt x="159" y="-211" on="0"/>
        <pt x="100" y="-193" on="0"/>
        <pt x="47" y="-172" on="0"/>
        <pt x="28" y="-162" on="1"/>
        <pt x="84" y="-39" on="1"/>
        <pt x="149" y="-68" on="0"/>
        <pt x="227" y="-91" on="0"/>
        <pt x="260" y="-91" on="1"/>
        <pt x="295" y="-91" on="0"/>
        <pt x="343" y="-54" on="0"/>
        <pt x="350" y="-25" on="1"/>
      </contour>
    </TTGlyph>
    <TTGlyph name="H" xMin="5" yMin="0" xMax="654" yMax="669">
      <contour>
        <pt x="418" y="290" on="1"/>
        <pt x="223" y="290" on="1"/>
        <pt x="167" y="0" on="1"/>
        <pt x="5" y="0" on="1"/>
        <pt x="135" y="669" on="1"/>
        <pt x="297" y="669" on="1"/>
        <pt x="247" y="411" on="1"/>
        <pt x="441" y="411" on="1"/>
        <pt x="492" y="669" on="1"/>
        <pt x="654" y="669" on="1"/>
        <pt x="524" y="0" on="1"/>
        <pt x="362" y="0" on="1"/>
      </contour>
    </TTGlyph>
    <TTGlyph name="I" xMin="7" yMin="0" xMax="299" yMax="669">
      <contour>
        <pt x="137" y="669" on="1"/>
        <pt x="299" y="669" on="1"/>
        <pt x="169" y="0" on="1"/>
        <pt x="7" y="0" on="1"/>
      </contour>
    </TTGlyph>
    <TTGlyph name="Iacute" xMin="7" yMin="0" xMax="437" yMax="942">
      <contour>
        <pt x="137" y="669" on="1"/>
        <pt x="299" y="669" on="1"/>
        <pt x="169" y="0" on="1"/>
        <pt x="7" y="0" on="1"/>
      </contour>
      <contour>
        <pt x="156" y="789" on="1"/>
        <pt x="186" y="821" on="0"/>
        <pt x="221" y="850" on="1"/>
        <pt x="251" y="875" on="0"/>
        <pt x="330" y="927" on="0"/>
        <pt x="374" y="942" on="1"/>
        <pt x="387" y="928" on="0"/>
        <pt x="399" y="910" on="1"/>
        <pt x="410" y="894" on="0"/>
        <pt x="430" y="847" on="0"/>
        <pt x="437" y="817" on="1"/>
        <pt x="393" y="805" on="0"/>
        <pt x="311" y="767" on="0"/>
        <pt x="279" y="749" on="1"/>
        <pt x="241" y="728" on="0"/>
        <pt x="208" y="705" on="1"/>
      </contour>
    </TTGlyph>
    <TTGlyph name="Icircumflex" xMin="7" yMin="0" xMax="419" yMax="953">
      <contour>
        <pt x="137" y="669" on="1"/>
        <pt x="299" y="669" on="1"/>
        <pt x="169" y="0" on="1"/>
        <pt x="7" y="0" on="1"/>
      </contour>
      <contour>
        <pt x="52" y="803" on="1"/>
        <pt x="86" y="831" on="0"/>
        <pt x="121" y="858" on="1"/>
        <pt x="151" y="881" on="0"/>
        <pt x="225" y="933" on="0"/>
        <pt x="262" y="953" on="1"/>
        <pt x="285" y="921" on="0"/>
        <pt x="340" y="865" on="0"/>
        <pt x="364" y="845" on="1"/>
        <pt x="391" y="821" on="0"/>
        <pt x="419" y="801" on="1"/>
        <pt x="364" y="719" on="1"/>
        <pt x="343" y="726" on="0"/>
        <pt x="320" y="737" on="1"/>
        <pt x="300" y="747" on="0"/>
        <pt x="254" y="776" on="0"/>
        <pt x="231" y="799" on="1"/>
        <pt x="205" y="783" on="0"/>
        <pt x="158" y="754" on="0"/>
        <pt x="141" y="743" on="1"/>
        <pt x="120" y="730" on="0"/>
        <pt x="103" y="719" on="1"/>
      </contour>
    </TTGlyph>
    <TTGlyph name="Idieresis" xMin="7" yMin="0" xMax="422" yMax="891">
      <contour>
        <pt x="137" y="669" on="1"/>
        <pt x="299" y="669" on="1"/>
        <pt x="169" y="0" on="1"/>
        <pt x="7" y="0" on="1"/>
      </contour>
      <contour>
        <pt x="130" y="891" on="1"/>
        <pt x="168" y="891" on="0"/>
        <pt x="205" y="853" on="0"/>
        <pt x="205" y="819" on="1"/>
        <pt x="205" y="787" on="0"/>
        <pt x="159" y="739" on="0"/>
        <pt x="120" y="739" on="1"/>
        <pt x="82" y="739" on="0"/>
        <pt x="46" y="778" on="0"/>
        <pt x="46" y="809" on="1"/>
        <pt x="46" y="843" on="0"/>
        <pt x="90" y="891" on="0"/>
      </contour>
      <contour>
        <pt x="347" y="891" on="1"/>
        <pt x="385" y="891" on="0"/>
        <pt x="422" y="853" on="0"/>
        <pt x="422" y="819" on="1"/>
        <pt x="422" y="787" on="0"/>
        <pt x="377" y="739" on="0"/>
        <pt x="337" y="739" on="1"/>
        <pt x="299" y="739" on="0"/>
        <pt x="264" y="778" on="0"/>
        <pt x="264" y="809" on="1"/>
        <pt x="264" y="843" on="0"/>
        <pt x="308" y="891" on="0"/>
      </contour>
    </TTGlyph>
    <TTGlyph name="Igrave" xMin="-7" yMin="0" xMax="299" yMax="944">
      <contour>
        <pt x="137" y="669" on="1"/>
        <pt x="299" y="669" on="1"/>
        <pt x="169" y="0" on="1"/>
        <pt x="7" y="0" on="1"/>
      </contour>
      <contour>
        <pt x="208" y="704" on="1"/>
        <pt x="169" y="716" on="0"/>
        <pt x="130" y="734" on="1"/>
        <pt x="97" y="750" on="0"/>
        <pt x="23" y="799" on="0"/>
        <pt x="-7" y="834" on="1"/>
        <pt x="-1" y="851" on="0"/>
        <pt x="11" y="869" on="1"/>
        <pt x="21" y="885" on="0"/>
        <pt x="56" y="924" on="0"/>
        <pt x="82" y="944" on="1"/>
        <pt x="111" y="906" on="0"/>
        <pt x="174" y="847" on="0"/>
        <pt x="201" y="827" on="1"/>
        <pt x="233" y="803" on="0"/>
        <pt x="263" y="785" on="1"/>
      </contour>
    </TTGlyph>
    <TTGlyph name="J" xMin="-123" yMin="-223" xMax="292" yMax="669">
      <contour>
        <pt x="130" y="669" on="1"/>
        <pt x="292" y="669" on="1"/>
        <pt x="170" y="41" on="1"/>
        <pt x="159" y="-14" on="0"/>
        <pt x="119" y="-93" on="0"/>
        <pt x="60" y="-153" on="0"/>
        <pt x="-18" y="-200" on="0"/>
        <pt x="-66" y="-223" on="1"/>
        <pt x="-123" y="-112" on="1"/>
        <pt x="-61" y="-84" on="0"/>
        <pt x="-3" y="-13" on="0"/>
        <pt x="7" y="38" on="1"/>
      </contour>
    </TTGlyph>
    <TTGlyph name="K" xMin="7" yMin="-103" xMax="642" yMax="680">
      <contour>
        <pt x="137" y="669" on="1"/>
        <pt x="299" y="669" on="1"/>
        <pt x="169" y="0" on="1"/>
        <pt x="7" y="0" on="1"/>
      </contour>
      <contour>
        <pt x="623" y="680" on="1"/>
        <pt x="632" y="664" on="0"/>
        <pt x="642" y="623" on="0"/>
        <pt x="642" y="602" on="1"/>
        <pt x="642" y="555" on="0"/>
        <pt x="596" y="469" on="0"/>
        <pt x="529" y="398" on="0"/>
        <pt x="451" y="346" on="0"/>
        <pt x="420" y="333" on="1"/>
        <pt x="430" y="296" on="0"/>
        <pt x="471" y="202" on="0"/>
        <pt x="526" y="103" on="0"/>
        <pt x="590" y="7" on="0"/>
        <pt x="623" y="-33" on="1"/>
        <pt x="490" y="-103" on="1"/>
        <pt x="437" y="-35" on="0"/>
        <pt x="366" y="81" on="0"/>
        <pt x="313" y="191" on="0"/>
        <pt x="273" y="301" on="0"/>
        <pt x="251" y="364" on="1"/>
        <pt x="261" y="386" on="1"/>
        <pt x="299" y="400" on="0"/>
        <pt x="379" y="449" on="0"/>
        <pt x="444" y="509" on="0"/>
        <pt x="486" y="575" on="0"/>
        <pt x="486" y="607" on="1"/>
        <pt x="486" y="629" on="0"/>
        <pt x="477" y="655" on="1"/>
      </contour>
    </TTGlyph>
    <TTGlyph name="L" xMin="12" yMin="0" xMax="417" yMax="669">
      <contour>
        <pt x="143" y="669" on="1"/>
        <pt x="305" y="669" on="1"/>
        <pt x="198" y="121" on="1"/>
        <pt x="417" y="121" on="1"/>
        <pt x="417" y="0" on="1"/>
        <pt x="12" y="0" on="1"/>
      </contour>
    </TTGlyph>
    <TTGlyph name="M" xMin="2" yMin="-3" xMax="801" yMax="669">
      <contour>
        <pt x="609" y="255" on="1"/>
        <pt x="612" y="274" on="0"/>
        <pt x="625" y="346" on="0"/>
        <pt x="633" y="379" on="1"/>
        <pt x="624" y="362" on="0"/>
        <pt x="606" y="326" on="0"/>
        <pt x="589" y="293" on="0"/>
        <pt x="574" y="266" on="0"/>
        <pt x="570" y="258" on="1"/>
        <pt x="423" y="0" on="1"/>
        <pt x="296" y="0" on="1"/>
        <pt x="248" y="255" on="1"/>
        <pt x="246" y="263" on="0"/>
        <pt x="242" y="291" on="0"/>
        <pt x="236" y="324" on="0"/>
        <pt x="230" y="359" on="0"/>
        <pt x="228" y="375" on="1"/>
        <pt x="226" y="359" on="0"/>
        <pt x="221" y="324" on="0"/>
        <pt x="216" y="291" on="0"/>
        <pt x="212" y="265" on="0"/>
        <pt x="211" y="258" on="1"/>
        <pt x="163" y="-3" on="1"/>
        <pt x="2" y="21" on="1"/>
        <pt x="162" y="669" on="1"/>
        <pt x="302" y="669" on="1"/>
        <pt x="376" y="256" on="1"/>
        <pt x="378" y="242" on="0"/>
        <pt x="386" y="194" on="0"/>
        <pt x="388" y="176" on="1"/>
        <pt x="397" y="194" on="0"/>
        <pt x="420" y="242" on="0"/>
        <pt x="428" y="256" on="1"/>
        <pt x="662" y="669" on="1"/>
        <pt x="801" y="669" on="1"/>
        <pt x="726" y="0" on="1"/>
        <pt x="562" y="0" on="1"/>
      </contour>
    </TTGlyph>
    <TTGlyph name="N" xMin="7" yMin="-6" xMax="673" yMax="678">
      <contour>
        <pt x="518" y="678" on="1"/>
        <pt x="673" y="653" on="1"/>
        <pt x="550" y="-1" on="1"/>
        <pt x="415" y="-1" on="1"/>
        <pt x="263" y="343" on="1"/>
        <pt x="254" y="363" on="0"/>
        <pt x="235" y="415" on="0"/>
        <pt x="227" y="435" on="1"/>
        <pt x="225" y="413" on="0"/>
        <pt x="220" y="361" on="0"/>
        <pt x="217" y="341" on="1"/>
        <pt x="161" y="-6" on="1"/>
        <pt x="7" y="18" on="1"/>
        <pt x="131" y="669" on="1"/>
        <pt x="265" y="669" on="1"/>
        <pt x="413" y="329" on="1"/>
        <pt x="421" y="309" on="0"/>
        <pt x="443" y="253" on="0"/>
        <pt x="452" y="231" on="1"/>
        <pt x="454" y="254" on="0"/>
        <pt x="459" y="309" on="0"/>
        <pt x="462" y="326" on="1"/>
      </contour>
    </TTGlyph>
    <TTGlyph name="Ntilde" xMin="7" yMin="-6" xMax="673" yMax="870">
      <contour>
        <pt x="518" y="678" on="1"/>
        <pt x="673" y="653" on="1"/>
        <pt x="550" y="-1" on="1"/>
        <pt x="415" y="-1" on="1"/>
        <pt x="263" y="343" on="1"/>
        <pt x="254" y="363" on="0"/>
        <pt x="235" y="415" on="0"/>
        <pt x="227" y="435" on="1"/>
        <pt x="225" y="413" on="0"/>
        <pt x="220" y="361" on="0"/>
        <pt x="217" y="341" on="1"/>
        <pt x="161" y="-6" on="1"/>
        <pt x="7" y="18" on="1"/>
        <pt x="131" y="669" on="1"/>
        <pt x="265" y="669" on="1"/>
        <pt x="413" y="329" on="1"/>
        <pt x="421" y="309" on="0"/>
        <pt x="443" y="253" on="0"/>
        <pt x="452" y="231" on="1"/>
        <pt x="454" y="254" on="0"/>
        <pt x="459" y="309" on="0"/>
        <pt x="462" y="326" on="1"/>
      </contour>
      <contour>
        <pt x="499" y="802" on="1"/>
        <pt x="492" y="798" on="0"/>
        <pt x="483" y="795" on="1"/>
        <pt x="475" y="792" on="0"/>
        <pt x="455" y="788" on="0"/>
        <pt x="443" y="788" on="1"/>
        <pt x="425" y="788" on="0"/>
        <pt x="400" y="800" on="0"/>
        <pt x="377" y="800" on="1"/>
        <pt x="369" y="800" on="0"/>
        <pt x="350" y="797" on="0"/>
        <pt x="342" y="795" on="1"/>
        <pt x="332" y="793" on="0"/>
        <pt x="323" y="791" on="1"/>
        <pt x="336" y="856" on="1"/>
        <pt x="343" y="859" on="0"/>
        <pt x="352" y="863" on="1"/>
        <pt x="360" y="865" on="0"/>
        <pt x="381" y="870" on="0"/>
        <pt x="393" y="870" on="1"/>
        <pt x="410" y="870" on="0"/>
        <pt x="435" y="858" on="0"/>
        <pt x="458" y="858" on="1"/>
        <pt x="466" y="858" on="0"/>
        <pt x="486" y="860" on="0"/>
        <pt x="494" y="862" on="1"/>
        <pt x="504" y="864" on="0"/>
        <pt x="513" y="867" on="1"/>
      </contour>
    </TTGlyph>
    <TTGlyph name="O" xMin="32" yMin="-15" xMax="636" yMax="681">
      <contour>
        <pt x="403" y="681" on="1"/>
        <pt x="526" y="681" on="0"/>
        <pt x="636" y="562" on="0"/>
        <pt x="636" y="453" on="1"/>
        <pt x="636" y="364" on="0"/>
        <pt x="591" y="196" on="0"/>
        <pt x="499" y="65" on="0"/>
        <pt x="359" y="-15" on="0"/>
        <pt x="264" y="-15" on="1"/>
        <pt x="141" y="-15" on="0"/>
        <pt x="32" y="107" on="0"/>
        <pt x="32" y="215" on="1"/>
        <pt x="32" y="304" on="0"/>
        <pt x="77" y="472" on="0"/>
        <pt x="168" y="602" on="0"/>
        <pt x="308" y="681" on="0"/>
      </contour>
      <contour>
        <pt x="372" y="557" on="1"/>
        <pt x="329" y="557" on="0"/>
        <pt x="266" y="493" on="0"/>
        <pt x="226" y="397" on="0"/>
        <pt x="206" y="283" on="0"/>
        <pt x="206" y="233" on="1"/>
        <pt x="206" y="207" on="0"/>
        <pt x="215" y="162" on="0"/>
        <pt x="236" y="128" on="0"/>
        <pt x="271" y="109" on="0"/>
        <pt x="297" y="109" on="1"/>
        <pt x="340" y="109" on="0"/>
        <pt x="403" y="174" on="0"/>
        <pt x="443" y="272" on="0"/>
        <pt x="463" y="387" on="0"/>
        <pt x="463" y="437" on="1"/>
        <pt x="463" y="462" on="0"/>
        <pt x="454" y="506" on="0"/>
        <pt x="433" y="539" on="0"/>
        <pt x="398" y="557" on="0"/>
      </contour>
    </TTGlyph>
    <TTGlyph name="OE" xMin="32" yMin="-13" xMax="870" yMax="676">
      <contour>
        <pt x="356" y="0" on="1"/>
        <pt x="336" y="-6" on="0"/>
        <pt x="290" y="-13" on="0"/>
        <pt x="264" y="-13" on="1"/>
        <pt x="202" y="-13" on="0"/>
        <pt x="114" y="18" on="0"/>
        <pt x="58" y="76" on="0"/>
        <pt x="32" y="161" on="0"/>
        <pt x="32" y="215" on="1"/>
        <pt x="32" y="304" on="0"/>
        <pt x="77" y="470" on="0"/>
        <pt x="167" y="599" on="0"/>
        <pt x="302" y="676" on="0"/>
        <pt x="393" y="676" on="1"/>
        <pt x="413" y="676" on="0"/>
        <pt x="447" y="672" on="0"/>
        <pt x="461" y="669" on="1"/>
        <pt x="870" y="669" on="1"/>
        <pt x="844" y="548" on="1"/>
        <pt x="598" y="548" on="1"/>
        <pt x="571" y="411" on="1"/>
        <pt x="771" y="411" on="1"/>
        <pt x="745" y="290" on="1"/>
        <pt x="549" y="290" on="1"/>
        <pt x="515" y="121" on="1"/>
        <pt x="766" y="121" on="1"/>
        <pt x="766" y="0" on="1"/>
      </contour>
      <contour>
        <pt x="297" y="109" on="1"/>
        <pt x="311" y="109" on="0"/>
        <pt x="338" y="113" on="0"/>
        <pt x="352" y="116" on="1"/>
        <pt x="437" y="549" on="1"/>
        <pt x="421" y="554" on="0"/>
        <pt x="391" y="557" on="0"/>
        <pt x="372" y="557" on="1"/>
        <pt x="328" y="557" on="0"/>
        <pt x="266" y="493" on="0"/>
        <pt x="225" y="397" on="0"/>
        <pt x="206" y="283" on="0"/>
        <pt x="206" y="233" on="1"/>
        <pt x="206" y="207" on="0"/>
        <pt x="215" y="162" on="0"/>
        <pt x="236" y="128" on="0"/>
        <pt x="271" y="109" on="0"/>
      </contour>
    </TTGlyph>
    <TTGlyph name="Oacute" xMin="32" yMin="-15" xMax="636" yMax="942">
      <contour>
        <pt x="403" y="681" on="1"/>
        <pt x="526" y="681" on="0"/>
        <pt x="636" y="562" on="0"/>
        <pt x="636" y="453" on="1"/>
        <pt x="636" y="364" on="0"/>
        <pt x="591" y="196" on="0"/>
        <pt x="499" y="65" on="0"/>
        <pt x="359" y="-15" on="0"/>
        <pt x="264" y="-15" on="1"/>
        <pt x="141" y="-15" on="0"/>
        <pt x="32" y="107" on="0"/>
        <pt x="32" y="215" on="1"/>
        <pt x="32" y="304" on="0"/>
        <pt x="77" y="472" on="0"/>
        <pt x="168" y="602" on="0"/>
        <pt x="308" y="681" on="0"/>
      </contour>
      <contour>
        <pt x="372" y="557" on="1"/>
        <pt x="329" y="557" on="0"/>
        <pt x="266" y="493" on="0"/>
        <pt x="226" y="397" on="0"/>
        <pt x="206" y="283" on="0"/>
        <pt x="206" y="233" on="1"/>
        <pt x="206" y="207" on="0"/>
        <pt x="215" y="162" on="0"/>
        <pt x="236" y="128" on="0"/>
        <pt x="271" y="109" on="0"/>
        <pt x="297" y="109" on="1"/>
        <pt x="340" y="109" on="0"/>
        <pt x="403" y="174" on="0"/>
        <pt x="443" y="272" on="0"/>
        <pt x="463" y="387" on="0"/>
        <pt x="463" y="437" on="1"/>
        <pt x="463" y="462" on="0"/>
        <pt x="454" y="506" on="0"/>
        <pt x="433" y="539" on="0"/>
        <pt x="398" y="557" on="0"/>
      </contour>
      <contour>
        <pt x="343" y="789" on="1"/>
        <pt x="373" y="821" on="0"/>
        <pt x="408" y="850" on="1"/>
        <pt x="438" y="875" on="0"/>
        <pt x="517" y="927" on="0"/>
        <pt x="561" y="942" on="1"/>
        <pt x="574" y="928" on="0"/>
        <pt x="586" y="910" on="1"/>
        <pt x="597" y="894" on="0"/>
        <pt x="617" y="847" on="0"/>
        <pt x="624" y="817" on="1"/>
        <pt x="580" y="805" on="0"/>
        <pt x="498" y="767" on="0"/>
        <pt x="466" y="749" on="1"/>
        <pt x="428" y="728" on="0"/>
        <pt x="395" y="705" on="1"/>
      </contour>
    </TTGlyph>
    <TTGlyph name="Ocircumflex" xMin="32" yMin="-15" xMax="636" yMax="953">
      <contour>
        <pt x="403" y="681" on="1"/>
        <pt x="526" y="681" on="0"/>
        <pt x="636" y="562" on="0"/>
        <pt x="636" y="453" on="1"/>
        <pt x="636" y="364" on="0"/>
        <pt x="591" y="196" on="0"/>
        <pt x="499" y="65" on="0"/>
        <pt x="359" y="-15" on="0"/>
        <pt x="264" y="-15" on="1"/>
        <pt x="141" y="-15" on="0"/>
        <pt x="32" y="107" on="0"/>
        <pt x="32" y="215" on="1"/>
        <pt x="32" y="304" on="0"/>
        <pt x="77" y="472" on="0"/>
        <pt x="168" y="602" on="0"/>
        <pt x="308" y="681" on="0"/>
      </contour>
      <contour>
        <pt x="372" y="557" on="1"/>
        <pt x="329" y="557" on="0"/>
        <pt x="266" y="493" on="0"/>
        <pt x="226" y="397" on="0"/>
        <pt x="206" y="283" on="0"/>
        <pt x="206" y="233" on="1"/>
        <pt x="206" y="207" on="0"/>
        <pt x="215" y="162" on="0"/>
        <pt x="236" y="128" on="0"/>
        <pt x="271" y="109" on="0"/>
        <pt x="297" y="109" on="1"/>
        <pt x="340" y="109" on="0"/>
        <pt x="403" y="174" on="0"/>
        <pt x="443" y="272" on="0"/>
        <pt x="463" y="387" on="0"/>
        <pt x="463" y="437" on="1"/>
        <pt x="463" y="462" on="0"/>
        <pt x="454" y="506" on="0"/>
        <pt x="433" y="539" on="0"/>
        <pt x="398" y="557" on="0"/>
      </contour>
      <contour>
        <pt x="239" y="803" on="1"/>
        <pt x="273" y="831" on="0"/>
        <pt x="308" y="858" on="1"/>
        <pt x="338" y="881" on="0"/>
        <pt x="412" y="933" on="0"/>
        <pt x="449" y="953" on="1"/>
        <pt x="472" y="921" on="0"/>
        <pt x="527" y="865" on="0"/>
        <pt x="551" y="845" on="1"/>
        <pt x="578" y="821" on="0"/>
        <pt x="606" y="801" on="1"/>
        <pt x="551" y="719" on="1"/>
        <pt x="530" y="726" on="0"/>
        <pt x="507" y="737" on="1"/>
        <pt x="487" y="747" on="0"/>
        <pt x="441" y="776" on="0"/>
        <pt x="418" y="799" on="1"/>
        <pt x="392" y="783" on="0"/>
        <pt x="345" y="754" on="0"/>
        <pt x="328" y="743" on="1"/>
        <pt x="307" y="730" on="0"/>
        <pt x="290" y="719" on="1"/>
      </contour>
    </TTGlyph>
    <TTGlyph name="Odieresis" xMin="32" yMin="-15" xMax="636" yMax="891">
      <contour>
        <pt x="403" y="681" on="1"/>
        <pt x="526" y="681" on="0"/>
        <pt x="636" y="562" on="0"/>
        <pt x="636" y="453" on="1"/>
        <pt x="636" y="364" on="0"/>
        <pt x="591" y="196" on="0"/>
        <pt x="499" y="65" on="0"/>
        <pt x="359" y="-15" on="0"/>
        <pt x="264" y="-15" on="1"/>
        <pt x="141" y="-15" on="0"/>
        <pt x="32" y="107" on="0"/>
        <pt x="32" y="215" on="1"/>
        <pt x="32" y="304" on="0"/>
        <pt x="77" y="472" on="0"/>
        <pt x="168" y="602" on="0"/>
        <pt x="308" y="681" on="0"/>
      </contour>
      <contour>
        <pt x="372" y="557" on="1"/>
        <pt x="329" y="557" on="0"/>
        <pt x="266" y="493" on="0"/>
        <pt x="226" y="397" on="0"/>
        <pt x="206" y="283" on="0"/>
        <pt x="206" y="233" on="1"/>
        <pt x="206" y="207" on="0"/>
        <pt x="215" y="162" on="0"/>
        <pt x="236" y="128" on="0"/>
        <pt x="271" y="109" on="0"/>
        <pt x="297" y="109" on="1"/>
        <pt x="340" y="109" on="0"/>
        <pt x="403" y="174" on="0"/>
        <pt x="443" y="272" on="0"/>
        <pt x="463" y="387" on="0"/>
        <pt x="463" y="437" on="1"/>
        <pt x="463" y="462" on="0"/>
        <pt x="454" y="506" on="0"/>
        <pt x="433" y="539" on="0"/>
        <pt x="398" y="557" on="0"/>
      </contour>
      <contour>
        <pt x="317" y="891" on="1"/>
        <pt x="355" y="891" on="0"/>
        <pt x="392" y="853" on="0"/>
        <pt x="392" y="819" on="1"/>
        <pt x="392" y="787" on="0"/>
        <pt x="346" y="739" on="0"/>
        <pt x="307" y="739" on="1"/>
        <pt x="269" y="739" on="0"/>
        <pt x="233" y="778" on="0"/>
        <pt x="233" y="809" on="1"/>
        <pt x="233" y="843" on="0"/>
        <pt x="277" y="891" on="0"/>
      </contour>
      <contour>
        <pt x="534" y="891" on="1"/>
        <pt x="572" y="891" on="0"/>
        <pt x="609" y="853" on="0"/>
        <pt x="609" y="819" on="1"/>
        <pt x="609" y="787" on="0"/>
        <pt x="564" y="739" on="0"/>
        <pt x="524" y="739" on="1"/>
        <pt x="486" y="739" on="0"/>
        <pt x="451" y="778" on="0"/>
        <pt x="451" y="809" on="1"/>
        <pt x="451" y="843" on="0"/>
        <pt x="495" y="891" on="0"/>
      </contour>
    </TTGlyph>
    <TTGlyph name="Ograve" xMin="32" yMin="-15" xMax="636" yMax="944">
      <contour>
        <pt x="403" y="681" on="1"/>
        <pt x="526" y="681" on="0"/>
        <pt x="636" y="562" on="0"/>
        <pt x="636" y="453" on="1"/>
        <pt x="636" y="364" on="0"/>
        <pt x="591" y="196" on="0"/>
        <pt x="499" y="65" on="0"/>
        <pt x="359" y="-15" on="0"/>
        <pt x="264" y="-15" on="1"/>
        <pt x="141" y="-15" on="0"/>
        <pt x="32" y="107" on="0"/>
        <pt x="32" y="215" on="1"/>
        <pt x="32" y="304" on="0"/>
        <pt x="77" y="472" on="0"/>
        <pt x="168" y="602" on="0"/>
        <pt x="308" y="681" on="0"/>
      </contour>
      <contour>
        <pt x="372" y="557" on="1"/>
        <pt x="329" y="557" on="0"/>
        <pt x="266" y="493" on="0"/>
        <pt x="226" y="397" on="0"/>
        <pt x="206" y="283" on="0"/>
        <pt x="206" y="233" on="1"/>
        <pt x="206" y="207" on="0"/>
        <pt x="215" y="162" on="0"/>
        <pt x="236" y="128" on="0"/>
        <pt x="271" y="109" on="0"/>
        <pt x="297" y="109" on="1"/>
        <pt x="340" y="109" on="0"/>
        <pt x="403" y="174" on="0"/>
        <pt x="443" y="272" on="0"/>
        <pt x="463" y="387" on="0"/>
        <pt x="463" y="437" on="1"/>
        <pt x="463" y="462" on="0"/>
        <pt x="454" y="506" on="0"/>
        <pt x="433" y="539" on="0"/>
        <pt x="398" y="557" on="0"/>
      </contour>
      <contour>
        <pt x="395" y="704" on="1"/>
        <pt x="356" y="716" on="0"/>
        <pt x="317" y="734" on="1"/>
        <pt x="284" y="750" on="0"/>
        <pt x="210" y="799" on="0"/>
        <pt x="180" y="834" on="1"/>
        <pt x="186" y="851" on="0"/>
        <pt x="198" y="869" on="1"/>
        <pt x="208" y="885" on="0"/>
        <pt x="243" y="924" on="0"/>
        <pt x="269" y="944" on="1"/>
        <pt x="298" y="906" on="0"/>
        <pt x="361" y="847" on="0"/>
        <pt x="388" y="827" on="1"/>
        <pt x="420" y="803" on="0"/>
        <pt x="450" y="785" on="1"/>
      </contour>
    </TTGlyph>
    <TTGlyph name="Oslash" xMin="32" yMin="-72" xMax="636" yMax="743">
      <contour>
        <pt x="403" y="681" on="1"/>
        <pt x="420" y="681" on="0"/>
        <pt x="453" y="678" on="0"/>
        <pt x="467" y="676" on="1"/>
        <pt x="506" y="743" on="1"/>
        <pt x="610" y="686" on="1"/>
        <pt x="576" y="627" on="1"/>
        <pt x="607" y="598" on="0"/>
        <pt x="636" y="510" on="0"/>
        <pt x="636" y="453" on="1"/>
        <pt x="636" y="364" on="0"/>
        <pt x="591" y="196" on="0"/>
        <pt x="499" y="65" on="0"/>
        <pt x="359" y="-15" on="0"/>
        <pt x="264" y="-15" on="1"/>
        <pt x="247" y="-15" on="0"/>
        <pt x="215" y="-11" on="0"/>
        <pt x="201" y="-9" on="1"/>
        <pt x="164" y="-72" on="1"/>
        <pt x="61" y="-18" on="1"/>
        <pt x="94" y="39" on="1"/>
        <pt x="62" y="69" on="0"/>
        <pt x="32" y="157" on="0"/>
        <pt x="32" y="215" on="1"/>
        <pt x="32" y="304" on="0"/>
        <pt x="77" y="472" on="0"/>
        <pt x="168" y="602" on="0"/>
        <pt x="308" y="681" on="0"/>
      </contour>
      <contour>
        <pt x="462" y="434" on="1"/>
        <pt x="272" y="111" on="1"/>
        <pt x="278" y="109" on="0"/>
        <pt x="290" y="109" on="0"/>
        <pt x="297" y="109" on="1"/>
        <pt x="335" y="109" on="0"/>
        <pt x="393" y="160" on="0"/>
        <pt x="434" y="241" on="0"/>
        <pt x="457" y="339" on="0"/>
        <pt x="460" y="387" on="1"/>
      </contour>
      <contour>
        <pt x="206" y="231" on="1"/>
        <pt x="397" y="557" on="1"/>
        <pt x="392" y="558" on="0"/>
        <pt x="381" y="559" on="0"/>
        <pt x="372" y="559" on="1"/>
        <pt x="331" y="559" on="0"/>
        <pt x="271" y="502" on="0"/>
        <pt x="230" y="415" on="0"/>
        <pt x="208" y="310" on="0"/>
        <pt x="206" y="262" on="1"/>
      </contour>
    </TTGlyph>
    <TTGlyph name="Otilde" xMin="32" yMin="-15" xMax="636" yMax="870">
      <contour>
        <pt x="403" y="681" on="1"/>
        <pt x="526" y="681" on="0"/>
        <pt x="636" y="562" on="0"/>
        <pt x="636" y="453" on="1"/>
        <pt x="636" y="364" on="0"/>
        <pt x="591" y="196" on="0"/>
        <pt x="499" y="65" on="0"/>
        <pt x="359" y="-15" on="0"/>
        <pt x="264" y="-15" on="1"/>
        <pt x="141" y="-15" on="0"/>
        <pt x="32" y="107" on="0"/>
        <pt x="32" y="215" on="1"/>
        <pt x="32" y="304" on="0"/>
        <pt x="77" y="472" on="0"/>
        <pt x="168" y="602" on="0"/>
        <pt x="308" y="681" on="0"/>
      </contour>
      <contour>
        <pt x="372" y="557" on="1"/>
        <pt x="329" y="557" on="0"/>
        <pt x="266" y="493" on="0"/>
        <pt x="226" y="397" on="0"/>
        <pt x="206" y="283" on="0"/>
        <pt x="206" y="233" on="1"/>
        <pt x="206" y="207" on="0"/>
        <pt x="215" y="162" on="0"/>
        <pt x="236" y="128" on="0"/>
        <pt x="271" y="109" on="0"/>
        <pt x="297" y="109" on="1"/>
        <pt x="340" y="109" on="0"/>
        <pt x="403" y="174" on="0"/>
        <pt x="443" y="272" on="0"/>
        <pt x="463" y="387" on="0"/>
        <pt x="463" y="437" on="1"/>
        <pt x="463" y="462" on="0"/>
        <pt x="454" y="506" on="0"/>
        <pt x="433" y="539" on="0"/>
        <pt x="398" y="557" on="0"/>
      </contour>
      <contour>
        <pt x="505" y="802" on="1"/>
        <pt x="498" y="798" on="0"/>
        <pt x="489" y="795" on="1"/>
        <pt x="481" y="792" on="0"/>
        <pt x="460" y="788" on="0"/>
        <pt x="449" y="788" on="1"/>
        <pt x="431" y="788" on="0"/>
        <pt x="406" y="800" on="0"/>
        <pt x="383" y="800" on="1"/>
        <pt x="375" y="800" on="0"/>
        <pt x="356" y="797" on="0"/>
        <pt x="348" y="795" on="1"/>
        <pt x="338" y="793" on="0"/>
        <pt x="329" y="791" on="1"/>
        <pt x="342" y="856" on="1"/>
        <pt x="349" y="859" on="0"/>
        <pt x="358" y="863" on="1"/>
        <pt x="366" y="865" on="0"/>
        <pt x="386" y="870" on="0"/>
        <pt x="398" y="870" on="1"/>
        <pt x="416" y="870" on="0"/>
        <pt x="441" y="858" on="0"/>
        <pt x="464" y="858" on="1"/>
        <pt x="472" y="858" on="0"/>
        <pt x="491" y="860" on="0"/>
        <pt x="499" y="862" on="1"/>
        <pt x="509" y="864" on="0"/>
        <pt x="518" y="867" on="1"/>
      </contour>
    </TTGlyph>
    <TTGlyph name="P" xMin="7" yMin="0" xMax="551" yMax="675">
      <contour>
        <pt x="137" y="673" on="1"/>
        <pt x="248" y="666" on="1"/>
        <pt x="268" y="670" on="0"/>
        <pt x="317" y="675" on="0"/>
        <pt x="345" y="675" on="1"/>
        <pt x="389" y="675" on="0"/>
        <pt x="464" y="659" on="0"/>
        <pt x="520" y="622" on="0"/>
        <pt x="551" y="560" on="0"/>
        <pt x="551" y="515" on="1"/>
        <pt x="551" y="448" on="0"/>
        <pt x="502" y="348" on="0"/>
        <pt x="423" y="281" on="0"/>
        <pt x="323" y="248" on="0"/>
        <pt x="271" y="248" on="1"/>
        <pt x="257" y="248" on="0"/>
        <pt x="231" y="248" on="0"/>
        <pt x="217" y="250" on="1"/>
        <pt x="169" y="0" on="1"/>
        <pt x="7" y="0" on="1"/>
      </contour>
      <contour>
        <pt x="311" y="567" on="1"/>
        <pt x="302" y="567" on="0"/>
        <pt x="286" y="567" on="0"/>
        <pt x="278" y="565" on="1"/>
        <pt x="240" y="367" on="1"/>
        <pt x="259" y="367" on="1"/>
        <pt x="314" y="367" on="0"/>
        <pt x="381" y="437" on="0"/>
        <pt x="381" y="494" on="1"/>
        <pt x="381" y="534" on="0"/>
        <pt x="343" y="567" on="0"/>
      </contour>
    </TTGlyph>
    <TTGlyph name="Q" xMin="47" yMin="-258" xMax="636" yMax="681">
      <contour>
        <pt x="586" y="-174" on="1"/>
        <pt x="529" y="-209" on="0"/>
        <pt x="388" y="-258" on="0"/>
        <pt x="319" y="-258" on="1"/>
        <pt x="278" y="-258" on="0"/>
        <pt x="202" y="-239" on="0"/>
        <pt x="138" y="-193" on="0"/>
        <pt x="92" y="-116" on="0"/>
        <pt x="81" y="-59" on="1"/>
        <pt x="123" y="23" on="1"/>
        <pt x="141" y="18" on="0"/>
        <pt x="167" y="17" on="0"/>
        <pt x="175" y="17" on="1"/>
        <pt x="232" y="17" on="0"/>
        <pt x="337" y="90" on="0"/>
        <pt x="416" y="209" on="0"/>
        <pt x="463" y="359" on="0"/>
        <pt x="463" y="437" on="1"/>
        <pt x="463" y="489" on="0"/>
        <pt x="422" y="557" on="0"/>
        <pt x="370" y="557" on="1"/>
        <pt x="337" y="557" on="0"/>
        <pt x="283" y="518" on="0"/>
        <pt x="244" y="458" on="0"/>
        <pt x="223" y="386" on="0"/>
        <pt x="223" y="353" on="1"/>
        <pt x="223" y="318" on="0"/>
        <pt x="262" y="292" on="0"/>
        <pt x="304" y="287" on="1"/>
        <pt x="292" y="175" on="1"/>
        <pt x="269" y="168" on="0"/>
        <pt x="240" y="166" on="0"/>
        <pt x="232" y="166" on="1"/>
        <pt x="196" y="166" on="0"/>
        <pt x="129" y="190" on="0"/>
        <pt x="78" y="236" on="0"/>
        <pt x="47" y="304" on="0"/>
        <pt x="47" y="348" on="1"/>
        <pt x="47" y="406" on="0"/>
        <pt x="96" y="524" on="0"/>
        <pt x="188" y="620" on="0"/>
        <pt x="320" y="681" on="0"/>
        <pt x="403" y="681" on="1"/>
        <pt x="526" y="681" on="0"/>
        <pt x="636" y="562" on="0"/>
        <pt x="636" y="453" on="1"/>
        <pt x="636" y="352" on="0"/>
        <pt x="571" y="167" on="0"/>
        <pt x="462" y="23" on="0"/>
        <pt x="319" y="-69" on="0"/>
        <pt x="241" y="-77" on="1"/>
        <pt x="255" y="-106" on="0"/>
        <pt x="303" y="-125" on="0"/>
        <pt x="328" y="-125" on="1"/>
        <pt x="382" y="-125" on="0"/>
        <pt x="482" y="-83" on="0"/>
        <pt x="533" y="-53" on="1"/>
      </contour>
    </TTGlyph>
    <TTGlyph name="R" xMin="7" yMin="-103" xMax="596" yMax="675">
      <contour>
        <pt x="137" y="673" on="1"/>
        <pt x="248" y="666" on="1"/>
        <pt x="268" y="670" on="0"/>
        <pt x="317" y="675" on="0"/>
        <pt x="345" y="675" on="1"/>
        <pt x="389" y="675" on="0"/>
        <pt x="464" y="659" on="0"/>
        <pt x="520" y="623" on="0"/>
        <pt x="551" y="563" on="0"/>
        <pt x="551" y="519" on="1"/>
        <pt x="551" y="475" on="0"/>
        <pt x="527" y="405" on="0"/>
        <pt x="484" y="350" on="0"/>
        <pt x="424" y="309" on="0"/>
        <pt x="389" y="296" on="1"/>
        <pt x="401" y="260" on="0"/>
        <pt x="446" y="174" on="0"/>
        <pt x="503" y="87" on="0"/>
        <pt x="566" y="3" on="0"/>
        <pt x="596" y="-33" on="1"/>
        <pt x="463" y="-103" on="1"/>
        <pt x="418" y="-47" on="0"/>
        <pt x="353" y="48" on="0"/>
        <pt x="304" y="136" on="0"/>
        <pt x="267" y="225" on="0"/>
        <pt x="249" y="276" on="1"/>
        <pt x="243" y="276" on="0"/>
        <pt x="229" y="277" on="0"/>
        <pt x="223" y="277" on="1"/>
        <pt x="169" y="0" on="1"/>
        <pt x="7" y="0" on="1"/>
      </contour>
      <contour>
        <pt x="311" y="567" on="1"/>
        <pt x="302" y="567" on="0"/>
        <pt x="286" y="567" on="0"/>
        <pt x="278" y="565" on="1"/>
        <pt x="245" y="392" on="1"/>
        <pt x="259" y="392" on="1"/>
        <pt x="315" y="392" on="0"/>
        <pt x="381" y="448" on="0"/>
        <pt x="381" y="499" on="1"/>
        <pt x="381" y="535" on="0"/>
        <pt x="343" y="567" on="0"/>
      </contour>
    </TTGlyph>
    <TTGlyph name="S" xMin="-23" yMin="-13" xMax="494" yMax="681">
      <contour>
        <pt x="305" y="681" on="1"/>
        <pt x="354" y="681" on="0"/>
        <pt x="420" y="659" on="0"/>
        <pt x="462" y="622" on="0"/>
        <pt x="486" y="575" on="0"/>
        <pt x="494" y="550" on="1"/>
        <pt x="368" y="492" on="1"/>
        <pt x="357" y="524" on="0"/>
        <pt x="332" y="557" on="0"/>
        <pt x="305" y="557" on="1"/>
        <pt x="276" y="557" on="0"/>
        <pt x="242" y="524" on="0"/>
        <pt x="242" y="501" on="1"/>
        <pt x="242" y="472" on="0"/>
        <pt x="268" y="442" on="0"/>
        <pt x="289" y="427" on="1"/>
        <pt x="377" y="362" on="1"/>
        <pt x="416" y="333" on="0"/>
        <pt x="461" y="253" on="0"/>
        <pt x="461" y="197" on="1"/>
        <pt x="461" y="144" on="0"/>
        <pt x="418" y="65" on="0"/>
        <pt x="345" y="13" on="0"/>
        <pt x="251" y="-13" on="0"/>
        <pt x="200" y="-13" on="1"/>
        <pt x="127" y="-13" on="0"/>
        <pt x="19" y="20" on="0"/>
        <pt x="-23" y="43" on="1"/>
        <pt x="47" y="167" on="1"/>
        <pt x="84" y="145" on="0"/>
        <pt x="158" y="112" on="0"/>
        <pt x="197" y="112" on="1"/>
        <pt x="238" y="112" on="0"/>
        <pt x="287" y="147" on="0"/>
        <pt x="287" y="184" on="1"/>
        <pt x="287" y="213" on="0"/>
        <pt x="259" y="250" on="0"/>
        <pt x="236" y="267" on="1"/>
        <pt x="165" y="319" on="1"/>
        <pt x="141" y="337" on="0"/>
        <pt x="105" y="373" on="0"/>
        <pt x="81" y="415" on="0"/>
        <pt x="68" y="465" on="0"/>
        <pt x="68" y="496" on="1"/>
        <pt x="68" y="540" on="0"/>
        <pt x="104" y="609" on="0"/>
        <pt x="168" y="656" on="0"/>
        <pt x="254" y="681" on="0"/>
      </contour>
    </TTGlyph>
    <TTGlyph name="T" xMin="47" yMin="0" xMax="545" yMax="669">
      <contour>
        <pt x="47" y="669" on="1"/>
        <pt x="545" y="669" on="1"/>
        <pt x="519" y="548" on="1"/>
        <pt x="362" y="548" on="1"/>
        <pt x="256" y="0" on="1"/>
        <pt x="93" y="0" on="1"/>
        <pt x="198" y="548" on="1"/>
        <pt x="47" y="548" on="1"/>
      </contour>
    </TTGlyph>
    <TTGlyph name="Thorn" xMin="7" yMin="0" xMax="530" yMax="669">
      <contour>
        <pt x="136" y="669" on="1"/>
        <pt x="298" y="669" on="1"/>
        <pt x="276" y="556" on="1"/>
        <pt x="289" y="558" on="0"/>
        <pt x="313" y="558" on="0"/>
        <pt x="324" y="558" on="1"/>
        <pt x="370" y="558" on="0"/>
        <pt x="446" y="540" on="0"/>
        <pt x="500" y="501" on="0"/>
        <pt x="530" y="439" on="0"/>
        <pt x="530" y="395" on="1"/>
        <pt x="530" y="329" on="0"/>
        <pt x="481" y="230" on="0"/>
        <pt x="402" y="164" on="0"/>
        <pt x="300" y="131" on="0"/>
        <pt x="246" y="131" on="1"/>
        <pt x="232" y="131" on="0"/>
        <pt x="206" y="131" on="0"/>
        <pt x="194" y="132" on="1"/>
        <pt x="169" y="0" on="1"/>
        <pt x="7" y="0" on="1"/>
      </contour>
      <contour>
        <pt x="289" y="442" on="1"/>
        <pt x="269" y="442" on="0"/>
        <pt x="254" y="439" on="1"/>
        <pt x="219" y="257" on="1"/>
        <pt x="248" y="257" on="1"/>
        <pt x="294" y="257" on="0"/>
        <pt x="360" y="315" on="0"/>
        <pt x="360" y="369" on="1"/>
        <pt x="360" y="411" on="0"/>
        <pt x="319" y="442" on="0"/>
      </contour>
    </TTGlyph>
    <TTGlyph name="U" xMin="37" yMin="-7" xMax="649" yMax="669">
      <contour>
        <pt x="287" y="669" on="1"/>
        <pt x="207" y="260" on="1"/>
        <pt x="204" y="246" on="0"/>
        <pt x="202" y="220" on="0"/>
        <pt x="202" y="208" on="1"/>
        <pt x="202" y="161" on="0"/>
        <pt x="245" y="112" on="0"/>
        <pt x="283" y="112" on="1"/>
        <pt x="332" y="112" on="0"/>
        <pt x="394" y="199" on="0"/>
        <pt x="408" y="268" on="1"/>
        <pt x="487" y="669" on="1"/>
        <pt x="649" y="669" on="1"/>
        <pt x="568" y="251" on="1"/>
        <pt x="558" y="199" on="0"/>
        <pt x="513" y="105" on="0"/>
        <pt x="438" y="35" on="0"/>
        <pt x="329" y="-7" on="0"/>
        <pt x="256" y="-7" on="1"/>
        <pt x="196" y="-7" on="0"/>
        <pt x="112" y="22" on="0"/>
        <pt x="60" y="74" on="0"/>
        <pt x="37" y="145" on="0"/>
        <pt x="37" y="187" on="1"/>
        <pt x="37" y="219" on="0"/>
        <pt x="45" y="259" on="1"/>
        <pt x="125" y="669" on="1"/>
      </contour>
    </TTGlyph>
    <TTGlyph name="Uacute" xMin="37" yMin="-7" xMax="649" yMax="942">
      <contour>
        <pt x="287" y="669" on="1"/>
        <pt x="207" y="260" on="1"/>
        <pt x="204" y="246" on="0"/>
        <pt x="202" y="220" on="0"/>
        <pt x="202" y="208" on="1"/>
        <pt x="202" y="161" on="0"/>
        <pt x="245" y="112" on="0"/>
        <pt x="283" y="112" on="1"/>
        <pt x="332" y="112" on="0"/>
        <pt x="394" y="199" on="0"/>
        <pt x="408" y="268" on="1"/>
        <pt x="487" y="669" on="1"/>
        <pt x="649" y="669" on="1"/>
        <pt x="568" y="251" on="1"/>
        <pt x="558" y="199" on="0"/>
        <pt x="513" y="105" on="0"/>
        <pt x="438" y="35" on="0"/>
        <pt x="329" y="-7" on="0"/>
        <pt x="256" y="-7" on="1"/>
        <pt x="196" y="-7" on="0"/>
        <pt x="112" y="22" on="0"/>
        <pt x="60" y="74" on="0"/>
        <pt x="37" y="145" on="0"/>
        <pt x="37" y="187" on="1"/>
        <pt x="37" y="219" on="0"/>
        <pt x="45" y="259" on="1"/>
        <pt x="125" y="669" on="1"/>
      </contour>
      <contour>
        <pt x="334" y="789" on="1"/>
        <pt x="364" y="821" on="0"/>
        <pt x="399" y="850" on="1"/>
        <pt x="429" y="875" on="0"/>
        <pt x="508" y="927" on="0"/>
        <pt x="552" y="942" on="1"/>
        <pt x="565" y="928" on="0"/>
        <pt x="577" y="910" on="1"/>
        <pt x="588" y="894" on="0"/>
        <pt x="608" y="847" on="0"/>
        <pt x="615" y="817" on="1"/>
        <pt x="571" y="805" on="0"/>
        <pt x="489" y="767" on="0"/>
        <pt x="457" y="749" on="1"/>
        <pt x="419" y="728" on="0"/>
        <pt x="386" y="705" on="1"/>
      </contour>
    </TTGlyph>
    <TTGlyph name="Ucircumflex" xMin="37" yMin="-7" xMax="649" yMax="953">
      <contour>
        <pt x="287" y="669" on="1"/>
        <pt x="207" y="260" on="1"/>
        <pt x="204" y="246" on="0"/>
        <pt x="202" y="220" on="0"/>
        <pt x="202" y="208" on="1"/>
        <pt x="202" y="161" on="0"/>
        <pt x="245" y="112" on="0"/>
        <pt x="283" y="112" on="1"/>
        <pt x="332" y="112" on="0"/>
        <pt x="394" y="199" on="0"/>
        <pt x="408" y="268" on="1"/>
        <pt x="487" y="669" on="1"/>
        <pt x="649" y="669" on="1"/>
        <pt x="568" y="251" on="1"/>
        <pt x="558" y="199" on="0"/>
        <pt x="513" y="105" on="0"/>
        <pt x="438" y="35" on="0"/>
        <pt x="329" y="-7" on="0"/>
        <pt x="256" y="-7" on="1"/>
        <pt x="196" y="-7" on="0"/>
        <pt x="112" y="22" on="0"/>
        <pt x="60" y="74" on="0"/>
        <pt x="37" y="145" on="0"/>
        <pt x="37" y="187" on="1"/>
        <pt x="37" y="219" on="0"/>
        <pt x="45" y="259" on="1"/>
        <pt x="125" y="669" on="1"/>
      </contour>
      <contour>
        <pt x="230" y="803" on="1"/>
        <pt x="264" y="831" on="0"/>
        <pt x="299" y="858" on="1"/>
        <pt x="329" y="881" on="0"/>
        <pt x="403" y="933" on="0"/>
        <pt x="440" y="953" on="1"/>
        <pt x="463" y="921" on="0"/>
        <pt x="518" y="865" on="0"/>
        <pt x="542" y="845" on="1"/>
        <pt x="569" y="821" on="0"/>
        <pt x="597" y="801" on="1"/>
        <pt x="542" y="719" on="1"/>
        <pt x="521" y="726" on="0"/>
        <pt x="498" y="737" on="1"/>
        <pt x="478" y="747" on="0"/>
        <pt x="432" y="776" on="0"/>
        <pt x="409" y="799" on="1"/>
        <pt x="383" y="783" on="0"/>
        <pt x="336" y="754" on="0"/>
        <pt x="319" y="743" on="1"/>
        <pt x="298" y="730" on="0"/>
        <pt x="281" y="719" on="1"/>
      </contour>
    </TTGlyph>
    <TTGlyph name="Udieresis" xMin="37" yMin="-7" xMax="649" yMax="891">
      <contour>
        <pt x="287" y="669" on="1"/>
        <pt x="207" y="260" on="1"/>
        <pt x="204" y="246" on="0"/>
        <pt x="202" y="220" on="0"/>
        <pt x="202" y="208" on="1"/>
        <pt x="202" y="161" on="0"/>
        <pt x="245" y="112" on="0"/>
        <pt x="283" y="112" on="1"/>
        <pt x="332" y="112" on="0"/>
        <pt x="394" y="199" on="0"/>
        <pt x="408" y="268" on="1"/>
        <pt x="487" y="669" on="1"/>
        <pt x="649" y="669" on="1"/>
        <pt x="568" y="251" on="1"/>
        <pt x="558" y="199" on="0"/>
        <pt x="513" y="105" on="0"/>
        <pt x="438" y="35" on="0"/>
        <pt x="329" y="-7" on="0"/>
        <pt x="256" y="-7" on="1"/>
        <pt x="196" y="-7" on="0"/>
        <pt x="112" y="22" on="0"/>
        <pt x="60" y="74" on="0"/>
        <pt x="37" y="145" on="0"/>
        <pt x="37" y="187" on="1"/>
        <pt x="37" y="219" on="0"/>
        <pt x="45" y="259" on="1"/>
        <pt x="125" y="669" on="1"/>
      </contour>
      <contour>
        <pt x="308" y="891" on="1"/>
        <pt x="346" y="891" on="0"/>
        <pt x="383" y="853" on="0"/>
        <pt x="383" y="819" on="1"/>
        <pt x="383" y="787" on="0"/>
        <pt x="337" y="739" on="0"/>
        <pt x="298" y="739" on="1"/>
        <pt x="260" y="739" on="0"/>
        <pt x="224" y="778" on="0"/>
        <pt x="224" y="809" on="1"/>
        <pt x="224" y="843" on="0"/>
        <pt x="268" y="891" on="0"/>
      </contour>
      <contour>
        <pt x="525" y="891" on="1"/>
        <pt x="563" y="891" on="0"/>
        <pt x="600" y="853" on="0"/>
        <pt x="600" y="819" on="1"/>
        <pt x="600" y="787" on="0"/>
        <pt x="555" y="739" on="0"/>
        <pt x="515" y="739" on="1"/>
        <pt x="477" y="739" on="0"/>
        <pt x="442" y="778" on="0"/>
        <pt x="442" y="809" on="1"/>
        <pt x="442" y="843" on="0"/>
        <pt x="486" y="891" on="0"/>
      </contour>
    </TTGlyph>
    <TTGlyph name="Ugrave" xMin="37" yMin="-7" xMax="649" yMax="944">
      <contour>
        <pt x="287" y="669" on="1"/>
        <pt x="207" y="260" on="1"/>
        <pt x="204" y="246" on="0"/>
        <pt x="202" y="220" on="0"/>
        <pt x="202" y="208" on="1"/>
        <pt x="202" y="161" on="0"/>
        <pt x="245" y="112" on="0"/>
        <pt x="283" y="112" on="1"/>
        <pt x="332" y="112" on="0"/>
        <pt x="394" y="199" on="0"/>
        <pt x="408" y="268" on="1"/>
        <pt x="487" y="669" on="1"/>
        <pt x="649" y="669" on="1"/>
        <pt x="568" y="251" on="1"/>
        <pt x="558" y="199" on="0"/>
        <pt x="513" y="105" on="0"/>
        <pt x="438" y="35" on="0"/>
        <pt x="329" y="-7" on="0"/>
        <pt x="256" y="-7" on="1"/>
        <pt x="196" y="-7" on="0"/>
        <pt x="112" y="22" on="0"/>
        <pt x="60" y="74" on="0"/>
        <pt x="37" y="145" on="0"/>
        <pt x="37" y="187" on="1"/>
        <pt x="37" y="219" on="0"/>
        <pt x="45" y="259" on="1"/>
        <pt x="125" y="669" on="1"/>
      </contour>
      <contour>
        <pt x="386" y="704" on="1"/>
        <pt x="347" y="716" on="0"/>
        <pt x="308" y="734" on="1"/>
        <pt x="275" y="750" on="0"/>
        <pt x="201" y="799" on="0"/>
        <pt x="171" y="834" on="1"/>
        <pt x="177" y="851" on="0"/>
        <pt x="189" y="869" on="1"/>
        <pt x="199" y="885" on="0"/>
        <pt x="234" y="924" on="0"/>
        <pt x="260" y="944" on="1"/>
        <pt x="289" y="906" on="0"/>
        <pt x="352" y="847" on="0"/>
        <pt x="379" y="827" on="1"/>
        <pt x="411" y="803" on="0"/>
        <pt x="441" y="785" on="1"/>
      </contour>
    </TTGlyph>
    <TTGlyph name="V" xMin="27" yMin="0" xMax="654" yMax="678">
      <contour>
        <pt x="293" y="0" on="1"/>
        <pt x="155" y="0" on="1"/>
        <pt x="27" y="669" on="1"/>
        <pt x="196" y="669" on="1"/>
        <pt x="251" y="292" on="1"/>
        <pt x="254" y="272" on="0"/>
        <pt x="261" y="222" on="0"/>
        <pt x="263" y="205" on="1"/>
        <pt x="266" y="212" on="0"/>
        <pt x="276" y="234" on="0"/>
        <pt x="287" y="258" on="0"/>
        <pt x="299" y="282" on="0"/>
        <pt x="304" y="292" on="1"/>
        <pt x="498" y="678" on="1"/>
        <pt x="654" y="642" on="1"/>
      </contour>
    </TTGlyph>
    <TTGlyph name="W" xMin="37" yMin="0" xMax="925" yMax="677">
      <contour>
        <pt x="427" y="317" on="1"/>
        <pt x="426" y="330" on="0"/>
        <pt x="422" y="385" on="0"/>
        <pt x="422" y="409" on="1"/>
        <pt x="418" y="397" on="0"/>
        <pt x="407" y="370" on="0"/>
        <pt x="396" y="344" on="0"/>
        <pt x="387" y="323" on="0"/>
        <pt x="384" y="318" on="1"/>
        <pt x="232" y="0" on="1"/>
        <pt x="101" y="0" on="1"/>
        <pt x="37" y="669" on="1"/>
        <pt x="206" y="669" on="1"/>
        <pt x="218" y="322" on="1"/>
        <pt x="218" y="305" on="0"/>
        <pt x="219" y="249" on="0"/>
        <pt x="219" y="226" on="1"/>
        <pt x="222" y="236" on="0"/>
        <pt x="232" y="264" on="0"/>
        <pt x="242" y="291" on="0"/>
        <pt x="252" y="315" on="0"/>
        <pt x="255" y="322" on="1"/>
        <pt x="406" y="669" on="1"/>
        <pt x="554" y="669" on="1"/>
        <pt x="571" y="310" on="1"/>
        <pt x="571" y="303" on="0"/>
        <pt x="572" y="280" on="0"/>
        <pt x="573" y="255" on="0"/>
        <pt x="573" y="228" on="0"/>
        <pt x="573" y="217" on="1"/>
        <pt x="577" y="228" on="0"/>
        <pt x="587" y="255" on="0"/>
        <pt x="598" y="281" on="0"/>
        <pt x="607" y="304" on="0"/>
        <pt x="610" y="310" on="1"/>
        <pt x="769" y="677" on="1"/>
        <pt x="925" y="640" on="1"/>
        <pt x="592" y="0" on="1"/>
        <pt x="454" y="0" on="1"/>
      </contour>
    </TTGlyph>
    <TTGlyph name="X" xMin="-48" yMin="-8" xMax="615" yMax="679">
      <contour>
        <pt x="-48" y="28" on="1"/>
        <pt x="209" y="367" on="1"/>
        <pt x="80" y="669" on="1"/>
        <pt x="250" y="669" on="1"/>
        <pt x="309" y="510" on="1"/>
        <pt x="313" y="500" on="0"/>
        <pt x="323" y="470" on="0"/>
        <pt x="327" y="458" on="1"/>
        <pt x="335" y="469" on="0"/>
        <pt x="354" y="499" on="0"/>
        <pt x="361" y="509" on="1"/>
        <pt x="476" y="679" on="1"/>
        <pt x="615" y="630" on="1"/>
        <pt x="401" y="348" on="1"/>
        <pt x="542" y="0" on="1"/>
        <pt x="371" y="0" on="1"/>
        <pt x="299" y="205" on="1"/>
        <pt x="295" y="214" on="0"/>
        <pt x="286" y="240" on="0"/>
        <pt x="281" y="255" on="1"/>
        <pt x="272" y="239" on="0"/>
        <pt x="255" y="214" on="0"/>
        <pt x="249" y="205" on="1"/>
        <pt x="104" y="-8" on="1"/>
      </contour>
    </TTGlyph>
    <TTGlyph name="Y" xMin="28" yMin="0" xMax="536" yMax="685">
      <contour>
        <pt x="107" y="0" on="1"/>
        <pt x="107" y="40" on="1"/>
        <pt x="107" y="105" on="0"/>
        <pt x="130" y="222" on="0"/>
        <pt x="152" y="273" on="1"/>
        <pt x="28" y="669" on="1"/>
        <pt x="192" y="669" on="1"/>
        <pt x="244" y="457" on="1"/>
        <pt x="288" y="542" on="0"/>
        <pt x="392" y="653" on="0"/>
        <pt x="440" y="685" on="1"/>
        <pt x="536" y="608" on="1"/>
        <pt x="480" y="555" on="0"/>
        <pt x="382" y="450" on="0"/>
        <pt x="310" y="320" on="0"/>
        <pt x="268" y="153" on="0"/>
        <pt x="268" y="38" on="1"/>
        <pt x="268" y="0" on="1"/>
      </contour>
    </TTGlyph>
    <TTGlyph name="Yacute" xMin="28" yMin="0" xMax="536" yMax="942">
      <contour>
        <pt x="107" y="0" on="1"/>
        <pt x="107" y="40" on="1"/>
        <pt x="107" y="105" on="0"/>
        <pt x="130" y="222" on="0"/>
        <pt x="152" y="273" on="1"/>
        <pt x="28" y="669" on="1"/>
        <pt x="192" y="669" on="1"/>
        <pt x="244" y="457" on="1"/>
        <pt x="288" y="542" on="0"/>
        <pt x="392" y="653" on="0"/>
        <pt x="440" y="685" on="1"/>
        <pt x="536" y="608" on="1"/>
        <pt x="480" y="555" on="0"/>
        <pt x="382" y="450" on="0"/>
        <pt x="310" y="320" on="0"/>
        <pt x="268" y="153" on="0"/>
        <pt x="268" y="38" on="1"/>
        <pt x="268" y="0" on="1"/>
      </contour>
      <contour>
        <pt x="232" y="789" on="1"/>
        <pt x="263" y="821" on="0"/>
        <pt x="298" y="850" on="1"/>
        <pt x="328" y="875" on="0"/>
        <pt x="406" y="927" on="0"/>
        <pt x="450" y="942" on="1"/>
        <pt x="464" y="928" on="0"/>
        <pt x="476" y="910" on="1"/>
        <pt x="487" y="894" on="0"/>
        <pt x="507" y="847" on="0"/>
        <pt x="514" y="817" on="1"/>
        <pt x="470" y="805" on="0"/>
        <pt x="388" y="767" on="0"/>
        <pt x="356" y="749" on="1"/>
        <pt x="318" y="728" on="0"/>
        <pt x="284" y="705" on="1"/>
      </contour>
    </TTGlyph>
    <TTGlyph name="Ydieresis" xMin="28" yMin="0" xMax="536" yMax="891">
      <contour>
        <pt x="107" y="0" on="1"/>
        <pt x="107" y="40" on="1"/>
        <pt x="107" y="105" on="0"/>
        <pt x="130" y="222" on="0"/>
        <pt x="152" y="273" on="1"/>
        <pt x="28" y="669" on="1"/>
        <pt x="192" y="669" on="1"/>
        <pt x="244" y="457" on="1"/>
        <pt x="288" y="542" on="0"/>
        <pt x="392" y="653" on="0"/>
        <pt x="440" y="685" on="1"/>
        <pt x="536" y="608" on="1"/>
        <pt x="480" y="555" on="0"/>
        <pt x="382" y="450" on="0"/>
        <pt x="310" y="320" on="0"/>
        <pt x="268" y="153" on="0"/>
        <pt x="268" y="38" on="1"/>
        <pt x="268" y="0" on="1"/>
      </contour>
      <contour>
        <pt x="199" y="891" on="1"/>
        <pt x="237" y="891" on="0"/>
        <pt x="274" y="853" on="0"/>
        <pt x="274" y="819" on="1"/>
        <pt x="274" y="787" on="0"/>
        <pt x="228" y="739" on="0"/>
        <pt x="189" y="739" on="1"/>
        <pt x="151" y="739" on="0"/>
        <pt x="115" y="778" on="0"/>
        <pt x="115" y="809" on="1"/>
        <pt x="115" y="843" on="0"/>
        <pt x="159" y="891" on="0"/>
      </contour>
      <contour>
        <pt x="416" y="891" on="1"/>
        <pt x="454" y="891" on="0"/>
        <pt x="491" y="853" on="0"/>
        <pt x="491" y="819" on="1"/>
        <pt x="491" y="787" on="0"/>
        <pt x="446" y="739" on="0"/>
        <pt x="406" y="739" on="1"/>
        <pt x="368" y="739" on="0"/>
        <pt x="333" y="778" on="0"/>
        <pt x="333" y="809" on="1"/>
        <pt x="333" y="843" on="0"/>
        <pt x="377" y="891" on="0"/>
      </contour>
    </TTGlyph>
    <TTGlyph name="Z" xMin="-18" yMin="0" xMax="524" yMax="669">
      <contour>
        <pt x="-18" y="0" on="1"/>
        <pt x="-18" y="85" on="1"/>
        <pt x="314" y="549" on="1"/>
        <pt x="305" y="548" on="0"/>
        <pt x="277" y="545" on="0"/>
        <pt x="267" y="545" on="1"/>
        <pt x="80" y="545" on="1"/>
        <pt x="104" y="669" on="1"/>
        <pt x="524" y="669" on="1"/>
        <pt x="524" y="582" on="1"/>
        <pt x="194" y="119" on="1"/>
        <pt x="204" y="121" on="0"/>
        <pt x="230" y="122" on="0"/>
        <pt x="243" y="122" on="1"/>
        <pt x="452" y="122" on="1"/>
        <pt x="452" y="0" on="1"/>
      </contour>
    </TTGlyph>
    <TTGlyph name="a" xMin="22" yMin="-12" xMax="503" yMax="502">
      <contour>
        <pt x="207" y="109" on="1"/>
        <pt x="222" y="109" on="0"/>
        <pt x="256" y="153" on="0"/>
        <pt x="287" y="221" on="0"/>
        <pt x="313" y="302" on="0"/>
        <pt x="322" y="338" on="1"/>
        <pt x="332" y="383" on="1"/>
        <pt x="321" y="387" on="0"/>
        <pt x="302" y="387" on="1"/>
        <pt x="267" y="387" on="0"/>
        <pt x="222" y="336" on="0"/>
        <pt x="195" y="264" on="0"/>
        <pt x="184" y="186" on="0"/>
        <pt x="184" y="160" on="1"/>
        <pt x="184" y="139" on="0"/>
        <pt x="193" y="109" on="0"/>
      </contour>
      <contour>
        <pt x="159" y="-9" on="1"/>
        <pt x="121" y="-9" on="0"/>
        <pt x="69" y="22" on="0"/>
        <pt x="37" y="71" on="0"/>
        <pt x="22" y="132" on="0"/>
        <pt x="22" y="163" on="1"/>
        <pt x="22" y="235" on="0"/>
        <pt x="59" y="358" on="0"/>
        <pt x="132" y="450" on="0"/>
        <pt x="239" y="502" on="0"/>
        <pt x="309" y="502" on="1"/>
        <pt x="342" y="502" on="0"/>
        <pt x="395" y="491" on="0"/>
        <pt x="423" y="478" on="1"/>
        <pt x="503" y="473" on="1"/>
        <pt x="461" y="255" on="1"/>
        <pt x="456" y="231" on="0"/>
        <pt x="451" y="188" on="0"/>
        <pt x="451" y="170" on="1"/>
        <pt x="451" y="128" on="0"/>
        <pt x="471" y="69" on="0"/>
        <pt x="491" y="38" on="1"/>
        <pt x="365" y="-12" on="1"/>
        <pt x="350" y="5" on="0"/>
        <pt x="329" y="54" on="0"/>
        <pt x="329" y="84" on="1"/>
        <pt x="329" y="96" on="0"/>
        <pt x="330" y="126" on="0"/>
        <pt x="332" y="146" on="1"/>
        <pt x="319" y="118" on="1"/>
        <pt x="287" y="49" on="0"/>
        <pt x="206" y="-9" on="0"/>
      </contour>
    </TTGlyph>
    <TTGlyph name="aacute" xMin="22" yMin="-12" xMax="513" yMax="789">
      <contour>
        <pt x="207" y="109" on="1"/>
        <pt x="222" y="109" on="0"/>
        <pt x="256" y="153" on="0"/>
        <pt x="287" y="221" on="0"/>
        <pt x="313" y="302" on="0"/>
        <pt x="322" y="338" on="1"/>
        <pt x="332" y="383" on="1"/>
        <pt x="321" y="387" on="0"/>
        <pt x="302" y="387" on="1"/>
        <pt x="267" y="387" on="0"/>
        <pt x="222" y="336" on="0"/>
        <pt x="195" y="264" on="0"/>
        <pt x="184" y="186" on="0"/>
        <pt x="184" y="160" on="1"/>
        <pt x="184" y="139" on="0"/>
        <pt x="193" y="109" on="0"/>
      </contour>
      <contour>
        <pt x="159" y="-9" on="1"/>
        <pt x="121" y="-9" on="0"/>
        <pt x="69" y="22" on="0"/>
        <pt x="37" y="71" on="0"/>
        <pt x="22" y="132" on="0"/>
        <pt x="22" y="163" on="1"/>
        <pt x="22" y="235" on="0"/>
        <pt x="59" y="358" on="0"/>
        <pt x="132" y="450" on="0"/>
        <pt x="239" y="502" on="0"/>
        <pt x="309" y="502" on="1"/>
        <pt x="342" y="502" on="0"/>
        <pt x="395" y="491" on="0"/>
        <pt x="423" y="478" on="1"/>
        <pt x="503" y="473" on="1"/>
        <pt x="461" y="255" on="1"/>
        <pt x="456" y="231" on="0"/>
        <pt x="451" y="188" on="0"/>
        <pt x="451" y="170" on="1"/>
        <pt x="451" y="128" on="0"/>
        <pt x="471" y="69" on="0"/>
        <pt x="491" y="38" on="1"/>
        <pt x="365" y="-12" on="1"/>
        <pt x="350" y="5" on="0"/>
        <pt x="329" y="54" on="0"/>
        <pt x="329" y="84" on="1"/>
        <pt x="329" y="96" on="0"/>
        <pt x="330" y="126" on="0"/>
        <pt x="332" y="146" on="1"/>
        <pt x="319" y="118" on="1"/>
        <pt x="287" y="49" on="0"/>
        <pt x="206" y="-9" on="0"/>
      </contour>
      <contour>
        <pt x="241" y="600" on="1"/>
        <pt x="265" y="637" on="0"/>
        <pt x="295" y="672" on="1"/>
        <pt x="320" y="702" on="0"/>
        <pt x="388" y="766" on="0"/>
        <pt x="428" y="789" on="1"/>
        <pt x="444" y="778" on="0"/>
        <pt x="459" y="762" on="1"/>
        <pt x="472" y="748" on="0"/>
        <pt x="501" y="706" on="0"/>
        <pt x="513" y="677" on="1"/>
        <pt x="472" y="657" on="0"/>
        <pt x="399" y="605" on="0"/>
        <pt x="370" y="582" on="1"/>
        <pt x="337" y="555" on="0"/>
        <pt x="308" y="526" on="1"/>
      </contour>
    </TTGlyph>
    <TTGlyph name="acircumflex" xMin="22" yMin="-12" xMax="503" yMax="797">
      <contour>
        <pt x="207" y="109" on="1"/>
        <pt x="222" y="109" on="0"/>
        <pt x="256" y="153" on="0"/>
        <pt x="287" y="221" on="0"/>
        <pt x="313" y="302" on="0"/>
        <pt x="322" y="338" on="1"/>
        <pt x="332" y="383" on="1"/>
        <pt x="321" y="387" on="0"/>
        <pt x="302" y="387" on="1"/>
        <pt x="267" y="387" on="0"/>
        <pt x="222" y="336" on="0"/>
        <pt x="195" y="264" on="0"/>
        <pt x="184" y="186" on="0"/>
        <pt x="184" y="160" on="1"/>
        <pt x="184" y="139" on="0"/>
        <pt x="193" y="109" on="0"/>
      </contour>
      <contour>
        <pt x="159" y="-9" on="1"/>
        <pt x="121" y="-9" on="0"/>
        <pt x="69" y="22" on="0"/>
        <pt x="37" y="71" on="0"/>
        <pt x="22" y="132" on="0"/>
        <pt x="22" y="163" on="1"/>
        <pt x="22" y="235" on="0"/>
        <pt x="59" y="358" on="0"/>
        <pt x="132" y="450" on="0"/>
        <pt x="239" y="502" on="0"/>
        <pt x="309" y="502" on="1"/>
        <pt x="342" y="502" on="0"/>
        <pt x="395" y="491" on="0"/>
        <pt x="423" y="478" on="1"/>
        <pt x="503" y="473" on="1"/>
        <pt x="461" y="255" on="1"/>
        <pt x="456" y="231" on="0"/>
        <pt x="451" y="188" on="0"/>
        <pt x="451" y="170" on="1"/>
        <pt x="451" y="128" on="0"/>
        <pt x="471" y="69" on="0"/>
        <pt x="491" y="38" on="1"/>
        <pt x="365" y="-12" on="1"/>
        <pt x="350" y="5" on="0"/>
        <pt x="329" y="54" on="0"/>
        <pt x="329" y="84" on="1"/>
        <pt x="329" y="96" on="0"/>
        <pt x="330" y="126" on="0"/>
        <pt x="332" y="146" on="1"/>
        <pt x="319" y="118" on="1"/>
        <pt x="287" y="49" on="0"/>
        <pt x="206" y="-9" on="0"/>
      </contour>
      <contour>
        <pt x="123" y="600" on="1"/>
        <pt x="161" y="639" on="0"/>
        <pt x="200" y="676" on="1"/>
        <pt x="233" y="708" on="0"/>
        <pt x="310" y="774" on="0"/>
        <pt x="345" y="797" on="1"/>
        <pt x="370" y="759" on="0"/>
        <pt x="424" y="689" on="0"/>
        <pt x="446" y="661" on="1"/>
        <pt x="472" y="628" on="0"/>
        <pt x="496" y="600" on="1"/>
        <pt x="423" y="534" on="1"/>
        <pt x="406" y="544" on="0"/>
        <pt x="388" y="558" on="1"/>
        <pt x="372" y="570" on="0"/>
        <pt x="332" y="604" on="0"/>
        <pt x="312" y="626" on="1"/>
        <pt x="289" y="608" on="0"/>
        <pt x="247" y="575" on="0"/>
        <pt x="231" y="562" on="1"/>
        <pt x="213" y="547" on="0"/>
        <pt x="197" y="534" on="1"/>
      </contour>
    </TTGlyph>
    <TTGlyph name="acute" xMin="114" yMin="526" xMax="386" yMax="789">
      <contour>
        <pt x="114" y="600" on="1"/>
        <pt x="138" y="637" on="0"/>
        <pt x="168" y="672" on="1"/>
        <pt x="193" y="702" on="0"/>
        <pt x="261" y="766" on="0"/>
        <pt x="301" y="789" on="1"/>
        <pt x="317" y="778" on="0"/>
        <pt x="332" y="762" on="1"/>
        <pt x="345" y="748" on="0"/>
        <pt x="374" y="706" on="0"/>
        <pt x="386" y="677" on="1"/>
        <pt x="345" y="657" on="0"/>
        <pt x="271" y="605" on="0"/>
        <pt x="242" y="582" on="1"/>
        <pt x="209" y="555" on="0"/>
        <pt x="180" y="526" on="1"/>
      </contour>
    </TTGlyph>
    <TTGlyph name="acuteUC" xMin="181" yMin="526" xMax="462" yMax="763">
      <contour>
        <pt x="181" y="610" on="1"/>
        <pt x="211" y="642" on="0"/>
        <pt x="246" y="671" on="1"/>
        <pt x="276" y="696" on="0"/>
        <pt x="355" y="748" on="0"/>
        <pt x="399" y="763" on="1"/>
        <pt x="412" y="749" on="0"/>
        <pt x="424" y="731" on="1"/>
        <pt x="435" y="715" on="0"/>
        <pt x="455" y="668" on="0"/>
        <pt x="462" y="638" on="1"/>
        <pt x="418" y="626" on="0"/>
        <pt x="336" y="588" on="0"/>
        <pt x="304" y="570" on="1"/>
        <pt x="266" y="549" on="0"/>
        <pt x="233" y="526" on="1"/>
      </contour>
    </TTGlyph>
    <TTGlyph name="acutedotlessi" xMin="195" yMin="526" xMax="433" yMax="789">
      <contour>
        <pt x="195" y="582" on="1"/>
        <pt x="210" y="616" on="0"/>
        <pt x="230" y="651" on="1"/>
        <pt x="247" y="681" on="0"/>
        <pt x="295" y="754" on="0"/>
        <pt x="327" y="789" on="1"/>
        <pt x="344" y="779" on="0"/>
        <pt x="362" y="766" on="1"/>
        <pt x="378" y="755" on="0"/>
        <pt x="415" y="720" on="0"/>
        <pt x="433" y="698" on="1"/>
        <pt x="402" y="670" on="0"/>
        <pt x="346" y="610" on="0"/>
        <pt x="324" y="584" on="1"/>
        <pt x="298" y="554" on="0"/>
        <pt x="276" y="526" on="1"/>
      </contour>
    </TTGlyph>
    <TTGlyph name="adieresis" xMin="22" yMin="-12" xMax="506" yMax="720">
      <contour>
        <pt x="207" y="109" on="1"/>
        <pt x="222" y="109" on="0"/>
        <pt x="256" y="153" on="0"/>
        <pt x="287" y="221" on="0"/>
        <pt x="313" y="302" on="0"/>
        <pt x="322" y="338" on="1"/>
        <pt x="332" y="383" on="1"/>
        <pt x="321" y="387" on="0"/>
        <pt x="302" y="387" on="1"/>
        <pt x="267" y="387" on="0"/>
        <pt x="222" y="336" on="0"/>
        <pt x="195" y="264" on="0"/>
        <pt x="184" y="186" on="0"/>
        <pt x="184" y="160" on="1"/>
        <pt x="184" y="139" on="0"/>
        <pt x="193" y="109" on="0"/>
      </contour>
      <contour>
        <pt x="159" y="-9" on="1"/>
        <pt x="121" y="-9" on="0"/>
        <pt x="69" y="22" on="0"/>
        <pt x="37" y="71" on="0"/>
        <pt x="22" y="132" on="0"/>
        <pt x="22" y="163" on="1"/>
        <pt x="22" y="235" on="0"/>
        <pt x="59" y="358" on="0"/>
        <pt x="132" y="450" on="0"/>
        <pt x="239" y="502" on="0"/>
        <pt x="309" y="502" on="1"/>
        <pt x="342" y="502" on="0"/>
        <pt x="395" y="491" on="0"/>
        <pt x="423" y="478" on="1"/>
        <pt x="503" y="473" on="1"/>
        <pt x="461" y="255" on="1"/>
        <pt x="456" y="231" on="0"/>
        <pt x="451" y="188" on="0"/>
        <pt x="451" y="170" on="1"/>
        <pt x="451" y="128" on="0"/>
        <pt x="471" y="69" on="0"/>
        <pt x="491" y="38" on="1"/>
        <pt x="365" y="-12" on="1"/>
        <pt x="350" y="5" on="0"/>
        <pt x="329" y="54" on="0"/>
        <pt x="329" y="84" on="1"/>
        <pt x="329" y="96" on="0"/>
        <pt x="330" y="126" on="0"/>
        <pt x="332" y="146" on="1"/>
        <pt x="319" y="118" on="1"/>
        <pt x="287" y="49" on="0"/>
        <pt x="206" y="-9" on="0"/>
      </contour>
      <contour>
        <pt x="214" y="720" on="1"/>
        <pt x="252" y="720" on="0"/>
        <pt x="289" y="682" on="0"/>
        <pt x="289" y="648" on="1"/>
        <pt x="289" y="616" on="0"/>
        <pt x="242" y="568" on="0"/>
        <pt x="203" y="568" on="1"/>
        <pt x="165" y="568" on="0"/>
        <pt x="130" y="607" on="0"/>
        <pt x="130" y="638" on="1"/>
        <pt x="130" y="672" on="0"/>
        <pt x="174" y="720" on="0"/>
      </contour>
      <contour>
        <pt x="431" y="720" on="1"/>
        <pt x="469" y="720" on="0"/>
        <pt x="506" y="682" on="0"/>
        <pt x="506" y="648" on="1"/>
        <pt x="506" y="616" on="0"/>
        <pt x="460" y="568" on="0"/>
        <pt x="421" y="568" on="1"/>
        <pt x="383" y="568" on="0"/>
        <pt x="347" y="607" on="0"/>
        <pt x="347" y="638" on="1"/>
        <pt x="347" y="672" on="0"/>
        <pt x="391" y="720" on="0"/>
      </contour>
    </TTGlyph>
    <TTGlyph name="ae" xMin="22" yMin="-13" xMax="732" yMax="505">
      <contour>
        <pt x="159" y="-9" on="1"/>
        <pt x="121" y="-9" on="0"/>
        <pt x="69" y="22" on="0"/>
        <pt x="37" y="71" on="0"/>
        <pt x="22" y="132" on="0"/>
        <pt x="22" y="163" on="1"/>
        <pt x="22" y="235" on="0"/>
        <pt x="59" y="358" on="0"/>
        <pt x="132" y="450" on="0"/>
        <pt x="239" y="502" on="0"/>
        <pt x="309" y="502" on="1"/>
        <pt x="344" y="502" on="0"/>
        <pt x="411" y="485" on="0"/>
        <pt x="441" y="470" on="1"/>
        <pt x="469" y="487" on="0"/>
        <pt x="536" y="505" on="0"/>
        <pt x="574" y="505" on="1"/>
        <pt x="659" y="505" on="0"/>
        <pt x="732" y="437" on="0"/>
        <pt x="732" y="382" on="1"/>
        <pt x="732" y="340" on="0"/>
        <pt x="691" y="269" on="0"/>
        <pt x="617" y="215" on="0"/>
        <pt x="514" y="180" on="0"/>
        <pt x="453" y="174" on="1"/>
        <pt x="453" y="172" on="0"/>
        <pt x="451" y="158" on="0"/>
        <pt x="451" y="152" on="1"/>
        <pt x="451" y="127" on="0"/>
        <pt x="479" y="105" on="0"/>
        <pt x="500" y="105" on="1"/>
        <pt x="514" y="105" on="0"/>
        <pt x="564" y="117" on="0"/>
        <pt x="589" y="125" on="1"/>
        <pt x="618" y="134" on="0"/>
        <pt x="650" y="146" on="1"/>
        <pt x="683" y="44" on="1"/>
        <pt x="649" y="27" on="0"/>
        <pt x="613" y="15" on="1"/>
        <pt x="582" y="4" on="0"/>
        <pt x="508" y="-13" on="0"/>
        <pt x="472" y="-13" on="1"/>
        <pt x="399" y="-13" on="0"/>
        <pt x="320" y="46" on="0"/>
        <pt x="304" y="91" on="1"/>
        <pt x="275" y="37" on="0"/>
        <pt x="201" y="-9" on="0"/>
      </contour>
      <contour>
        <pt x="207" y="109" on="1"/>
        <pt x="222" y="109" on="0"/>
        <pt x="256" y="153" on="0"/>
        <pt x="287" y="221" on="0"/>
        <pt x="313" y="302" on="0"/>
        <pt x="322" y="338" on="1"/>
        <pt x="332" y="383" on="1"/>
        <pt x="321" y="387" on="0"/>
        <pt x="302" y="387" on="1"/>
        <pt x="267" y="387" on="0"/>
        <pt x="222" y="336" on="0"/>
        <pt x="195" y="264" on="0"/>
        <pt x="184" y="186" on="0"/>
        <pt x="184" y="160" on="1"/>
        <pt x="184" y="139" on="0"/>
        <pt x="193" y="109" on="0"/>
      </contour>
      <contour>
        <pt x="550" y="389" on="1"/>
        <pt x="524" y="389" on="0"/>
        <pt x="480" y="330" on="0"/>
        <pt x="468" y="283" on="1"/>
        <pt x="522" y="290" on="0"/>
        <pt x="579" y="339" on="0"/>
        <pt x="579" y="362" on="1"/>
        <pt x="579" y="389" on="0"/>
      </contour>
    </TTGlyph>
    <TTGlyph name="agrave" xMin="22" yMin="-12" xMax="503" yMax="789">
      <contour>
        <pt x="207" y="109" on="1"/>
        <pt x="222" y="109" on="0"/>
        <pt x="256" y="153" on="0"/>
        <pt x="287" y="221" on="0"/>
        <pt x="313" y="302" on="0"/>
        <pt x="322" y="338" on="1"/>
        <pt x="332" y="383" on="1"/>
        <pt x="321" y="387" on="0"/>
        <pt x="302" y="387" on="1"/>
        <pt x="267" y="387" on="0"/>
        <pt x="222" y="336" on="0"/>
        <pt x="195" y="264" on="0"/>
        <pt x="184" y="186" on="0"/>
        <pt x="184" y="160" on="1"/>
        <pt x="184" y="139" on="0"/>
        <pt x="193" y="109" on="0"/>
      </contour>
      <contour>
        <pt x="159" y="-9" on="1"/>
        <pt x="121" y="-9" on="0"/>
        <pt x="69" y="22" on="0"/>
        <pt x="37" y="71" on="0"/>
        <pt x="22" y="132" on="0"/>
        <pt x="22" y="163" on="1"/>
        <pt x="22" y="235" on="0"/>
        <pt x="59" y="358" on="0"/>
        <pt x="132" y="450" on="0"/>
        <pt x="239" y="502" on="0"/>
        <pt x="309" y="502" on="1"/>
        <pt x="342" y="502" on="0"/>
        <pt x="395" y="491" on="0"/>
        <pt x="423" y="478" on="1"/>
        <pt x="503" y="473" on="1"/>
        <pt x="461" y="255" on="1"/>
        <pt x="456" y="231" on="0"/>
        <pt x="451" y="188" on="0"/>
        <pt x="451" y="170" on="1"/>
        <pt x="451" y="128" on="0"/>
        <pt x="471" y="69" on="0"/>
        <pt x="491" y="38" on="1"/>
        <pt x="365" y="-12" on="1"/>
        <pt x="350" y="5" on="0"/>
        <pt x="329" y="54" on="0"/>
        <pt x="329" y="84" on="1"/>
        <pt x="329" y="96" on="0"/>
        <pt x="330" y="126" on="0"/>
        <pt x="332" y="146" on="1"/>
        <pt x="319" y="118" on="1"/>
        <pt x="287" y="49" on="0"/>
        <pt x="206" y="-9" on="0"/>
      </contour>
      <contour>
        <pt x="309" y="526" on="1"/>
        <pt x="274" y="547" on="0"/>
        <pt x="241" y="574" on="1"/>
        <pt x="212" y="597" on="0"/>
        <pt x="152" y="662" on="0"/>
        <pt x="131" y="704" on="1"/>
        <pt x="141" y="719" on="0"/>
        <pt x="157" y="734" on="1"/>
        <pt x="171" y="747" on="0"/>
        <pt x="214" y="776" on="0"/>
        <pt x="244" y="789" on="1"/>
        <pt x="263" y="746" on="0"/>
        <pt x="311" y="674" on="0"/>
        <pt x="332" y="648" on="1"/>
        <pt x="357" y="617" on="0"/>
        <pt x="382" y="592" on="1"/>
      </contour>
    </TTGlyph>
    <TTGlyph name="ampersand" xMin="-3" yMin="-13" xMax="530" yMax="595">
      <contour>
        <pt x="391" y="443" on="1"/>
        <pt x="383" y="457" on="0"/>
        <pt x="359" y="478" on="0"/>
        <pt x="339" y="478" on="1"/>
        <pt x="313" y="478" on="0"/>
        <pt x="277" y="449" on="0"/>
        <pt x="277" y="421" on="1"/>
        <pt x="277" y="383" on="0"/>
        <pt x="326" y="299" on="0"/>
        <pt x="368" y="251" on="1"/>
        <pt x="385" y="273" on="0"/>
        <pt x="416" y="318" on="0"/>
        <pt x="430" y="338" on="1"/>
        <pt x="530" y="268" on="1"/>
        <pt x="515" y="239" on="0"/>
        <pt x="480" y="181" on="0"/>
        <pt x="458" y="153" on="1"/>
        <pt x="472" y="138" on="0"/>
        <pt x="509" y="99" on="0"/>
        <pt x="523" y="85" on="1"/>
        <pt x="427" y="-13" on="1"/>
        <pt x="411" y="2" on="0"/>
        <pt x="374" y="40" on="0"/>
        <pt x="360" y="54" on="1"/>
        <pt x="319" y="24" on="0"/>
        <pt x="222" y="-11" on="0"/>
        <pt x="164" y="-11" on="1"/>
        <pt x="129" y="-11" on="0"/>
        <pt x="69" y="9" on="0"/>
        <pt x="23" y="48" on="0"/>
        <pt x="-3" y="106" on="0"/>
        <pt x="-3" y="144" on="1"/>
        <pt x="-3" y="186" on="0"/>
        <pt x="16" y="252" on="0"/>
        <pt x="52" y="304" on="0"/>
        <pt x="102" y="345" on="0"/>
        <pt x="134" y="362" on="1"/>
        <pt x="128" y="387" on="0"/>
        <pt x="128" y="412" on="1"/>
        <pt x="128" y="449" on="0"/>
        <pt x="156" y="515" on="0"/>
        <pt x="208" y="565" on="0"/>
        <pt x="285" y="595" on="0"/>
        <pt x="333" y="595" on="1"/>
        <pt x="389" y="595" on="0"/>
        <pt x="451" y="545" on="0"/>
        <pt x="471" y="502" on="1"/>
      </contour>
      <contour>
        <pt x="270" y="148" on="1"/>
        <pt x="246" y="174" on="0"/>
        <pt x="203" y="227" on="0"/>
        <pt x="186" y="253" on="1"/>
        <pt x="171" y="234" on="0"/>
        <pt x="156" y="195" on="0"/>
        <pt x="156" y="171" on="1"/>
        <pt x="156" y="145" on="0"/>
        <pt x="186" y="121" on="0"/>
        <pt x="206" y="121" on="1"/>
        <pt x="235" y="121" on="0"/>
      </contour>
    </TTGlyph>
    <TTGlyph name="apostrophe" xMin="59" yMin="443" xMax="299" yMax="756">
      <contour>
        <pt x="144" y="665" on="1"/>
        <pt x="144" y="685" on="0"/>
        <pt x="141" y="721" on="0"/>
        <pt x="139" y="735" on="1"/>
        <pt x="149" y="741" on="0"/>
        <pt x="161" y="745" on="1"/>
        <pt x="172" y="749" on="0"/>
        <pt x="203" y="756" on="0"/>
        <pt x="224" y="756" on="1"/>
        <pt x="265" y="756" on="0"/>
        <pt x="299" y="719" on="0"/>
        <pt x="299" y="685" on="1"/>
        <pt x="299" y="647" on="0"/>
        <pt x="268" y="577" on="0"/>
        <pt x="216" y="514" on="0"/>
        <pt x="148" y="462" on="0"/>
        <pt x="111" y="443" on="1"/>
        <pt x="59" y="528" on="1"/>
        <pt x="88" y="546" on="0"/>
        <pt x="122" y="581" on="0"/>
        <pt x="139" y="615" on="0"/>
        <pt x="144" y="648" on="0"/>
      </contour>
    </TTGlyph>
    <TTGlyph name="aring" xMin="31" yMin="-12" xMax="512" yMax="773">
      <contour>
        <pt x="216" y="109" on="1"/>
        <pt x="231" y="109" on="0"/>
        <pt x="264" y="153" on="0"/>
        <pt x="295" y="221" on="0"/>
        <pt x="322" y="302" on="0"/>
        <pt x="330" y="338" on="1"/>
        <pt x="340" y="383" on="1"/>
        <pt x="329" y="387" on="0"/>
        <pt x="311" y="387" on="1"/>
        <pt x="276" y="387" on="0"/>
        <pt x="230" y="336" on="0"/>
        <pt x="203" y="264" on="0"/>
        <pt x="192" y="186" on="0"/>
        <pt x="192" y="160" on="1"/>
        <pt x="192" y="139" on="0"/>
        <pt x="201" y="109" on="0"/>
      </contour>
      <contour>
        <pt x="167" y="-9" on="1"/>
        <pt x="129" y="-9" on="0"/>
        <pt x="78" y="22" on="0"/>
        <pt x="45" y="71" on="0"/>
        <pt x="31" y="132" on="0"/>
        <pt x="31" y="163" on="1"/>
        <pt x="31" y="235" on="0"/>
        <pt x="68" y="358" on="0"/>
        <pt x="141" y="450" on="0"/>
        <pt x="248" y="502" on="0"/>
        <pt x="317" y="502" on="1"/>
        <pt x="350" y="502" on="0"/>
        <pt x="403" y="491" on="0"/>
        <pt x="431" y="478" on="1"/>
        <pt x="512" y="473" on="1"/>
        <pt x="469" y="255" on="1"/>
        <pt x="460" y="207" on="0"/>
        <pt x="460" y="170" on="1"/>
        <pt x="460" y="128" on="0"/>
        <pt x="479" y="69" on="0"/>
        <pt x="500" y="38" on="1"/>
        <pt x="373" y="-12" on="1"/>
        <pt x="358" y="5" on="0"/>
        <pt x="337" y="54" on="0"/>
        <pt x="337" y="84" on="1"/>
        <pt x="337" y="96" on="0"/>
        <pt x="338" y="126" on="0"/>
        <pt x="340" y="146" on="1"/>
        <pt x="327" y="118" on="1"/>
        <pt x="295" y="49" on="0"/>
        <pt x="214" y="-9" on="0"/>
      </contour>
      <contour>
        <pt x="352" y="701" on="1"/>
        <pt x="332" y="701" on="0"/>
        <pt x="309" y="668" on="0"/>
        <pt x="309" y="648" on="1"/>
        <pt x="309" y="635" on="0"/>
        <pt x="323" y="618" on="0"/>
        <pt x="337" y="618" on="1"/>
        <pt x="356" y="618" on="0"/>
        <pt x="379" y="650" on="0"/>
        <pt x="379" y="670" on="1"/>
        <pt x="379" y="684" on="0"/>
        <pt x="365" y="701" on="0"/>
      </contour>
      <contour>
        <pt x="325" y="547" on="1"/>
        <pt x="279" y="547" on="0"/>
        <pt x="230" y="600" on="0"/>
        <pt x="230" y="641" on="1"/>
        <pt x="230" y="668" on="0"/>
        <pt x="249" y="716" on="0"/>
        <pt x="284" y="752" on="0"/>
        <pt x="333" y="773" on="0"/>
        <pt x="363" y="773" on="1"/>
        <pt x="409" y="773" on="0"/>
        <pt x="458" y="719" on="0"/>
        <pt x="458" y="678" on="1"/>
        <pt x="458" y="651" on="0"/>
        <pt x="439" y="604" on="0"/>
        <pt x="404" y="568" on="0"/>
        <pt x="355" y="547" on="0"/>
      </contour>
    </TTGlyph>
    <TTGlyph name="asciicircum" xMin="37" yMin="269" xMax="473" yMax="670">
      <contour>
        <pt x="332" y="290" on="1"/>
        <pt x="295" y="441" on="1"/>
        <pt x="293" y="450" on="0"/>
        <pt x="288" y="482" on="0"/>
        <pt x="286" y="494" on="1"/>
        <pt x="282" y="483" on="0"/>
        <pt x="268" y="453" on="0"/>
        <pt x="259" y="439" on="1"/>
        <pt x="153" y="269" on="1"/>
        <pt x="37" y="328" on="1"/>
        <pt x="273" y="670" on="1"/>
        <pt x="367" y="670" on="1"/>
        <pt x="473" y="307" on="1"/>
      </contour>
    </TTGlyph>
    <TTGlyph name="asciitilde" xMin="37" yMin="227" xMax="501" yMax="404">
      <contour>
        <pt x="194" y="404" on="1"/>
        <pt x="226" y="404" on="0"/>
        <pt x="268" y="385" on="0"/>
        <pt x="303" y="363" on="0"/>
        <pt x="336" y="344" on="0"/>
        <pt x="358" y="344" on="1"/>
        <pt x="369" y="344" on="0"/>
        <pt x="388" y="348" on="0"/>
        <pt x="408" y="358" on="0"/>
        <pt x="430" y="376" on="0"/>
        <pt x="444" y="390" on="1"/>
        <pt x="501" y="322" on="1"/>
        <pt x="487" y="305" on="0"/>
        <pt x="456" y="271" on="0"/>
        <pt x="417" y="244" on="0"/>
        <pt x="372" y="227" on="0"/>
        <pt x="345" y="227" on="1"/>
        <pt x="313" y="227" on="0"/>
        <pt x="270" y="246" on="0"/>
        <pt x="236" y="268" on="0"/>
        <pt x="203" y="287" on="0"/>
        <pt x="181" y="287" on="1"/>
        <pt x="158" y="287" on="0"/>
        <pt x="123" y="269" on="0"/>
        <pt x="95" y="241" on="1"/>
        <pt x="37" y="308" on="1"/>
        <pt x="51" y="325" on="0"/>
        <pt x="83" y="360" on="0"/>
        <pt x="121" y="387" on="0"/>
        <pt x="167" y="404" on="0"/>
      </contour>
    </TTGlyph>
    <TTGlyph name="asterisk" xMin="72" yMin="308" xMax="474" yMax="680">
      <contour>
        <pt x="122" y="624" on="1"/>
        <pt x="214" y="571" on="1"/>
        <pt x="229" y="680" on="1"/>
        <pt x="362" y="667" on="1"/>
        <pt x="332" y="575" on="1"/>
        <pt x="438" y="624" on="1"/>
        <pt x="474" y="497" on="1"/>
        <pt x="356" y="464" on="1"/>
        <pt x="427" y="380" on="1"/>
        <pt x="313" y="308" on="1"/>
        <pt x="260" y="399" on="1"/>
        <pt x="178" y="309" on="1"/>
        <pt x="79" y="396" on="1"/>
        <pt x="169" y="465" on="1"/>
        <pt x="72" y="502" on="1"/>
      </contour>
    </TTGlyph>
    <TTGlyph name="at" xMin="12" yMin="-186" xMax="857" yMax="639">
      <contour>
        <pt x="636" y="262" on="1"/>
        <pt x="630" y="232" on="0"/>
        <pt x="619" y="173" on="0"/>
        <pt x="619" y="146" on="1"/>
        <pt x="619" y="130" on="0"/>
        <pt x="624" y="104" on="0"/>
        <pt x="638" y="104" on="1"/>
        <pt x="655" y="104" on="0"/>
        <pt x="687" y="153" on="0"/>
        <pt x="711" y="225" on="0"/>
        <pt x="726" y="308" on="0"/>
        <pt x="726" y="341" on="1"/>
        <pt x="726" y="435" on="0"/>
        <pt x="621" y="523" on="0"/>
        <pt x="514" y="523" on="1"/>
        <pt x="443" y="523" on="0"/>
        <pt x="309" y="467" on="0"/>
        <pt x="205" y="363" on="0"/>
        <pt x="143" y="214" on="0"/>
        <pt x="143" y="122" on="1"/>
        <pt x="143" y="84" on="0"/>
        <pt x="163" y="15" on="0"/>
        <pt x="209" y="-37" on="0"/>
        <pt x="283" y="-69" on="0"/>
        <pt x="337" y="-69" on="1"/>
        <pt x="366" y="-69" on="0"/>
        <pt x="421" y="-59" on="0"/>
        <pt x="444" y="-53" on="1"/>
        <pt x="470" y="-46" on="0"/>
        <pt x="494" y="-37" on="1"/>
        <pt x="525" y="-139" on="1"/>
        <pt x="496" y="-152" on="0"/>
        <pt x="462" y="-163" on="1"/>
        <pt x="433" y="-172" on="0"/>
        <pt x="356" y="-186" on="0"/>
        <pt x="314" y="-186" on="1"/>
        <pt x="252" y="-186" on="0"/>
        <pt x="143" y="-155" on="0"/>
        <pt x="60" y="-86" on="0"/>
        <pt x="12" y="25" on="0"/>
        <pt x="12" y="105" on="1"/>
        <pt x="12" y="233" on="0"/>
        <pt x="98" y="432" on="0"/>
        <pt x="244" y="568" on="0"/>
        <pt x="434" y="639" on="0"/>
        <pt x="539" y="639" on="1"/>
        <pt x="609" y="639" on="0"/>
        <pt x="726" y="606" on="0"/>
        <pt x="810" y="538" on="0"/>
        <pt x="857" y="434" on="0"/>
        <pt x="857" y="363" on="1"/>
        <pt x="857" y="282" on="0"/>
        <pt x="821" y="146" on="0"/>
        <pt x="753" y="47" on="0"/>
        <pt x="654" y="-8" on="0"/>
        <pt x="591" y="-8" on="1"/>
        <pt x="549" y="-8" on="0"/>
        <pt x="503" y="48" on="0"/>
        <pt x="503" y="91" on="1"/>
        <pt x="503" y="104" on="0"/>
        <pt x="506" y="130" on="0"/>
        <pt x="508" y="144" on="1"/>
        <pt x="495" y="115" on="1"/>
        <pt x="466" y="48" on="0"/>
        <pt x="383" y="-8" on="0"/>
        <pt x="338" y="-8" on="1"/>
        <pt x="301" y="-8" on="0"/>
        <pt x="250" y="19" on="0"/>
        <pt x="219" y="63" on="0"/>
        <pt x="205" y="118" on="0"/>
        <pt x="205" y="145" on="1"/>
        <pt x="205" y="212" on="0"/>
        <pt x="241" y="328" on="0"/>
        <pt x="312" y="413" on="0"/>
        <pt x="415" y="461" on="0"/>
        <pt x="483" y="461" on="1"/>
        <pt x="514" y="461" on="0"/>
        <pt x="563" y="450" on="0"/>
        <pt x="590" y="438" on="1"/>
        <pt x="670" y="434" on="1"/>
      </contour>
      <contour>
        <pt x="385" y="106" on="1"/>
        <pt x="400" y="106" on="0"/>
        <pt x="431" y="146" on="0"/>
        <pt x="461" y="207" on="0"/>
        <pt x="487" y="279" on="0"/>
        <pt x="495" y="312" on="1"/>
        <pt x="503" y="347" on="1"/>
        <pt x="498" y="349" on="0"/>
        <pt x="486" y="350" on="0"/>
        <pt x="476" y="350" on="1"/>
        <pt x="443" y="350" on="0"/>
        <pt x="399" y="303" on="0"/>
        <pt x="373" y="238" on="0"/>
        <pt x="362" y="167" on="0"/>
        <pt x="362" y="143" on="1"/>
        <pt x="362" y="127" on="0"/>
        <pt x="371" y="106" on="0"/>
      </contour>
    </TTGlyph>
    <TTGlyph name="atilde" xMin="22" yMin="-12" xMax="503" yMax="725">
      <contour>
        <pt x="207" y="109" on="1"/>
        <pt x="222" y="109" on="0"/>
        <pt x="256" y="153" on="0"/>
        <pt x="287" y="221" on="0"/>
        <pt x="313" y="302" on="0"/>
        <pt x="322" y="338" on="1"/>
        <pt x="332" y="383" on="1"/>
        <pt x="321" y="387" on="0"/>
        <pt x="302" y="387" on="1"/>
        <pt x="267" y="387" on="0"/>
        <pt x="222" y="336" on="0"/>
        <pt x="195" y="264" on="0"/>
        <pt x="184" y="186" on="0"/>
        <pt x="184" y="160" on="1"/>
        <pt x="184" y="139" on="0"/>
        <pt x="193" y="109" on="0"/>
      </contour>
      <contour>
        <pt x="159" y="-9" on="1"/>
        <pt x="121" y="-9" on="0"/>
        <pt x="69" y="22" on="0"/>
        <pt x="37" y="71" on="0"/>
        <pt x="22" y="132" on="0"/>
        <pt x="22" y="163" on="1"/>
        <pt x="22" y="235" on="0"/>
        <pt x="59" y="358" on="0"/>
        <pt x="132" y="450" on="0"/>
        <pt x="239" y="502" on="0"/>
        <pt x="309" y="502" on="1"/>
        <pt x="342" y="502" on="0"/>
        <pt x="395" y="491" on="0"/>
        <pt x="423" y="478" on="1"/>
        <pt x="503" y="473" on="1"/>
        <pt x="461" y="255" on="1"/>
        <pt x="456" y="231" on="0"/>
        <pt x="451" y="188" on="0"/>
        <pt x="451" y="170" on="1"/>
        <pt x="451" y="128" on="0"/>
        <pt x="471" y="69" on="0"/>
        <pt x="491" y="38" on="1"/>
        <pt x="365" y="-12" on="1"/>
        <pt x="350" y="5" on="0"/>
        <pt x="329" y="54" on="0"/>
        <pt x="329" y="84" on="1"/>
        <pt x="329" y="96" on="0"/>
        <pt x="330" y="126" on="0"/>
        <pt x="332" y="146" on="1"/>
        <pt x="319" y="118" on="1"/>
        <pt x="287" y="49" on="0"/>
        <pt x="206" y="-9" on="0"/>
      </contour>
      <contour>
        <pt x="474" y="616" on="1"/>
        <pt x="461" y="608" on="0"/>
        <pt x="446" y="603" on="1"/>
        <pt x="432" y="598" on="0"/>
        <pt x="397" y="591" on="0"/>
        <pt x="377" y="591" on="1"/>
        <pt x="359" y="591" on="0"/>
        <pt x="327" y="598" on="0"/>
        <pt x="294" y="606" on="0"/>
        <pt x="259" y="613" on="0"/>
        <pt x="239" y="613" on="1"/>
        <pt x="222" y="613" on="0"/>
        <pt x="189" y="608" on="0"/>
        <pt x="175" y="605" on="1"/>
        <pt x="159" y="601" on="0"/>
        <pt x="145" y="597" on="1"/>
        <pt x="166" y="700" on="1"/>
        <pt x="179" y="707" on="0"/>
        <pt x="194" y="712" on="1"/>
        <pt x="207" y="717" on="0"/>
        <pt x="242" y="725" on="0"/>
        <pt x="262" y="725" on="1"/>
        <pt x="280" y="725" on="0"/>
        <pt x="312" y="718" on="0"/>
        <pt x="345" y="710" on="0"/>
        <pt x="380" y="703" on="0"/>
        <pt x="401" y="703" on="1"/>
        <pt x="418" y="703" on="0"/>
        <pt x="450" y="708" on="0"/>
        <pt x="464" y="711" on="1"/>
        <pt x="480" y="715" on="0"/>
        <pt x="495" y="719" on="1"/>
      </contour>
    </TTGlyph>
    <TTGlyph name="b" xMin="17" yMin="-9" xMax="493" yMax="725">
      <contour>
        <pt x="493" y="330" on="1"/>
        <pt x="493" y="258" on="0"/>
        <pt x="456" y="135" on="0"/>
        <pt x="383" y="43" on="0"/>
        <pt x="276" y="-9" on="0"/>
        <pt x="207" y="-9" on="1"/>
        <pt x="159" y="-9" on="0"/>
        <pt x="66" y="23" on="0"/>
        <pt x="17" y="48" on="1"/>
        <pt x="144" y="705" on="1"/>
        <pt x="302" y="725" on="1"/>
        <pt x="270" y="562" on="1"/>
        <pt x="263" y="528" on="0"/>
        <pt x="238" y="455" on="0"/>
        <pt x="221" y="413" on="1"/>
        <pt x="275" y="502" on="0"/>
        <pt x="356" y="502" on="1"/>
        <pt x="393" y="502" on="0"/>
        <pt x="446" y="471" on="0"/>
        <pt x="478" y="422" on="0"/>
        <pt x="493" y="360" on="0"/>
      </contour>
      <contour>
        <pt x="308" y="384" on="1"/>
        <pt x="293" y="384" on="0"/>
        <pt x="260" y="342" on="0"/>
        <pt x="229" y="274" on="0"/>
        <pt x="202" y="191" on="0"/>
        <pt x="193" y="151" on="1"/>
        <pt x="183" y="110" on="1"/>
        <pt x="196" y="106" on="0"/>
        <pt x="213" y="106" on="1"/>
        <pt x="248" y="106" on="0"/>
        <pt x="294" y="157" on="0"/>
        <pt x="321" y="229" on="0"/>
        <pt x="332" y="307" on="0"/>
        <pt x="332" y="333" on="1"/>
        <pt x="332" y="354" on="0"/>
        <pt x="322" y="384" on="0"/>
      </contour>
    </TTGlyph>
    <TTGlyph name="backslash" xMin="98" yMin="-126" xMax="392" yMax="729">
      <contour>
        <pt x="392" y="-126" on="1"/>
        <pt x="247" y="-126" on="1"/>
        <pt x="98" y="729" on="1"/>
        <pt x="246" y="729" on="1"/>
      </contour>
    </TTGlyph>
    <TTGlyph name="bar" xMin="12" yMin="-126" xMax="327" yMax="729">
      <contour>
        <pt x="327" y="729" on="1"/>
        <pt x="160" y="-126" on="1"/>
        <pt x="12" y="-126" on="1"/>
        <pt x="180" y="729" on="1"/>
      </contour>
    </TTGlyph>
    <TTGlyph name="braceleft" xMin="25" yMin="-192" xMax="412" yMax="724">
      <contour>
        <pt x="70" y="116" on="1"/>
        <pt x="72" y="124" on="0"/>
        <pt x="76" y="147" on="0"/>
        <pt x="76" y="157" on="1"/>
        <pt x="76" y="172" on="0"/>
        <pt x="62" y="204" on="0"/>
        <pt x="30" y="209" on="1"/>
        <pt x="30" y="312" on="1"/>
        <pt x="46" y="317" on="0"/>
        <pt x="78" y="331" on="0"/>
        <pt x="104" y="352" on="0"/>
        <pt x="121" y="383" on="0"/>
        <pt x="124" y="406" on="1"/>
        <pt x="146" y="582" on="1"/>
        <pt x="150" y="622" on="0"/>
        <pt x="184" y="677" on="0"/>
        <pt x="235" y="710" on="0"/>
        <pt x="298" y="724" on="0"/>
        <pt x="331" y="724" on="1"/>
        <pt x="353" y="724" on="0"/>
        <pt x="389" y="716" on="0"/>
        <pt x="412" y="711" on="1"/>
        <pt x="387" y="584" on="1"/>
        <pt x="363" y="593" on="0"/>
        <pt x="344" y="593" on="1"/>
        <pt x="321" y="593" on="0"/>
        <pt x="300" y="560" on="0"/>
        <pt x="298" y="547" on="1"/>
        <pt x="282" y="406" on="1"/>
        <pt x="277" y="365" on="0"/>
        <pt x="236" y="291" on="0"/>
        <pt x="181" y="260" on="1"/>
        <pt x="206" y="244" on="0"/>
        <pt x="233" y="204" on="0"/>
        <pt x="233" y="178" on="1"/>
        <pt x="233" y="163" on="0"/>
        <pt x="226" y="125" on="0"/>
        <pt x="222" y="110" on="1"/>
        <pt x="195" y="0" on="1"/>
        <pt x="193" y="-8" on="0"/>
        <pt x="187" y="-27" on="0"/>
        <pt x="187" y="-32" on="1"/>
        <pt x="187" y="-41" on="0"/>
        <pt x="199" y="-53" on="0"/>
        <pt x="209" y="-53" on="1"/>
        <pt x="222" y="-53" on="0"/>
        <pt x="254" y="-45" on="0"/>
        <pt x="268" y="-40" on="1"/>
        <pt x="240" y="-183" on="1"/>
        <pt x="222" y="-186" on="0"/>
        <pt x="172" y="-192" on="0"/>
        <pt x="153" y="-192" on="1"/>
        <pt x="127" y="-192" on="0"/>
        <pt x="80" y="-179" on="0"/>
        <pt x="45" y="-154" on="0"/>
        <pt x="25" y="-115" on="0"/>
        <pt x="25" y="-88" on="1"/>
        <pt x="25" y="-70" on="0"/>
        <pt x="32" y="-34" on="0"/>
        <pt x="40" y="-2" on="1"/>
      </contour>
    </TTGlyph>
    <TTGlyph name="braceright" xMin="-70" yMin="-192" xMax="317" yMax="724">
      <contour>
        <pt x="271" y="416" on="1"/>
        <pt x="269" y="408" on="0"/>
        <pt x="265" y="384" on="0"/>
        <pt x="265" y="374" on="1"/>
        <pt x="265" y="359" on="0"/>
        <pt x="280" y="328" on="0"/>
        <pt x="312" y="323" on="1"/>
        <pt x="312" y="220" on="1"/>
        <pt x="295" y="215" on="0"/>
        <pt x="264" y="201" on="0"/>
        <pt x="238" y="179" on="0"/>
        <pt x="220" y="148" on="0"/>
        <pt x="217" y="126" on="1"/>
        <pt x="196" y="-51" on="1"/>
        <pt x="191" y="-91" on="0"/>
        <pt x="157" y="-145" on="0"/>
        <pt x="107" y="-178" on="0"/>
        <pt x="44" y="-192" on="0"/>
        <pt x="11" y="-192" on="1"/>
        <pt x="-12" y="-192" on="0"/>
        <pt x="-47" y="-185" on="0"/>
        <pt x="-70" y="-180" on="1"/>
        <pt x="-46" y="-52" on="1"/>
        <pt x="-34" y="-57" on="0"/>
        <pt x="-10" y="-61" on="0"/>
        <pt x="-2" y="-61" on="1"/>
        <pt x="21" y="-61" on="0"/>
        <pt x="41" y="-28" on="0"/>
        <pt x="43" y="-15" on="1"/>
        <pt x="60" y="125" on="1"/>
        <pt x="65" y="166" on="0"/>
        <pt x="106" y="241" on="0"/>
        <pt x="161" y="271" on="1"/>
        <pt x="108" y="305" on="0"/>
        <pt x="108" y="354" on="1"/>
        <pt x="108" y="369" on="0"/>
        <pt x="115" y="407" on="0"/>
        <pt x="119" y="422" on="1"/>
        <pt x="147" y="532" on="1"/>
        <pt x="149" y="540" on="0"/>
        <pt x="154" y="558" on="0"/>
        <pt x="154" y="564" on="1"/>
        <pt x="154" y="584" on="0"/>
        <pt x="133" y="584" on="1"/>
        <pt x="119" y="584" on="0"/>
        <pt x="88" y="577" on="0"/>
        <pt x="74" y="572" on="1"/>
        <pt x="101" y="715" on="1"/>
        <pt x="119" y="718" on="0"/>
        <pt x="169" y="724" on="0"/>
        <pt x="188" y="724" on="1"/>
        <pt x="214" y="724" on="0"/>
        <pt x="261" y="711" on="0"/>
        <pt x="296" y="686" on="0"/>
        <pt x="317" y="647" on="0"/>
        <pt x="317" y="620" on="1"/>
        <pt x="317" y="602" on="0"/>
        <pt x="310" y="565" on="0"/>
        <pt x="302" y="534" on="1"/>
      </contour>
    </TTGlyph>
    <TTGlyph name="bracketleft" xMin="30" yMin="-186" xMax="464" yMax="720">
      <contour>
        <pt x="207" y="720" on="1"/>
        <pt x="464" y="720" on="1"/>
        <pt x="440" y="598" on="1"/>
        <pt x="332" y="598" on="1"/>
        <pt x="203" y="-64" on="1"/>
        <pt x="314" y="-64" on="1"/>
        <pt x="292" y="-186" on="1"/>
        <pt x="30" y="-186" on="1"/>
      </contour>
    </TTGlyph>
    <TTGlyph name="bracketright" xMin="-60" yMin="-186" xMax="374" yMax="720">
      <contour>
        <pt x="197" y="-186" on="1"/>
        <pt x="-60" y="-186" on="1"/>
        <pt x="-36" y="-64" on="1"/>
        <pt x="72" y="-64" on="1"/>
        <pt x="201" y="598" on="1"/>
        <pt x="90" y="598" on="1"/>
        <pt x="112" y="720" on="1"/>
        <pt x="374" y="720" on="1"/>
      </contour>
    </TTGlyph>
    <TTGlyph name="brokenbar" xMin="12" yMin="-126" xMax="327" yMax="729">
      <contour>
        <pt x="327" y="729" on="1"/>
        <pt x="252" y="341" on="1"/>
        <pt x="104" y="341" on="1"/>
        <pt x="180" y="729" on="1"/>
      </contour>
      <contour>
        <pt x="235" y="260" on="1"/>
        <pt x="160" y="-126" on="1"/>
        <pt x="12" y="-126" on="1"/>
        <pt x="87" y="260" on="1"/>
      </contour>
    </TTGlyph>
    <TTGlyph name="bullet" xMin="36" yMin="189" xMax="281" yMax="424">
      <contour>
        <pt x="166" y="424" on="1"/>
        <pt x="225" y="424" on="0"/>
        <pt x="281" y="365" on="0"/>
        <pt x="281" y="314" on="1"/>
        <pt x="281" y="288" on="0"/>
        <pt x="263" y="243" on="0"/>
        <pt x="229" y="209" on="0"/>
        <pt x="180" y="189" on="0"/>
        <pt x="150" y="189" on="1"/>
        <pt x="91" y="189" on="0"/>
        <pt x="36" y="249" on="0"/>
        <pt x="36" y="297" on="1"/>
        <pt x="36" y="323" on="0"/>
        <pt x="54" y="369" on="0"/>
        <pt x="87" y="404" on="0"/>
        <pt x="136" y="424" on="0"/>
      </contour>
    </TTGlyph>
    <TTGlyph name="c" xMin="22" yMin="-13" xMax="429" yMax="505">
      <contour>
        <pt x="362" y="23" on="1"/>
        <pt x="361" y="23" on="0"/>
        <pt x="333" y="11" on="0"/>
        <pt x="288" y="-2" on="0"/>
        <pt x="231" y="-13" on="0"/>
        <pt x="201" y="-13" on="1"/>
        <pt x="150" y="-13" on="0"/>
        <pt x="82" y="17" on="0"/>
        <pt x="40" y="67" on="0"/>
        <pt x="22" y="130" on="0"/>
        <pt x="22" y="163" on="1"/>
        <pt x="22" y="232" on="0"/>
        <pt x="59" y="356" on="0"/>
        <pt x="131" y="450" on="0"/>
        <pt x="236" y="505" on="0"/>
        <pt x="304" y="505" on="1"/>
        <pt x="334" y="505" on="0"/>
        <pt x="377" y="487" on="0"/>
        <pt x="406" y="456" on="0"/>
        <pt x="424" y="415" on="0"/>
        <pt x="429" y="393" on="1"/>
        <pt x="315" y="349" on="1"/>
        <pt x="310" y="361" on="0"/>
        <pt x="300" y="385" on="0"/>
        <pt x="283" y="385" on="1"/>
        <pt x="258" y="385" on="0"/>
        <pt x="220" y="341" on="0"/>
        <pt x="195" y="275" on="0"/>
        <pt x="183" y="198" on="0"/>
        <pt x="183" y="165" on="1"/>
        <pt x="183" y="131" on="0"/>
        <pt x="209" y="105" on="0"/>
        <pt x="230" y="105" on="1"/>
        <pt x="239" y="105" on="0"/>
        <pt x="266" y="111" on="0"/>
        <pt x="295" y="119" on="0"/>
        <pt x="320" y="127" on="0"/>
        <pt x="327" y="129" on="1"/>
      </contour>
    </TTGlyph>
    <TTGlyph name="ccedilla" xMin="22" yMin="-227" xMax="429" yMax="505">
      <contour>
        <pt x="362" y="23" on="1"/>
        <pt x="360" y="22" on="0"/>
        <pt x="338" y="13" on="0"/>
        <pt x="302" y="2" on="0"/>
        <pt x="256" y="-8" on="0"/>
        <pt x="230" y="-11" on="1"/>
        <pt x="226" y="-21" on="0"/>
        <pt x="226" y="-26" on="1"/>
        <pt x="226" y="-36" on="0"/>
        <pt x="250" y="-51" on="0"/>
        <pt x="279" y="-70" on="0"/>
        <pt x="303" y="-98" on="0"/>
        <pt x="303" y="-121" on="1"/>
        <pt x="303" y="-148" on="0"/>
        <pt x="279" y="-188" on="0"/>
        <pt x="240" y="-214" on="0"/>
        <pt x="192" y="-227" on="0"/>
        <pt x="168" y="-227" on="1"/>
        <pt x="108" y="-227" on="0"/>
        <pt x="57" y="-195" on="1"/>
        <pt x="96" y="-118" on="1"/>
        <pt x="111" y="-129" on="0"/>
        <pt x="142" y="-143" on="0"/>
        <pt x="162" y="-143" on="1"/>
        <pt x="194" y="-143" on="0"/>
        <pt x="194" y="-126" on="1"/>
        <pt x="194" y="-114" on="0"/>
        <pt x="173" y="-101" on="0"/>
        <pt x="149" y="-87" on="0"/>
        <pt x="128" y="-69" on="0"/>
        <pt x="128" y="-54" on="1"/>
        <pt x="128" y="-42" on="0"/>
        <pt x="140" y="-19" on="0"/>
        <pt x="148" y="-6" on="1"/>
        <pt x="113" y="1" on="0"/>
        <pt x="65" y="35" on="0"/>
        <pt x="35" y="80" on="0"/>
        <pt x="22" y="135" on="0"/>
        <pt x="22" y="163" on="1"/>
        <pt x="22" y="232" on="0"/>
        <pt x="59" y="356" on="0"/>
        <pt x="131" y="450" on="0"/>
        <pt x="236" y="505" on="0"/>
        <pt x="304" y="505" on="1"/>
        <pt x="334" y="505" on="0"/>
        <pt x="377" y="487" on="0"/>
        <pt x="406" y="456" on="0"/>
        <pt x="424" y="415" on="0"/>
        <pt x="429" y="393" on="1"/>
        <pt x="315" y="349" on="1"/>
        <pt x="310" y="361" on="0"/>
        <pt x="300" y="385" on="0"/>
        <pt x="283" y="385" on="1"/>
        <pt x="258" y="385" on="0"/>
        <pt x="220" y="341" on="0"/>
        <pt x="195" y="275" on="0"/>
        <pt x="183" y="198" on="0"/>
        <pt x="183" y="165" on="1"/>
        <pt x="183" y="131" on="0"/>
        <pt x="209" y="105" on="0"/>
        <pt x="230" y="105" on="1"/>
        <pt x="239" y="105" on="0"/>
        <pt x="266" y="111" on="0"/>
        <pt x="294" y="119" on="0"/>
        <pt x="320" y="127" on="0"/>
        <pt x="327" y="129" on="1"/>
      </contour>
    </TTGlyph>
    <TTGlyph name="cedilla" xMin="120" yMin="-227" xMax="365" yMax="10">
      <contour>
        <pt x="305" y="10" on="1"/>
        <pt x="297" y="-1" on="0"/>
        <pt x="289" y="-20" on="0"/>
        <pt x="289" y="-26" on="1"/>
        <pt x="289" y="-36" on="0"/>
        <pt x="313" y="-51" on="0"/>
        <pt x="341" y="-70" on="0"/>
        <pt x="365" y="-98" on="0"/>
        <pt x="365" y="-121" on="1"/>
        <pt x="365" y="-148" on="0"/>
        <pt x="341" y="-188" on="0"/>
        <pt x="302" y="-214" on="0"/>
        <pt x="255" y="-227" on="0"/>
        <pt x="231" y="-227" on="1"/>
        <pt x="199" y="-227" on="0"/>
        <pt x="146" y="-212" on="0"/>
        <pt x="120" y="-195" on="1"/>
        <pt x="158" y="-118" on="1"/>
        <pt x="173" y="-129" on="0"/>
        <pt x="205" y="-143" on="0"/>
        <pt x="225" y="-143" on="1"/>
        <pt x="256" y="-143" on="0"/>
        <pt x="256" y="-126" on="1"/>
        <pt x="256" y="-114" on="0"/>
        <pt x="236" y="-101" on="0"/>
        <pt x="211" y="-87" on="0"/>
        <pt x="191" y="-69" on="0"/>
        <pt x="191" y="-54" on="1"/>
        <pt x="191" y="-38" on="0"/>
        <pt x="211" y="-7" on="0"/>
        <pt x="225" y="10" on="1"/>
      </contour>
    </TTGlyph>
    <TTGlyph name="cent" xMin="47" yMin="-60" xMax="513" yMax="636">
      <contour>
        <pt x="300" y="636" on="1"/>
        <pt x="409" y="636" on="1"/>
        <pt x="395" y="549" on="1"/>
        <pt x="451" y="544" on="0"/>
        <pt x="505" y="491" on="0"/>
        <pt x="513" y="449" on="1"/>
        <pt x="415" y="406" on="1"/>
        <pt x="409" y="422" on="0"/>
        <pt x="395" y="444" on="0"/>
        <pt x="380" y="448" on="1"/>
        <pt x="334" y="154" on="1"/>
        <pt x="362" y="159" on="0"/>
        <pt x="400" y="181" on="0"/>
        <pt x="416" y="193" on="1"/>
        <pt x="453" y="111" on="1"/>
        <pt x="437" y="96" on="0"/>
        <pt x="373" y="63" on="0"/>
        <pt x="319" y="56" on="1"/>
        <pt x="301" y="-60" on="1"/>
        <pt x="192" y="-60" on="1"/>
        <pt x="209" y="54" on="1"/>
        <pt x="163" y="57" on="0"/>
        <pt x="101" y="90" on="0"/>
        <pt x="63" y="141" on="0"/>
        <pt x="47" y="204" on="0"/>
        <pt x="47" y="236" on="1"/>
        <pt x="47" y="294" on="0"/>
        <pt x="78" y="401" on="0"/>
        <pt x="139" y="485" on="0"/>
        <pt x="228" y="541" on="0"/>
        <pt x="286" y="548" on="1"/>
      </contour>
      <contour>
        <pt x="204" y="237" on="1"/>
        <pt x="204" y="214" on="0"/>
        <pt x="214" y="175" on="0"/>
        <pt x="227" y="164" on="1"/>
        <pt x="269" y="440" on="1"/>
        <pt x="249" y="427" on="0"/>
        <pt x="224" y="377" on="0"/>
        <pt x="210" y="319" on="0"/>
        <pt x="204" y="259" on="0"/>
      </contour>
    </TTGlyph>
    <TTGlyph name="circumUC" xMin="117" yMin="548" xMax="484" yMax="782">
      <contour>
        <pt x="117" y="632" on="1"/>
        <pt x="151" y="660" on="0"/>
        <pt x="186" y="687" on="1"/>
        <pt x="216" y="710" on="0"/>
        <pt x="290" y="762" on="0"/>
        <pt x="327" y="782" on="1"/>
        <pt x="350" y="750" on="0"/>
        <pt x="405" y="694" on="0"/>
        <pt x="429" y="674" on="1"/>
        <pt x="456" y="650" on="0"/>
        <pt x="484" y="630" on="1"/>
        <pt x="429" y="548" on="1"/>
        <pt x="408" y="555" on="0"/>
        <pt x="385" y="566" on="1"/>
        <pt x="365" y="576" on="0"/>
        <pt x="319" y="605" on="0"/>
        <pt x="296" y="628" on="1"/>
        <pt x="270" y="612" on="0"/>
        <pt x="223" y="583" on="0"/>
        <pt x="206" y="572" on="1"/>
        <pt x="185" y="559" on="0"/>
        <pt x="168" y="548" on="1"/>
      </contour>
    </TTGlyph>
    <TTGlyph name="circumdotlessi" xMin="141" yMin="526" xMax="442" yMax="790">
      <contour>
        <pt x="141" y="589" on="1"/>
        <pt x="176" y="629" on="0"/>
        <pt x="212" y="667" on="1"/>
        <pt x="243" y="699" on="0"/>
        <pt x="313" y="767" on="0"/>
        <pt x="345" y="790" on="1"/>
        <pt x="365" y="754" on="0"/>
        <pt x="401" y="680" on="0"/>
        <pt x="414" y="650" on="1"/>
        <pt x="429" y="615" on="0"/>
        <pt x="442" y="581" on="1"/>
        <pt x="360" y="526" on="1"/>
        <pt x="352" y="537" on="0"/>
        <pt x="342" y="551" on="1"/>
        <pt x="334" y="563" on="0"/>
        <pt x="312" y="596" on="0"/>
        <pt x="300" y="617" on="1"/>
        <pt x="283" y="597" on="0"/>
        <pt x="251" y="564" on="0"/>
        <pt x="240" y="552" on="1"/>
        <pt x="226" y="538" on="0"/>
        <pt x="215" y="526" on="1"/>
      </contour>
    </TTGlyph>
    <TTGlyph name="circumflex" xMin="62" yMin="526" xMax="435" yMax="789">
      <contour>
        <pt x="62" y="592" on="1"/>
        <pt x="100" y="631" on="0"/>
        <pt x="139" y="668" on="1"/>
        <pt x="172" y="700" on="0"/>
        <pt x="249" y="766" on="0"/>
        <pt x="284" y="789" on="1"/>
        <pt x="309" y="751" on="0"/>
        <pt x="363" y="681" on="0"/>
        <pt x="385" y="653" on="1"/>
        <pt x="411" y="620" on="0"/>
        <pt x="435" y="592" on="1"/>
        <pt x="362" y="526" on="1"/>
        <pt x="344" y="536" on="0"/>
        <pt x="326" y="550" on="1"/>
        <pt x="310" y="562" on="0"/>
        <pt x="271" y="596" on="0"/>
        <pt x="251" y="618" on="1"/>
        <pt x="228" y="600" on="0"/>
        <pt x="186" y="567" on="0"/>
        <pt x="170" y="554" on="1"/>
        <pt x="152" y="539" on="0"/>
        <pt x="135" y="526" on="1"/>
      </contour>
    </TTGlyph>
    <TTGlyph name="colon" xMin="35" yMin="-13" xMax="293" yMax="502">
      <contour>
        <pt x="136" y="170" on="1"/>
        <pt x="181" y="170" on="0"/>
        <pt x="225" y="125" on="0"/>
        <pt x="225" y="85" on="1"/>
        <pt x="225" y="45" on="0"/>
        <pt x="171" y="-13" on="0"/>
        <pt x="123" y="-13" on="1"/>
        <pt x="78" y="-13" on="0"/>
        <pt x="35" y="34" on="0"/>
        <pt x="35" y="72" on="1"/>
        <pt x="35" y="112" on="0"/>
        <pt x="88" y="170" on="0"/>
      </contour>
      <contour>
        <pt x="203" y="502" on="1"/>
        <pt x="249" y="502" on="0"/>
        <pt x="293" y="456" on="0"/>
        <pt x="293" y="416" on="1"/>
        <pt x="293" y="377" on="0"/>
        <pt x="238" y="319" on="0"/>
        <pt x="191" y="319" on="1"/>
        <pt x="145" y="319" on="0"/>
        <pt x="102" y="366" on="0"/>
        <pt x="102" y="403" on="1"/>
        <pt x="102" y="444" on="0"/>
        <pt x="155" y="502" on="0"/>
      </contour>
    </TTGlyph>
    <TTGlyph name="comma" xMin="-60" yMin="-148" xMax="180" yMax="166">
      <contour>
        <pt x="25" y="74" on="1"/>
        <pt x="25" y="94" on="0"/>
        <pt x="22" y="131" on="0"/>
        <pt x="20" y="145" on="1"/>
        <pt x="30" y="151" on="0"/>
        <pt x="42" y="155" on="1"/>
        <pt x="53" y="159" on="0"/>
        <pt x="84" y="166" on="0"/>
        <pt x="105" y="166" on="1"/>
        <pt x="146" y="166" on="0"/>
        <pt x="180" y="128" on="0"/>
        <pt x="180" y="95" on="1"/>
        <pt x="180" y="57" on="0"/>
        <pt x="149" y="-13" on="0"/>
        <pt x="97" y="-76" on="0"/>
        <pt x="29" y="-129" on="0"/>
        <pt x="-8" y="-148" on="1"/>
        <pt x="-60" y="-63" on="1"/>
        <pt x="-31" y="-45" on="0"/>
        <pt x="3" y="-10" on="0"/>
        <pt x="20" y="24" on="0"/>
        <pt x="25" y="57" on="0"/>
      </contour>
    </TTGlyph>
    <TTGlyph name="copyright" xMin="27" yMin="-14" xMax="729" yMax="693">
      <contour>
        <pt x="27" y="261" on="1"/>
        <pt x="27" y="355" on="0"/>
        <pt x="90" y="513" on="0"/>
        <pt x="203" y="628" on="0"/>
        <pt x="357" y="693" on="0"/>
        <pt x="447" y="693" on="1"/>
        <pt x="513" y="693" on="0"/>
        <pt x="618" y="652" on="0"/>
        <pt x="691" y="580" on="0"/>
        <pt x="729" y="479" on="0"/>
        <pt x="729" y="419" on="1"/>
        <pt x="729" y="326" on="0"/>
        <pt x="666" y="167" on="0"/>
        <pt x="553" y="51" on="0"/>
        <pt x="399" y="-14" on="0"/>
        <pt x="309" y="-14" on="1"/>
        <pt x="243" y="-14" on="0"/>
        <pt x="138" y="27" on="0"/>
        <pt x="65" y="101" on="0"/>
        <pt x="27" y="201" on="0"/>
      </contour>
      <contour>
        <pt x="429" y="597" on="1"/>
        <pt x="379" y="597" on="0"/>
        <pt x="276" y="555" on="0"/>
        <pt x="190" y="474" on="0"/>
        <pt x="136" y="358" on="0"/>
        <pt x="136" y="285" on="1"/>
        <pt x="136" y="185" on="0"/>
        <pt x="237" y="83" on="0"/>
        <pt x="326" y="83" on="1"/>
        <pt x="383" y="83" on="0"/>
        <pt x="489" y="130" on="0"/>
        <pt x="571" y="213" on="0"/>
        <pt x="620" y="328" on="0"/>
        <pt x="620" y="396" on="1"/>
        <pt x="620" y="495" on="0"/>
        <pt x="520" y="597" on="0"/>
      </contour>
      <contour>
        <pt x="480" y="179" on="1"/>
        <pt x="474" y="176" on="0"/>
        <pt x="450" y="164" on="0"/>
        <pt x="415" y="152" on="0"/>
        <pt x="372" y="143" on="0"/>
        <pt x="348" y="143" on="1"/>
        <pt x="310" y="143" on="0"/>
        <pt x="258" y="165" on="0"/>
        <pt x="225" y="204" on="0"/>
        <pt x="211" y="257" on="0"/>
        <pt x="211" y="287" on="1"/>
        <pt x="211" y="337" on="0"/>
        <pt x="242" y="430" on="0"/>
        <pt x="299" y="502" on="0"/>
        <pt x="381" y="545" on="0"/>
        <pt x="432" y="545" on="1"/>
        <pt x="474" y="545" on="0"/>
        <pt x="524" y="511" on="0"/>
        <pt x="532" y="485" on="1"/>
        <pt x="459" y="418" on="1"/>
        <pt x="453" y="428" on="0"/>
        <pt x="439" y="439" on="0"/>
        <pt x="426" y="439" on="1"/>
        <pt x="407" y="439" on="0"/>
        <pt x="379" y="414" on="0"/>
        <pt x="360" y="374" on="0"/>
        <pt x="351" y="325" on="0"/>
        <pt x="351" y="301" on="1"/>
        <pt x="351" y="275" on="0"/>
        <pt x="371" y="245" on="0"/>
        <pt x="392" y="245" on="1"/>
        <pt x="409" y="245" on="0"/>
        <pt x="438" y="254" on="0"/>
        <pt x="456" y="262" on="1"/>
      </contour>
    </TTGlyph>
    <TTGlyph name="currency" xMin="2" yMin="-13" xMax="620" yMax="569">
      <contour>
        <pt x="620" y="475" on="1"/>
        <pt x="525" y="401" on="1"/>
        <pt x="532" y="385" on="0"/>
        <pt x="540" y="348" on="0"/>
        <pt x="540" y="328" on="1"/>
        <pt x="540" y="270" on="0"/>
        <pt x="503" y="177" on="0"/>
        <pt x="471" y="143" on="1"/>
        <pt x="538" y="59" on="1"/>
        <pt x="434" y="-13" on="1"/>
        <pt x="377" y="79" on="1"/>
        <pt x="351" y="68" on="0"/>
        <pt x="298" y="58" on="0"/>
        <pt x="270" y="58" on="1"/>
        <pt x="218" y="58" on="0"/>
        <pt x="176" y="75" on="1"/>
        <pt x="86" y="-13" on="1"/>
        <pt x="2" y="81" on="1"/>
        <pt x="96" y="153" on="1"/>
        <pt x="81" y="186" on="0"/>
        <pt x="81" y="228" on="1"/>
        <pt x="81" y="285" on="0"/>
        <pt x="117" y="375" on="0"/>
        <pt x="147" y="410" on="1"/>
        <pt x="78" y="497" on="1"/>
        <pt x="183" y="569" on="1"/>
        <pt x="240" y="475" on="1"/>
        <pt x="294" y="498" on="0"/>
        <pt x="350" y="498" on="1"/>
        <pt x="402" y="498" on="0"/>
        <pt x="445" y="479" on="1"/>
        <pt x="536" y="569" on="1"/>
      </contour>
      <contour>
        <pt x="285" y="164" on="1"/>
        <pt x="310" y="164" on="0"/>
        <pt x="355" y="188" on="0"/>
        <pt x="389" y="229" on="0"/>
        <pt x="409" y="280" on="0"/>
        <pt x="409" y="307" on="1"/>
        <pt x="409" y="341" on="0"/>
        <pt x="377" y="387" on="0"/>
        <pt x="334" y="387" on="1"/>
        <pt x="309" y="387" on="0"/>
        <pt x="264" y="363" on="0"/>
        <pt x="230" y="323" on="0"/>
        <pt x="210" y="272" on="0"/>
        <pt x="210" y="245" on="1"/>
        <pt x="210" y="211" on="0"/>
        <pt x="243" y="164" on="0"/>
      </contour>
    </TTGlyph>
    <TTGlyph name="d" xMin="22" yMin="-12" xMax="552" yMax="725">
      <contour>
        <pt x="456" y="225" on="1"/>
        <pt x="453" y="210" on="0"/>
        <pt x="451" y="182" on="0"/>
        <pt x="451" y="170" on="1"/>
        <pt x="451" y="128" on="0"/>
        <pt x="471" y="69" on="0"/>
        <pt x="491" y="38" on="1"/>
        <pt x="365" y="-12" on="1"/>
        <pt x="350" y="5" on="0"/>
        <pt x="329" y="54" on="0"/>
        <pt x="329" y="84" on="1"/>
        <pt x="329" y="96" on="0"/>
        <pt x="330" y="126" on="0"/>
        <pt x="332" y="146" on="1"/>
        <pt x="319" y="118" on="1"/>
        <pt x="287" y="49" on="0"/>
        <pt x="206" y="-9" on="0"/>
        <pt x="159" y="-9" on="1"/>
        <pt x="121" y="-9" on="0"/>
        <pt x="69" y="22" on="0"/>
        <pt x="37" y="71" on="0"/>
        <pt x="22" y="132" on="0"/>
        <pt x="22" y="163" on="1"/>
        <pt x="22" y="235" on="0"/>
        <pt x="59" y="358" on="0"/>
        <pt x="132" y="450" on="0"/>
        <pt x="239" y="502" on="0"/>
        <pt x="309" y="502" on="1"/>
        <pt x="320" y="502" on="0"/>
        <pt x="343" y="500" on="0"/>
        <pt x="356" y="498" on="1"/>
        <pt x="396" y="705" on="1"/>
        <pt x="552" y="725" on="1"/>
      </contour>
      <contour>
        <pt x="207" y="109" on="1"/>
        <pt x="222" y="109" on="0"/>
        <pt x="256" y="153" on="0"/>
        <pt x="287" y="221" on="0"/>
        <pt x="313" y="302" on="0"/>
        <pt x="322" y="338" on="1"/>
        <pt x="332" y="383" on="1"/>
        <pt x="321" y="387" on="0"/>
        <pt x="302" y="387" on="1"/>
        <pt x="267" y="387" on="0"/>
        <pt x="222" y="336" on="0"/>
        <pt x="195" y="264" on="0"/>
        <pt x="184" y="186" on="0"/>
        <pt x="184" y="160" on="1"/>
        <pt x="184" y="139" on="0"/>
        <pt x="193" y="109" on="0"/>
      </contour>
    </TTGlyph>
    <TTGlyph name="degree" xMin="42" yMin="463" xMax="300" yMax="718">
      <contour>
        <pt x="180" y="638" on="1"/>
        <pt x="157" y="638" on="0"/>
        <pt x="131" y="600" on="0"/>
        <pt x="131" y="577" on="1"/>
        <pt x="131" y="562" on="0"/>
        <pt x="147" y="543" on="0"/>
        <pt x="163" y="543" on="1"/>
        <pt x="186" y="543" on="0"/>
        <pt x="211" y="580" on="0"/>
        <pt x="211" y="602" on="1"/>
        <pt x="211" y="618" on="0"/>
        <pt x="195" y="638" on="0"/>
      </contour>
      <contour>
        <pt x="150" y="463" on="1"/>
        <pt x="98" y="463" on="0"/>
        <pt x="42" y="523" on="0"/>
        <pt x="42" y="570" on="1"/>
        <pt x="42" y="600" on="0"/>
        <pt x="64" y="654" on="0"/>
        <pt x="104" y="694" on="0"/>
        <pt x="159" y="718" on="0"/>
        <pt x="192" y="718" on="1"/>
        <pt x="244" y="718" on="0"/>
        <pt x="300" y="657" on="0"/>
        <pt x="300" y="611" on="1"/>
        <pt x="300" y="581" on="0"/>
        <pt x="278" y="527" on="0"/>
        <pt x="239" y="487" on="0"/>
        <pt x="183" y="463" on="0"/>
      </contour>
    </TTGlyph>
    <TTGlyph name="dieresis" xMin="80" yMin="568" xMax="456" yMax="720">
      <contour>
        <pt x="164" y="720" on="1"/>
        <pt x="202" y="720" on="0"/>
        <pt x="239" y="682" on="0"/>
        <pt x="239" y="648" on="1"/>
        <pt x="239" y="616" on="0"/>
        <pt x="192" y="568" on="0"/>
        <pt x="153" y="568" on="1"/>
        <pt x="115" y="568" on="0"/>
        <pt x="80" y="607" on="0"/>
        <pt x="80" y="638" on="1"/>
        <pt x="80" y="672" on="0"/>
        <pt x="124" y="720" on="0"/>
      </contour>
      <contour>
        <pt x="381" y="720" on="1"/>
        <pt x="419" y="720" on="0"/>
        <pt x="456" y="682" on="0"/>
        <pt x="456" y="648" on="1"/>
        <pt x="456" y="616" on="0"/>
        <pt x="410" y="568" on="0"/>
        <pt x="371" y="568" on="1"/>
        <pt x="333" y="568" on="0"/>
        <pt x="298" y="607" on="0"/>
        <pt x="298" y="638" on="1"/>
        <pt x="298" y="672" on="0"/>
        <pt x="342" y="720" on="0"/>
      </contour>
    </TTGlyph>
    <TTGlyph name="dieresisdotlessi" xMin="192" yMin="580" xMax="530" yMax="730">
      <contour>
        <pt x="275" y="730" on="1"/>
        <pt x="313" y="730" on="0"/>
        <pt x="350" y="693" on="0"/>
        <pt x="350" y="660" on="1"/>
        <pt x="350" y="628" on="0"/>
        <pt x="303" y="580" on="0"/>
        <pt x="265" y="580" on="1"/>
        <pt x="227" y="580" on="0"/>
        <pt x="192" y="619" on="0"/>
        <pt x="192" y="650" on="1"/>
        <pt x="192" y="683" on="0"/>
        <pt x="236" y="730" on="0"/>
      </contour>
      <contour>
        <pt x="456" y="730" on="1"/>
        <pt x="494" y="730" on="0"/>
        <pt x="530" y="693" on="0"/>
        <pt x="530" y="660" on="1"/>
        <pt x="530" y="628" on="0"/>
        <pt x="485" y="580" on="0"/>
        <pt x="447" y="580" on="1"/>
        <pt x="409" y="580" on="0"/>
        <pt x="374" y="619" on="0"/>
        <pt x="374" y="650" on="1"/>
        <pt x="374" y="683" on="0"/>
        <pt x="418" y="730" on="0"/>
      </contour>
    </TTGlyph>
    <TTGlyph name="divide" xMin="22" yMin="60" xMax="453" yMax="574">
      <contour>
        <pt x="272" y="574" on="1"/>
        <pt x="310" y="574" on="0"/>
        <pt x="346" y="536" on="0"/>
        <pt x="346" y="503" on="1"/>
        <pt x="346" y="471" on="0"/>
        <pt x="302" y="424" on="0"/>
        <pt x="263" y="424" on="1"/>
        <pt x="225" y="424" on="0"/>
        <pt x="188" y="462" on="0"/>
        <pt x="188" y="493" on="1"/>
        <pt x="188" y="526" on="0"/>
        <pt x="233" y="574" on="0"/>
      </contour>
      <contour>
        <pt x="216" y="209" on="1"/>
        <pt x="254" y="209" on="0"/>
        <pt x="290" y="171" on="0"/>
        <pt x="290" y="139" on="1"/>
        <pt x="290" y="107" on="0"/>
        <pt x="245" y="60" on="0"/>
        <pt x="206" y="60" on="1"/>
        <pt x="168" y="60" on="0"/>
        <pt x="131" y="98" on="0"/>
        <pt x="131" y="128" on="1"/>
        <pt x="131" y="162" on="0"/>
        <pt x="176" y="209" on="0"/>
      </contour>
      <contour>
        <pt x="45" y="379" on="1"/>
        <pt x="453" y="379" on="1"/>
        <pt x="431" y="257" on="1"/>
        <pt x="22" y="257" on="1"/>
      </contour>
    </TTGlyph>
    <TTGlyph name="dollar" xMin="2" yMin="-83" xMax="481" yMax="694">
      <contour>
        <pt x="386" y="694" on="1"/>
        <pt x="369" y="607" on="1"/>
        <pt x="395" y="601" on="0"/>
        <pt x="432" y="579" on="0"/>
        <pt x="459" y="549" on="0"/>
        <pt x="476" y="514" on="0"/>
        <pt x="481" y="495" on="1"/>
        <pt x="367" y="436" on="1"/>
        <pt x="362" y="443" on="0"/>
        <pt x="354" y="462" on="0"/>
        <pt x="341" y="478" on="0"/>
        <pt x="323" y="489" on="0"/>
        <pt x="308" y="489" on="1"/>
        <pt x="283" y="489" on="0"/>
        <pt x="251" y="467" on="0"/>
        <pt x="251" y="448" on="1"/>
        <pt x="251" y="429" on="0"/>
        <pt x="279" y="401" on="0"/>
        <pt x="297" y="389" on="1"/>
        <pt x="362" y="342" on="1"/>
        <pt x="404" y="312" on="0"/>
        <pt x="439" y="246" on="0"/>
        <pt x="439" y="198" on="1"/>
        <pt x="439" y="160" on="0"/>
        <pt x="411" y="98" on="0"/>
        <pt x="361" y="52" on="0"/>
        <pt x="295" y="21" on="0"/>
        <pt x="257" y="14" on="1"/>
        <pt x="239" y="-83" on="1"/>
        <pt x="122" y="-83" on="1"/>
        <pt x="136" y="17" on="1"/>
        <pt x="83" y="31" on="0"/>
        <pt x="16" y="100" on="0"/>
        <pt x="2" y="142" on="1"/>
        <pt x="118" y="200" on="1"/>
        <pt x="132" y="165" on="0"/>
        <pt x="181" y="134" on="0"/>
        <pt x="204" y="134" on="1"/>
        <pt x="236" y="134" on="0"/>
        <pt x="277" y="165" on="0"/>
        <pt x="277" y="188" on="1"/>
        <pt x="277" y="205" on="0"/>
        <pt x="260" y="238" on="0"/>
        <pt x="236" y="254" on="1"/>
        <pt x="182" y="291" on="1"/>
        <pt x="160" y="306" on="0"/>
        <pt x="125" y="337" on="0"/>
        <pt x="101" y="372" on="0"/>
        <pt x="89" y="413" on="0"/>
        <pt x="89" y="440" on="1"/>
        <pt x="89" y="507" on="0"/>
        <pt x="177" y="592" on="0"/>
        <pt x="248" y="606" on="1"/>
        <pt x="268" y="694" on="1"/>
      </contour>
    </TTGlyph>
    <TTGlyph name="dotlessi" xMin="27" yMin="-7" xMax="258" yMax="490">
      <contour>
        <pt x="138" y="-7" on="1"/>
        <pt x="85" y="-7" on="0"/>
        <pt x="27" y="46" on="0"/>
        <pt x="27" y="90" on="1"/>
        <pt x="27" y="97" on="0"/>
        <pt x="29" y="113" on="0"/>
        <pt x="31" y="121" on="1"/>
        <pt x="105" y="490" on="1"/>
        <pt x="258" y="490" on="1"/>
        <pt x="193" y="159" on="1"/>
        <pt x="191" y="146" on="0"/>
        <pt x="189" y="138" on="0"/>
        <pt x="189" y="133" on="1"/>
        <pt x="189" y="126" on="0"/>
        <pt x="193" y="115" on="0"/>
        <pt x="202" y="115" on="1"/>
        <pt x="207" y="115" on="0"/>
        <pt x="222" y="118" on="0"/>
        <pt x="235" y="122" on="0"/>
        <pt x="246" y="126" on="0"/>
        <pt x="247" y="126" on="1"/>
        <pt x="247" y="18" on="1"/>
        <pt x="231" y="10" on="0"/>
        <pt x="213" y="5" on="1"/>
        <pt x="198" y="0" on="0"/>
        <pt x="159" y="-7" on="0"/>
      </contour>
    </TTGlyph>
    <TTGlyph name="e" xMin="22" yMin="-13" xMax="462" yMax="505">
      <contour>
        <pt x="22" y="163" on="1"/>
        <pt x="22" y="232" on="0"/>
        <pt x="59" y="356" on="0"/>
        <pt x="131" y="450" on="0"/>
        <pt x="236" y="505" on="0"/>
        <pt x="304" y="505" on="1"/>
        <pt x="388" y="505" on="0"/>
        <pt x="462" y="437" on="0"/>
        <pt x="462" y="382" on="1"/>
        <pt x="462" y="340" on="0"/>
        <pt x="421" y="268" on="0"/>
        <pt x="346" y="214" on="0"/>
        <pt x="243" y="180" on="0"/>
        <pt x="182" y="174" on="1"/>
        <pt x="182" y="170" on="0"/>
        <pt x="181" y="157" on="0"/>
        <pt x="181" y="152" on="1"/>
        <pt x="181" y="127" on="0"/>
        <pt x="209" y="105" on="0"/>
        <pt x="230" y="105" on="1"/>
        <pt x="244" y="105" on="0"/>
        <pt x="293" y="117" on="0"/>
        <pt x="318" y="125" on="1"/>
        <pt x="347" y="134" on="0"/>
        <pt x="379" y="146" on="1"/>
        <pt x="413" y="44" on="1"/>
        <pt x="379" y="27" on="0"/>
        <pt x="343" y="15" on="1"/>
        <pt x="312" y="4" on="0"/>
        <pt x="237" y="-13" on="0"/>
        <pt x="201" y="-13" on="1"/>
        <pt x="150" y="-13" on="0"/>
        <pt x="82" y="17" on="0"/>
        <pt x="40" y="67" on="0"/>
        <pt x="22" y="130" on="0"/>
      </contour>
      <contour>
        <pt x="280" y="389" on="1"/>
        <pt x="254" y="389" on="0"/>
        <pt x="210" y="330" on="0"/>
        <pt x="198" y="283" on="1"/>
        <pt x="252" y="290" on="0"/>
        <pt x="309" y="339" on="0"/>
        <pt x="309" y="362" on="1"/>
        <pt x="309" y="389" on="0"/>
      </contour>
    </TTGlyph>
    <TTGlyph name="eacute" xMin="22" yMin="-13" xMax="518" yMax="793">
      <contour>
        <pt x="22" y="163" on="1"/>
        <pt x="22" y="232" on="0"/>
        <pt x="59" y="356" on="0"/>
        <pt x="131" y="450" on="0"/>
        <pt x="236" y="505" on="0"/>
        <pt x="304" y="505" on="1"/>
        <pt x="388" y="505" on="0"/>
        <pt x="462" y="437" on="0"/>
        <pt x="462" y="382" on="1"/>
        <pt x="462" y="340" on="0"/>
        <pt x="421" y="268" on="0"/>
        <pt x="346" y="214" on="0"/>
        <pt x="243" y="180" on="0"/>
        <pt x="182" y="174" on="1"/>
        <pt x="182" y="170" on="0"/>
        <pt x="181" y="157" on="0"/>
        <pt x="181" y="152" on="1"/>
        <pt x="181" y="127" on="0"/>
        <pt x="209" y="105" on="0"/>
        <pt x="230" y="105" on="1"/>
        <pt x="244" y="105" on="0"/>
        <pt x="293" y="117" on="0"/>
        <pt x="318" y="125" on="1"/>
        <pt x="347" y="134" on="0"/>
        <pt x="379" y="146" on="1"/>
        <pt x="413" y="44" on="1"/>
        <pt x="379" y="27" on="0"/>
        <pt x="343" y="15" on="1"/>
        <pt x="312" y="4" on="0"/>
        <pt x="237" y="-13" on="0"/>
        <pt x="201" y="-13" on="1"/>
        <pt x="150" y="-13" on="0"/>
        <pt x="82" y="17" on="0"/>
        <pt x="40" y="67" on="0"/>
        <pt x="22" y="130" on="0"/>
      </contour>
      <contour>
        <pt x="280" y="389" on="1"/>
        <pt x="254" y="389" on="0"/>
        <pt x="210" y="330" on="0"/>
        <pt x="198" y="283" on="1"/>
        <pt x="252" y="290" on="0"/>
        <pt x="309" y="339" on="0"/>
        <pt x="309" y="362" on="1"/>
        <pt x="309" y="389" on="0"/>
      </contour>
      <contour>
        <pt x="246" y="604" on="1"/>
        <pt x="270" y="641" on="0"/>
        <pt x="300" y="676" on="1"/>
        <pt x="325" y="706" on="0"/>
        <pt x="393" y="770" on="0"/>
        <pt x="433" y="793" on="1"/>
        <pt x="449" y="782" on="0"/>
        <pt x="464" y="766" on="1"/>
        <pt x="477" y="752" on="0"/>
        <pt x="506" y="710" on="0"/>
        <pt x="518" y="681" on="1"/>
        <pt x="477" y="661" on="0"/>
        <pt x="403" y="609" on="0"/>
        <pt x="374" y="586" on="1"/>
        <pt x="341" y="559" on="0"/>
        <pt x="312" y="530" on="1"/>
      </contour>
    </TTGlyph>
    <TTGlyph name="ecircumflex" xMin="22" yMin="-13" xMax="510" yMax="801">
      <contour>
        <pt x="22" y="163" on="1"/>
        <pt x="22" y="232" on="0"/>
        <pt x="59" y="356" on="0"/>
        <pt x="131" y="450" on="0"/>
        <pt x="236" y="505" on="0"/>
        <pt x="304" y="505" on="1"/>
        <pt x="388" y="505" on="0"/>
        <pt x="462" y="437" on="0"/>
        <pt x="462" y="382" on="1"/>
        <pt x="462" y="340" on="0"/>
        <pt x="421" y="268" on="0"/>
        <pt x="346" y="214" on="0"/>
        <pt x="243" y="180" on="0"/>
        <pt x="182" y="174" on="1"/>
        <pt x="182" y="170" on="0"/>
        <pt x="181" y="157" on="0"/>
        <pt x="181" y="152" on="1"/>
        <pt x="181" y="127" on="0"/>
        <pt x="209" y="105" on="0"/>
        <pt x="230" y="105" on="1"/>
        <pt x="244" y="105" on="0"/>
        <pt x="293" y="117" on="0"/>
        <pt x="318" y="125" on="1"/>
        <pt x="347" y="134" on="0"/>
        <pt x="379" y="146" on="1"/>
        <pt x="413" y="44" on="1"/>
        <pt x="379" y="27" on="0"/>
        <pt x="343" y="15" on="1"/>
        <pt x="312" y="4" on="0"/>
        <pt x="237" y="-13" on="0"/>
        <pt x="201" y="-13" on="1"/>
        <pt x="150" y="-13" on="0"/>
        <pt x="82" y="17" on="0"/>
        <pt x="40" y="67" on="0"/>
        <pt x="22" y="130" on="0"/>
      </contour>
      <contour>
        <pt x="280" y="389" on="1"/>
        <pt x="254" y="389" on="0"/>
        <pt x="210" y="330" on="0"/>
        <pt x="198" y="283" on="1"/>
        <pt x="252" y="290" on="0"/>
        <pt x="309" y="339" on="0"/>
        <pt x="309" y="362" on="1"/>
        <pt x="309" y="389" on="0"/>
      </contour>
      <contour>
        <pt x="137" y="604" on="1"/>
        <pt x="175" y="643" on="0"/>
        <pt x="214" y="680" on="1"/>
        <pt x="247" y="712" on="0"/>
        <pt x="324" y="778" on="0"/>
        <pt x="359" y="801" on="1"/>
        <pt x="384" y="763" on="0"/>
        <pt x="438" y="693" on="0"/>
        <pt x="460" y="665" on="1"/>
        <pt x="486" y="632" on="0"/>
        <pt x="510" y="604" on="1"/>
        <pt x="437" y="538" on="1"/>
        <pt x="419" y="548" on="0"/>
        <pt x="401" y="562" on="1"/>
        <pt x="385" y="574" on="0"/>
        <pt x="346" y="608" on="0"/>
        <pt x="326" y="630" on="1"/>
        <pt x="303" y="612" on="0"/>
        <pt x="261" y="579" on="0"/>
        <pt x="245" y="566" on="1"/>
        <pt x="227" y="551" on="0"/>
        <pt x="210" y="538" on="1"/>
      </contour>
    </TTGlyph>
    <TTGlyph name="edieresis" xMin="22" yMin="-13" xMax="519" yMax="724">
      <contour>
        <pt x="22" y="163" on="1"/>
        <pt x="22" y="232" on="0"/>
        <pt x="59" y="356" on="0"/>
        <pt x="131" y="450" on="0"/>
        <pt x="236" y="505" on="0"/>
        <pt x="304" y="505" on="1"/>
        <pt x="388" y="505" on="0"/>
        <pt x="462" y="437" on="0"/>
        <pt x="462" y="382" on="1"/>
        <pt x="462" y="340" on="0"/>
        <pt x="421" y="268" on="0"/>
        <pt x="346" y="214" on="0"/>
        <pt x="243" y="180" on="0"/>
        <pt x="182" y="174" on="1"/>
        <pt x="182" y="170" on="0"/>
        <pt x="181" y="157" on="0"/>
        <pt x="181" y="152" on="1"/>
        <pt x="181" y="127" on="0"/>
        <pt x="209" y="105" on="0"/>
        <pt x="230" y="105" on="1"/>
        <pt x="244" y="105" on="0"/>
        <pt x="293" y="117" on="0"/>
        <pt x="318" y="125" on="1"/>
        <pt x="347" y="134" on="0"/>
        <pt x="379" y="146" on="1"/>
        <pt x="413" y="44" on="1"/>
        <pt x="379" y="27" on="0"/>
        <pt x="343" y="15" on="1"/>
        <pt x="312" y="4" on="0"/>
        <pt x="237" y="-13" on="0"/>
        <pt x="201" y="-13" on="1"/>
        <pt x="150" y="-13" on="0"/>
        <pt x="82" y="17" on="0"/>
        <pt x="40" y="67" on="0"/>
        <pt x="22" y="130" on="0"/>
      </contour>
      <contour>
        <pt x="280" y="389" on="1"/>
        <pt x="254" y="389" on="0"/>
        <pt x="210" y="330" on="0"/>
        <pt x="198" y="283" on="1"/>
        <pt x="252" y="290" on="0"/>
        <pt x="309" y="339" on="0"/>
        <pt x="309" y="362" on="1"/>
        <pt x="309" y="389" on="0"/>
      </contour>
      <contour>
        <pt x="227" y="724" on="1"/>
        <pt x="265" y="724" on="0"/>
        <pt x="302" y="686" on="0"/>
        <pt x="302" y="652" on="1"/>
        <pt x="302" y="620" on="0"/>
        <pt x="256" y="572" on="0"/>
        <pt x="217" y="572" on="1"/>
        <pt x="179" y="572" on="0"/>
        <pt x="143" y="611" on="0"/>
        <pt x="143" y="642" on="1"/>
        <pt x="143" y="676" on="0"/>
        <pt x="187" y="724" on="0"/>
      </contour>
      <contour>
        <pt x="444" y="724" on="1"/>
        <pt x="482" y="724" on="0"/>
        <pt x="519" y="686" on="0"/>
        <pt x="519" y="652" on="1"/>
        <pt x="519" y="620" on="0"/>
        <pt x="474" y="572" on="0"/>
        <pt x="434" y="572" on="1"/>
        <pt x="396" y="572" on="0"/>
        <pt x="361" y="611" on="0"/>
        <pt x="361" y="642" on="1"/>
        <pt x="361" y="676" on="0"/>
        <pt x="405" y="724" on="0"/>
      </contour>
    </TTGlyph>
    <TTGlyph name="egrave" xMin="22" yMin="-13" xMax="462" yMax="793">
      <contour>
        <pt x="22" y="163" on="1"/>
        <pt x="22" y="232" on="0"/>
        <pt x="59" y="356" on="0"/>
        <pt x="131" y="450" on="0"/>
        <pt x="236" y="505" on="0"/>
        <pt x="304" y="505" on="1"/>
        <pt x="388" y="505" on="0"/>
        <pt x="462" y="437" on="0"/>
        <pt x="462" y="382" on="1"/>
        <pt x="462" y="340" on="0"/>
        <pt x="421" y="268" on="0"/>
        <pt x="346" y="214" on="0"/>
        <pt x="243" y="180" on="0"/>
        <pt x="182" y="174" on="1"/>
        <pt x="182" y="170" on="0"/>
        <pt x="181" y="157" on="0"/>
        <pt x="181" y="152" on="1"/>
        <pt x="181" y="127" on="0"/>
        <pt x="209" y="105" on="0"/>
        <pt x="230" y="105" on="1"/>
        <pt x="244" y="105" on="0"/>
        <pt x="293" y="117" on="0"/>
        <pt x="318" y="125" on="1"/>
        <pt x="347" y="134" on="0"/>
        <pt x="379" y="146" on="1"/>
        <pt x="413" y="44" on="1"/>
        <pt x="379" y="27" on="0"/>
        <pt x="343" y="15" on="1"/>
        <pt x="312" y="4" on="0"/>
        <pt x="237" y="-13" on="0"/>
        <pt x="201" y="-13" on="1"/>
        <pt x="150" y="-13" on="0"/>
        <pt x="82" y="17" on="0"/>
        <pt x="40" y="67" on="0"/>
        <pt x="22" y="130" on="0"/>
      </contour>
      <contour>
        <pt x="280" y="389" on="1"/>
        <pt x="254" y="389" on="0"/>
        <pt x="210" y="330" on="0"/>
        <pt x="198" y="283" on="1"/>
        <pt x="252" y="290" on="0"/>
        <pt x="309" y="339" on="0"/>
        <pt x="309" y="362" on="1"/>
        <pt x="309" y="389" on="0"/>
      </contour>
      <contour>
        <pt x="307" y="530" on="1"/>
        <pt x="272" y="551" on="0"/>
        <pt x="239" y="578" on="1"/>
        <pt x="211" y="601" on="0"/>
        <pt x="150" y="666" on="0"/>
        <pt x="130" y="708" on="1"/>
        <pt x="140" y="723" on="0"/>
        <pt x="156" y="738" on="1"/>
        <pt x="170" y="751" on="0"/>
        <pt x="212" y="780" on="0"/>
        <pt x="243" y="793" on="1"/>
        <pt x="262" y="750" on="0"/>
        <pt x="310" y="678" on="0"/>
        <pt x="331" y="652" on="1"/>
        <pt x="356" y="621" on="0"/>
        <pt x="380" y="596" on="1"/>
      </contour>
    </TTGlyph>
    <TTGlyph name="eight" xMin="9" yMin="-16" xMax="489" yMax="637">
      <contour>
        <pt x="196" y="-16" on="1"/>
        <pt x="157" y="-16" on="0"/>
        <pt x="89" y="0" on="0"/>
        <pt x="38" y="35" on="0"/>
        <pt x="9" y="90" on="0"/>
        <pt x="9" y="129" on="1"/>
        <pt x="9" y="168" on="0"/>
        <pt x="35" y="228" on="0"/>
        <pt x="76" y="276" on="0"/>
        <pt x="129" y="314" on="0"/>
        <pt x="156" y="329" on="1"/>
        <pt x="126" y="350" on="0"/>
        <pt x="81" y="407" on="0"/>
        <pt x="81" y="454" on="1"/>
        <pt x="81" y="495" on="0"/>
        <pt x="119" y="563" on="0"/>
        <pt x="184" y="611" on="0"/>
        <pt x="272" y="637" on="0"/>
        <pt x="323" y="637" on="1"/>
        <pt x="359" y="637" on="0"/>
        <pt x="419" y="620" on="0"/>
        <pt x="464" y="587" on="0"/>
        <pt x="489" y="539" on="0"/>
        <pt x="489" y="508" on="1"/>
        <pt x="489" y="473" on="0"/>
        <pt x="468" y="421" on="0"/>
        <pt x="433" y="380" on="0"/>
        <pt x="388" y="348" on="0"/>
        <pt x="363" y="334" on="1"/>
        <pt x="402" y="308" on="0"/>
        <pt x="451" y="231" on="0"/>
        <pt x="451" y="190" on="1"/>
        <pt x="451" y="139" on="0"/>
        <pt x="406" y="61" on="0"/>
        <pt x="334" y="10" on="0"/>
        <pt x="242" y="-16" on="0"/>
      </contour>
      <contour>
        <pt x="167" y="149" on="1"/>
        <pt x="167" y="136" on="0"/>
        <pt x="178" y="118" on="0"/>
        <pt x="195" y="107" on="0"/>
        <pt x="213" y="102" on="0"/>
        <pt x="220" y="102" on="1"/>
        <pt x="246" y="102" on="0"/>
        <pt x="289" y="141" on="0"/>
        <pt x="289" y="174" on="1"/>
        <pt x="289" y="191" on="0"/>
        <pt x="267" y="234" on="0"/>
        <pt x="248" y="254" on="1"/>
        <pt x="216" y="234" on="0"/>
        <pt x="167" y="183" on="0"/>
      </contour>
      <contour>
        <pt x="330" y="487" on="1"/>
        <pt x="330" y="503" on="0"/>
        <pt x="311" y="524" on="0"/>
        <pt x="294" y="524" on="1"/>
        <pt x="268" y="524" on="0"/>
        <pt x="239" y="487" on="0"/>
        <pt x="239" y="459" on="1"/>
        <pt x="239" y="442" on="0"/>
        <pt x="256" y="417" on="0"/>
        <pt x="268" y="406" on="1"/>
        <pt x="300" y="425" on="0"/>
        <pt x="330" y="467" on="0"/>
      </contour>
    </TTGlyph>
    <TTGlyph name="emdash" xMin="-24" yMin="260" xMax="670" yMax="377">
      <contour>
        <pt x="-1" y="377" on="1"/>
        <pt x="670" y="377" on="1"/>
        <pt x="649" y="260" on="1"/>
        <pt x="-24" y="260" on="1"/>
      </contour>
    </TTGlyph>
    <TTGlyph name="endash" xMin="-24" yMin="260" xMax="487" yMax="377">
      <contour>
        <pt x="-1" y="377" on="1"/>
        <pt x="487" y="377" on="1"/>
        <pt x="466" y="260" on="1"/>
        <pt x="-24" y="260" on="1"/>
      </contour>
    </TTGlyph>
    <TTGlyph name="equal" xMin="61" yMin="194" xMax="473" yMax="404">
      <contour>
        <pt x="99" y="404" on="1"/>
        <pt x="473" y="404" on="1"/>
        <pt x="451" y="282" on="1"/>
        <pt x="76" y="282" on="1"/>
      </contour>
      <contour>
        <pt x="83" y="316" on="1"/>
        <pt x="458" y="316" on="1"/>
        <pt x="435" y="194" on="1"/>
        <pt x="61" y="194" on="1"/>
      </contour>
    </TTGlyph>
    <TTGlyph name="eth" xMin="22" yMin="-13" xMax="523" yMax="726">
      <contour>
        <pt x="485" y="373" on="1"/>
        <pt x="485" y="303" on="0"/>
        <pt x="458" y="165" on="0"/>
        <pt x="392" y="55" on="0"/>
        <pt x="283" y="-13" on="0"/>
        <pt x="201" y="-13" on="1"/>
        <pt x="150" y="-13" on="0"/>
        <pt x="82" y="17" on="0"/>
        <pt x="40" y="67" on="0"/>
        <pt x="22" y="130" on="0"/>
        <pt x="22" y="163" on="1"/>
        <pt x="22" y="232" on="0"/>
        <pt x="59" y="356" on="0"/>
        <pt x="128" y="450" on="0"/>
        <pt x="227" y="505" on="0"/>
        <pt x="289" y="505" on="1"/>
        <pt x="303" y="505" on="0"/>
        <pt x="336" y="495" on="0"/>
        <pt x="353" y="484" on="1"/>
        <pt x="347" y="496" on="0"/>
        <pt x="331" y="524" on="0"/>
        <pt x="320" y="538" on="1"/>
        <pt x="226" y="509" on="1"/>
        <pt x="199" y="599" on="1"/>
        <pt x="260" y="616" on="1"/>
        <pt x="234" y="646" on="1"/>
        <pt x="330" y="726" on="1"/>
        <pt x="347" y="712" on="0"/>
        <pt x="384" y="677" on="0"/>
        <pt x="399" y="657" on="1"/>
        <pt x="498" y="685" on="1"/>
        <pt x="523" y="593" on="1"/>
        <pt x="447" y="574" on="1"/>
        <pt x="465" y="533" on="0"/>
        <pt x="485" y="432" on="0"/>
      </contour>
      <contour>
        <pt x="283" y="393" on="1"/>
        <pt x="259" y="393" on="0"/>
        <pt x="221" y="346" on="0"/>
        <pt x="196" y="275" on="0"/>
        <pt x="183" y="192" on="0"/>
        <pt x="183" y="156" on="1"/>
        <pt x="183" y="126" on="0"/>
        <pt x="204" y="99" on="0"/>
        <pt x="222" y="99" on="1"/>
        <pt x="246" y="99" on="0"/>
        <pt x="283" y="146" on="0"/>
        <pt x="308" y="217" on="0"/>
        <pt x="321" y="299" on="0"/>
        <pt x="321" y="334" on="1"/>
        <pt x="321" y="365" on="0"/>
        <pt x="300" y="393" on="0"/>
      </contour>
    </TTGlyph>
    <TTGlyph name="exclam" xMin="21" yMin="-13" xMax="322" yMax="669">
      <contour>
        <pt x="155" y="669" on="1"/>
        <pt x="322" y="669" on="1"/>
        <pt x="210" y="221" on="1"/>
        <pt x="71" y="221" on="1"/>
      </contour>
      <contour>
        <pt x="121" y="170" on="1"/>
        <pt x="167" y="170" on="0"/>
        <pt x="211" y="125" on="0"/>
        <pt x="211" y="85" on="1"/>
        <pt x="211" y="45" on="0"/>
        <pt x="157" y="-13" on="0"/>
        <pt x="110" y="-13" on="1"/>
        <pt x="64" y="-13" on="0"/>
        <pt x="21" y="34" on="0"/>
        <pt x="21" y="72" on="1"/>
        <pt x="21" y="112" on="0"/>
        <pt x="74" y="170" on="0"/>
      </contour>
    </TTGlyph>
    <TTGlyph name="exclamdown" xMin="-23" yMin="-182" xMax="279" yMax="499">
      <contour>
        <pt x="144" y="-182" on="1"/>
        <pt x="-23" y="-182" on="1"/>
        <pt x="90" y="266" on="1"/>
        <pt x="229" y="266" on="1"/>
      </contour>
      <contour>
        <pt x="179" y="317" on="1"/>
        <pt x="133" y="317" on="0"/>
        <pt x="88" y="362" on="0"/>
        <pt x="88" y="402" on="1"/>
        <pt x="88" y="441" on="0"/>
        <pt x="143" y="499" on="0"/>
        <pt x="190" y="499" on="1"/>
        <pt x="236" y="499" on="0"/>
        <pt x="279" y="452" on="0"/>
        <pt x="279" y="415" on="1"/>
        <pt x="279" y="375" on="0"/>
        <pt x="226" y="317" on="0"/>
      </contour>
    </TTGlyph>
    <TTGlyph name="f" xMin="-108" yMin="-222" xMax="445" yMax="722">
      <contour>
        <pt x="322" y="560" on="1"/>
        <pt x="317" y="577" on="0"/>
        <pt x="304" y="606" on="0"/>
        <pt x="290" y="606" on="1"/>
        <pt x="274" y="606" on="0"/>
        <pt x="253" y="585" on="0"/>
        <pt x="253" y="560" on="1"/>
        <pt x="253" y="529" on="0"/>
        <pt x="262" y="490" on="1"/>
        <pt x="377" y="490" on="1"/>
        <pt x="357" y="374" on="1"/>
        <pt x="254" y="374" on="1"/>
        <pt x="188" y="39" on="1"/>
        <pt x="177" y="-13" on="0"/>
        <pt x="138" y="-90" on="0"/>
        <pt x="78" y="-150" on="0"/>
        <pt x="-1" y="-199" on="0"/>
        <pt x="-51" y="-222" on="1"/>
        <pt x="-108" y="-114" on="1"/>
        <pt x="-44" y="-84" on="0"/>
        <pt x="25" y="-16" on="0"/>
        <pt x="36" y="37" on="1"/>
        <pt x="101" y="374" on="1"/>
        <pt x="26" y="374" on="1"/>
        <pt x="26" y="490" on="1"/>
        <pt x="128" y="490" on="1"/>
        <pt x="117" y="508" on="0"/>
        <pt x="106" y="559" on="0"/>
        <pt x="106" y="574" on="1"/>
        <pt x="106" y="613" on="0"/>
        <pt x="136" y="669" on="0"/>
        <pt x="188" y="705" on="0"/>
        <pt x="258" y="722" on="0"/>
        <pt x="298" y="722" on="1"/>
        <pt x="364" y="722" on="0"/>
        <pt x="431" y="667" on="0"/>
        <pt x="445" y="615" on="1"/>
      </contour>
    </TTGlyph>
    <TTGlyph name="five" xMin="-25" yMin="-6" xMax="483" yMax="626">
      <contour>
        <pt x="181" y="115" on="1"/>
        <pt x="223" y="115" on="0"/>
        <pt x="275" y="160" on="0"/>
        <pt x="275" y="212" on="1"/>
        <pt x="275" y="295" on="0"/>
        <pt x="212" y="295" on="1"/>
        <pt x="187" y="295" on="0"/>
        <pt x="133" y="284" on="0"/>
        <pt x="98" y="270" on="1"/>
        <pt x="48" y="315" on="1"/>
        <pt x="141" y="626" on="1"/>
        <pt x="483" y="626" on="1"/>
        <pt x="458" y="500" on="1"/>
        <pt x="255" y="500" on="1"/>
        <pt x="224" y="402" on="1"/>
        <pt x="260" y="413" on="0"/>
        <pt x="290" y="413" on="1"/>
        <pt x="326" y="413" on="0"/>
        <pt x="383" y="387" on="0"/>
        <pt x="424" y="342" on="0"/>
        <pt x="445" y="280" on="0"/>
        <pt x="445" y="244" on="1"/>
        <pt x="445" y="117" on="0"/>
        <pt x="307" y="-6" on="0"/>
        <pt x="182" y="-6" on="1"/>
        <pt x="129" y="-6" on="0"/>
        <pt x="29" y="18" on="0"/>
        <pt x="-25" y="51" on="1"/>
        <pt x="31" y="167" on="1"/>
        <pt x="75" y="142" on="0"/>
        <pt x="142" y="115" on="0"/>
      </contour>
    </TTGlyph>
    <TTGlyph name="four" xMin="-4" yMin="0" xMax="501" yMax="631">
      <contour>
        <pt x="462" y="450" on="1"/>
        <pt x="429" y="282" on="1"/>
        <pt x="501" y="282" on="1"/>
        <pt x="477" y="160" on="1"/>
        <pt x="405" y="160" on="1"/>
        <pt x="374" y="0" on="1"/>
        <pt x="216" y="0" on="1"/>
        <pt x="246" y="160" on="1"/>
        <pt x="-4" y="160" on="1"/>
        <pt x="-4" y="240" on="1"/>
        <pt x="243" y="631" on="1"/>
        <pt x="399" y="631" on="1"/>
        <pt x="175" y="282" on="1"/>
        <pt x="270" y="282" on="1"/>
        <pt x="298" y="422" on="1"/>
      </contour>
    </TTGlyph>
    <TTGlyph name="fraction" xMin="-73" yMin="0" xMax="452" yMax="587">
      <contour>
        <pt x="302" y="587" on="1"/>
        <pt x="452" y="587" on="1"/>
        <pt x="76" y="0" on="1"/>
        <pt x="-73" y="0" on="1"/>
      </contour>
    </TTGlyph>
    <TTGlyph name="g" xMin="24" yMin="-222" xMax="512" yMax="502">
      <contour>
        <pt x="512" y="473" on="1"/>
        <pt x="497" y="398" on="0"/>
        <pt x="476" y="292" on="0"/>
        <pt x="462" y="218" on="0"/>
        <pt x="456" y="172" on="0"/>
        <pt x="456" y="156" on="1"/>
        <pt x="456" y="130" on="0"/>
        <pt x="461" y="86" on="0"/>
        <pt x="467" y="44" on="0"/>
        <pt x="472" y="0" on="0"/>
        <pt x="472" y="-27" on="1"/>
        <pt x="472" y="-126" on="0"/>
        <pt x="357" y="-222" on="0"/>
        <pt x="260" y="-222" on="1"/>
        <pt x="219" y="-222" on="0"/>
        <pt x="149" y="-209" on="0"/>
        <pt x="89" y="-191" on="0"/>
        <pt x="41" y="-170" on="0"/>
        <pt x="24" y="-162" on="1"/>
        <pt x="80" y="-43" on="1"/>
        <pt x="98" y="-51" on="0"/>
        <pt x="141" y="-67" on="0"/>
        <pt x="186" y="-80" on="0"/>
        <pt x="231" y="-89" on="0"/>
        <pt x="251" y="-89" on="1"/>
        <pt x="293" y="-89" on="0"/>
        <pt x="333" y="-42" on="0"/>
        <pt x="333" y="-12" on="1"/>
        <pt x="333" y="7" on="0"/>
        <pt x="332" y="34" on="0"/>
        <pt x="332" y="62" on="1"/>
        <pt x="332" y="79" on="0"/>
        <pt x="338" y="124" on="0"/>
        <pt x="340" y="147" on="1"/>
        <pt x="327" y="118" on="1"/>
        <pt x="295" y="49" on="0"/>
        <pt x="214" y="-9" on="0"/>
        <pt x="167" y="-9" on="1"/>
        <pt x="129" y="-9" on="0"/>
        <pt x="78" y="22" on="0"/>
        <pt x="45" y="71" on="0"/>
        <pt x="31" y="132" on="0"/>
        <pt x="31" y="163" on="1"/>
        <pt x="31" y="235" on="0"/>
        <pt x="68" y="358" on="0"/>
        <pt x="141" y="450" on="0"/>
        <pt x="248" y="502" on="0"/>
        <pt x="317" y="502" on="1"/>
        <pt x="355" y="502" on="0"/>
        <pt x="408" y="489" on="0"/>
        <pt x="432" y="478" on="1"/>
      </contour>
      <contour>
        <pt x="216" y="109" on="1"/>
        <pt x="231" y="109" on="0"/>
        <pt x="265" y="154" on="0"/>
        <pt x="296" y="224" on="0"/>
        <pt x="324" y="310" on="0"/>
        <pt x="333" y="351" on="1"/>
        <pt x="340" y="383" on="1"/>
        <pt x="333" y="385" on="0"/>
        <pt x="320" y="387" on="0"/>
        <pt x="311" y="387" on="1"/>
        <pt x="276" y="387" on="0"/>
        <pt x="230" y="336" on="0"/>
        <pt x="203" y="264" on="0"/>
        <pt x="192" y="186" on="0"/>
        <pt x="192" y="160" on="1"/>
        <pt x="192" y="139" on="0"/>
        <pt x="201" y="109" on="0"/>
      </contour>
    </TTGlyph>
    <TTGlyph name="germandbls" xMin="-123" yMin="-223" xMax="578" yMax="725">
      <contour>
        <pt x="103" y="479" on="1"/>
        <pt x="113" y="533" on="0"/>
        <pt x="157" y="624" on="0"/>
        <pt x="230" y="689" on="0"/>
        <pt x="335" y="725" on="0"/>
        <pt x="408" y="725" on="1"/>
        <pt x="455" y="725" on="0"/>
        <pt x="520" y="706" on="0"/>
        <pt x="560" y="673" on="0"/>
        <pt x="578" y="628" on="0"/>
        <pt x="578" y="603" on="1"/>
        <pt x="578" y="570" on="0"/>
        <pt x="557" y="521" on="0"/>
        <pt x="525" y="484" on="0"/>
        <pt x="488" y="456" on="0"/>
        <pt x="456" y="431" on="0"/>
        <pt x="435" y="405" on="0"/>
        <pt x="435" y="389" on="1"/>
        <pt x="435" y="365" on="0"/>
        <pt x="470" y="328" on="0"/>
        <pt x="511" y="287" on="0"/>
        <pt x="546" y="232" on="0"/>
        <pt x="546" y="189" on="1"/>
        <pt x="546" y="149" on="0"/>
        <pt x="515" y="78" on="0"/>
        <pt x="459" y="24" on="0"/>
        <pt x="381" y="-7" on="0"/>
        <pt x="334" y="-7" on="1"/>
        <pt x="301" y="-7" on="0"/>
        <pt x="227" y="8" on="0"/>
        <pt x="199" y="28" on="1"/>
        <pt x="254" y="133" on="1"/>
        <pt x="273" y="121" on="0"/>
        <pt x="306" y="113" on="0"/>
        <pt x="320" y="113" on="1"/>
        <pt x="351" y="113" on="0"/>
        <pt x="383" y="141" on="0"/>
        <pt x="383" y="167" on="1"/>
        <pt x="383" y="193" on="0"/>
        <pt x="350" y="228" on="0"/>
        <pt x="311" y="265" on="0"/>
        <pt x="279" y="314" on="0"/>
        <pt x="279" y="354" on="1"/>
        <pt x="279" y="387" on="0"/>
        <pt x="300" y="436" on="0"/>
        <pt x="331" y="473" on="0"/>
        <pt x="367" y="501" on="0"/>
        <pt x="398" y="526" on="0"/>
        <pt x="419" y="551" on="0"/>
        <pt x="419" y="567" on="1"/>
        <pt x="419" y="585" on="0"/>
        <pt x="393" y="604" on="0"/>
        <pt x="370" y="604" on="1"/>
        <pt x="324" y="604" on="0"/>
        <pt x="274" y="547" on="0"/>
        <pt x="263" y="493" on="1"/>
        <pt x="178" y="50" on="1"/>
        <pt x="167" y="-8" on="0"/>
        <pt x="122" y="-91" on="0"/>
        <pt x="59" y="-153" on="0"/>
        <pt x="-21" y="-200" on="0"/>
        <pt x="-67" y="-223" on="1"/>
        <pt x="-123" y="-115" on="1"/>
        <pt x="-90" y="-100" on="0"/>
        <pt x="-42" y="-69" on="0"/>
        <pt x="-7" y="-31" on="0"/>
        <pt x="15" y="17" on="0"/>
        <pt x="21" y="48" on="1"/>
      </contour>
    </TTGlyph>
    <TTGlyph name="grave" xMin="130" yMin="526" xMax="380" yMax="789">
      <contour>
        <pt x="307" y="526" on="1"/>
        <pt x="272" y="547" on="0"/>
        <pt x="239" y="574" on="1"/>
        <pt x="211" y="597" on="0"/>
        <pt x="150" y="662" on="0"/>
        <pt x="130" y="704" on="1"/>
        <pt x="140" y="719" on="0"/>
        <pt x="156" y="734" on="1"/>
        <pt x="170" y="747" on="0"/>
        <pt x="212" y="776" on="0"/>
        <pt x="243" y="789" on="1"/>
        <pt x="262" y="746" on="0"/>
        <pt x="310" y="674" on="0"/>
        <pt x="331" y="648" on="1"/>
        <pt x="356" y="617" on="0"/>
        <pt x="380" y="592" on="1"/>
      </contour>
    </TTGlyph>
    <TTGlyph name="graveUC" xMin="161" yMin="525" xMax="431" yMax="765">
      <contour>
        <pt x="376" y="525" on="1"/>
        <pt x="338" y="537" on="0"/>
        <pt x="299" y="555" on="1"/>
        <pt x="266" y="571" on="0"/>
        <pt x="191" y="620" on="0"/>
        <pt x="161" y="655" on="1"/>
        <pt x="167" y="672" on="0"/>
        <pt x="179" y="690" on="1"/>
        <pt x="190" y="706" on="0"/>
        <pt x="224" y="745" on="0"/>
        <pt x="251" y="765" on="1"/>
        <pt x="280" y="727" on="0"/>
        <pt x="342" y="668" on="0"/>
        <pt x="369" y="648" on="1"/>
        <pt x="400" y="624" on="0"/>
        <pt x="431" y="606" on="1"/>
      </contour>
    </TTGlyph>
    <TTGlyph name="gravedotlessi" xMin="219" yMin="526" xMax="446" yMax="789">
      <contour>
        <pt x="364" y="526" on="1"/>
        <pt x="339" y="552" on="0"/>
        <pt x="313" y="583" on="1"/>
        <pt x="291" y="609" on="0"/>
        <pt x="241" y="679" on="0"/>
        <pt x="219" y="721" on="1"/>
        <pt x="234" y="733" on="0"/>
        <pt x="253" y="745" on="1"/>
        <pt x="270" y="756" on="0"/>
        <pt x="315" y="778" on="0"/>
        <pt x="343" y="789" on="1"/>
        <pt x="360" y="748" on="0"/>
        <pt x="396" y="673" on="0"/>
        <pt x="411" y="644" on="1"/>
        <pt x="429" y="610" on="0"/>
        <pt x="446" y="581" on="1"/>
      </contour>
    </TTGlyph>
    <TTGlyph name="greater" xMin="17" yMin="73" xMax="438" yMax="510">
      <contour>
        <pt x="123" y="510" on="1"/>
        <pt x="438" y="337" on="1"/>
        <pt x="438" y="244" on="1"/>
        <pt x="63" y="73" on="1"/>
        <pt x="17" y="193" on="1"/>
        <pt x="205" y="269" on="1"/>
        <pt x="215" y="274" on="0"/>
        <pt x="246" y="285" on="0"/>
        <pt x="257" y="288" on="1"/>
        <pt x="247" y="291" on="0"/>
        <pt x="216" y="304" on="0"/>
        <pt x="207" y="309" on="1"/>
        <pt x="51" y="388" on="1"/>
      </contour>
    </TTGlyph>
    <TTGlyph name="guillemotleft" xMin="35" yMin="15" xMax="612" yMax="472">
      <contour>
        <pt x="227" y="15" on="1"/>
        <pt x="189" y="52" on="0"/>
        <pt x="154" y="92" on="1"/>
        <pt x="124" y="126" on="0"/>
        <pt x="58" y="207" on="0"/>
        <pt x="35" y="245" on="1"/>
        <pt x="70" y="283" on="0"/>
        <pt x="148" y="355" on="0"/>
        <pt x="219" y="415" on="0"/>
        <pt x="276" y="460" on="0"/>
        <pt x="291" y="472" on="1"/>
        <pt x="356" y="392" on="1"/>
        <pt x="207" y="245" on="1"/>
        <pt x="219" y="227" on="0"/>
        <pt x="246" y="183" on="0"/>
        <pt x="274" y="139" on="0"/>
        <pt x="300" y="97" on="0"/>
        <pt x="310" y="80" on="1"/>
      </contour>
      <contour>
        <pt x="483" y="15" on="1"/>
        <pt x="445" y="52" on="0"/>
        <pt x="410" y="92" on="1"/>
        <pt x="380" y="126" on="0"/>
        <pt x="314" y="207" on="0"/>
        <pt x="291" y="245" on="1"/>
        <pt x="326" y="283" on="0"/>
        <pt x="404" y="355" on="0"/>
        <pt x="475" y="415" on="0"/>
        <pt x="532" y="460" on="0"/>
        <pt x="547" y="472" on="1"/>
        <pt x="612" y="392" on="1"/>
        <pt x="463" y="245" on="1"/>
        <pt x="474" y="227" on="0"/>
        <pt x="502" y="183" on="0"/>
        <pt x="530" y="139" on="0"/>
        <pt x="556" y="97" on="0"/>
        <pt x="566" y="80" on="1"/>
      </contour>
    </TTGlyph>
    <TTGlyph name="guillemotright" xMin="9" yMin="15" xMax="586" yMax="472">
      <contour>
        <pt x="393" y="472" on="1"/>
        <pt x="430" y="434" on="0"/>
        <pt x="466" y="394" on="1"/>
        <pt x="496" y="360" on="0"/>
        <pt x="563" y="280" on="0"/>
        <pt x="586" y="242" on="1"/>
        <pt x="551" y="204" on="0"/>
        <pt x="473" y="132" on="0"/>
        <pt x="402" y="72" on="0"/>
        <pt x="344" y="27" on="0"/>
        <pt x="329" y="15" on="1"/>
        <pt x="264" y="95" on="1"/>
        <pt x="413" y="242" on="1"/>
        <pt x="402" y="260" on="0"/>
        <pt x="375" y="303" on="0"/>
        <pt x="347" y="347" on="0"/>
        <pt x="321" y="390" on="0"/>
        <pt x="311" y="407" on="1"/>
      </contour>
      <contour>
        <pt x="138" y="472" on="1"/>
        <pt x="176" y="434" on="0"/>
        <pt x="211" y="394" on="1"/>
        <pt x="241" y="360" on="0"/>
        <pt x="307" y="280" on="0"/>
        <pt x="330" y="242" on="1"/>
        <pt x="295" y="204" on="0"/>
        <pt x="217" y="132" on="0"/>
        <pt x="146" y="72" on="0"/>
        <pt x="89" y="27" on="0"/>
        <pt x="74" y="15" on="1"/>
        <pt x="9" y="95" on="1"/>
        <pt x="157" y="242" on="1"/>
        <pt x="146" y="260" on="0"/>
        <pt x="119" y="303" on="0"/>
        <pt x="91" y="347" on="0"/>
        <pt x="65" y="390" on="0"/>
        <pt x="55" y="407" on="1"/>
      </contour>
    </TTGlyph>
    <TTGlyph name="guilsinglleft" xMin="35" yMin="15" xMax="356" yMax="472">
      <contour>
        <pt x="227" y="15" on="1"/>
        <pt x="189" y="52" on="0"/>
        <pt x="154" y="92" on="1"/>
        <pt x="124" y="126" on="0"/>
        <pt x="58" y="207" on="0"/>
        <pt x="35" y="245" on="1"/>
        <pt x="70" y="283" on="0"/>
        <pt x="148" y="355" on="0"/>
        <pt x="219" y="415" on="0"/>
        <pt x="276" y="460" on="0"/>
        <pt x="291" y="472" on="1"/>
        <pt x="356" y="392" on="1"/>
        <pt x="207" y="245" on="1"/>
        <pt x="219" y="227" on="0"/>
        <pt x="246" y="183" on="0"/>
        <pt x="274" y="139" on="0"/>
        <pt x="300" y="97" on="0"/>
        <pt x="310" y="80" on="1"/>
      </contour>
    </TTGlyph>
    <TTGlyph name="guilsinglright" xMin="9" yMin="15" xMax="330" yMax="472">
      <contour>
        <pt x="138" y="472" on="1"/>
        <pt x="176" y="434" on="0"/>
        <pt x="211" y="394" on="1"/>
        <pt x="241" y="360" on="0"/>
        <pt x="307" y="280" on="0"/>
        <pt x="330" y="242" on="1"/>
        <pt x="295" y="204" on="0"/>
        <pt x="217" y="132" on="0"/>
        <pt x="146" y="72" on="0"/>
        <pt x="89" y="27" on="0"/>
        <pt x="74" y="15" on="1"/>
        <pt x="9" y="95" on="1"/>
        <pt x="157" y="242" on="1"/>
        <pt x="146" y="260" on="0"/>
        <pt x="119" y="303" on="0"/>
        <pt x="91" y="347" on="0"/>
        <pt x="65" y="390" on="0"/>
        <pt x="55" y="407" on="1"/>
      </contour>
    </TTGlyph>
    <TTGlyph name="h" xMin="17" yMin="0" xMax="510" yMax="725">
      <contour>
        <pt x="283" y="578" on="1"/>
        <pt x="274" y="527" on="0"/>
        <pt x="224" y="418" on="0"/>
        <pt x="198" y="356" on="1"/>
        <pt x="219" y="398" on="0"/>
        <pt x="261" y="454" on="0"/>
        <pt x="306" y="488" on="0"/>
        <pt x="355" y="502" on="0"/>
        <pt x="385" y="502" on="1"/>
        <pt x="451" y="502" on="0"/>
        <pt x="510" y="438" on="0"/>
        <pt x="510" y="378" on="1"/>
        <pt x="510" y="336" on="0"/>
        <pt x="491" y="262" on="0"/>
        <pt x="469" y="196" on="0"/>
        <pt x="450" y="136" on="0"/>
        <pt x="450" y="108" on="1"/>
        <pt x="450" y="90" on="0"/>
        <pt x="455" y="33" on="0"/>
        <pt x="463" y="0" on="1"/>
        <pt x="307" y="0" on="1"/>
        <pt x="302" y="30" on="0"/>
        <pt x="300" y="63" on="0"/>
        <pt x="300" y="76" on="1"/>
        <pt x="300" y="112" on="0"/>
        <pt x="317" y="181" on="0"/>
        <pt x="337" y="248" on="0"/>
        <pt x="354" y="312" on="0"/>
        <pt x="354" y="343" on="1"/>
        <pt x="354" y="357" on="0"/>
        <pt x="343" y="374" on="0"/>
        <pt x="330" y="374" on="1"/>
        <pt x="311" y="374" on="0"/>
        <pt x="272" y="334" on="0"/>
        <pt x="237" y="271" on="0"/>
        <pt x="211" y="196" on="0"/>
        <pt x="204" y="162" on="1"/>
        <pt x="172" y="0" on="1"/>
        <pt x="17" y="0" on="1"/>
        <pt x="156" y="705" on="1"/>
        <pt x="311" y="725" on="1"/>
      </contour>
    </TTGlyph>
    <TTGlyph name="hyphen" xMin="40" yMin="259" xMax="365" yMax="376">
      <contour>
        <pt x="63" y="376" on="1"/>
        <pt x="365" y="376" on="1"/>
        <pt x="343" y="259" on="1"/>
        <pt x="40" y="259" on="1"/>
      </contour>
    </TTGlyph>
    <TTGlyph name="i" xMin="27" yMin="-7" xMax="294" yMax="724">
      <contour>
        <pt x="211" y="724" on="1"/>
        <pt x="254" y="724" on="0"/>
        <pt x="294" y="681" on="0"/>
        <pt x="294" y="644" on="1"/>
        <pt x="294" y="608" on="0"/>
        <pt x="243" y="555" on="0"/>
        <pt x="200" y="555" on="1"/>
        <pt x="157" y="555" on="0"/>
        <pt x="117" y="599" on="0"/>
        <pt x="117" y="634" on="1"/>
        <pt x="117" y="670" on="0"/>
        <pt x="167" y="724" on="0"/>
      </contour>
      <contour>
        <pt x="138" y="-7" on="1"/>
        <pt x="85" y="-7" on="0"/>
        <pt x="27" y="46" on="0"/>
        <pt x="27" y="90" on="1"/>
        <pt x="27" y="97" on="0"/>
        <pt x="29" y="113" on="0"/>
        <pt x="31" y="121" on="1"/>
        <pt x="105" y="490" on="1"/>
        <pt x="258" y="490" on="1"/>
        <pt x="193" y="159" on="1"/>
        <pt x="191" y="146" on="0"/>
        <pt x="189" y="138" on="0"/>
        <pt x="189" y="133" on="1"/>
        <pt x="189" y="126" on="0"/>
        <pt x="193" y="115" on="0"/>
        <pt x="202" y="115" on="1"/>
        <pt x="207" y="115" on="0"/>
        <pt x="222" y="118" on="0"/>
        <pt x="235" y="122" on="0"/>
        <pt x="246" y="126" on="0"/>
        <pt x="247" y="126" on="1"/>
        <pt x="247" y="18" on="1"/>
        <pt x="231" y="10" on="0"/>
        <pt x="213" y="5" on="1"/>
        <pt x="198" y="0" on="0"/>
        <pt x="159" y="-7" on="0"/>
      </contour>
    </TTGlyph>
    <TTGlyph name="iacute" xMin="27" yMin="-7" xMax="351" yMax="789">
      <contour>
        <pt x="138" y="-7" on="1"/>
        <pt x="85" y="-7" on="0"/>
        <pt x="27" y="46" on="0"/>
        <pt x="27" y="90" on="1"/>
        <pt x="27" y="97" on="0"/>
        <pt x="29" y="113" on="0"/>
        <pt x="31" y="121" on="1"/>
        <pt x="105" y="490" on="1"/>
        <pt x="258" y="490" on="1"/>
        <pt x="193" y="159" on="1"/>
        <pt x="191" y="146" on="0"/>
        <pt x="189" y="138" on="0"/>
        <pt x="189" y="133" on="1"/>
        <pt x="189" y="126" on="0"/>
        <pt x="193" y="115" on="0"/>
        <pt x="202" y="115" on="1"/>
        <pt x="207" y="115" on="0"/>
        <pt x="222" y="118" on="0"/>
        <pt x="235" y="122" on="0"/>
        <pt x="246" y="126" on="0"/>
        <pt x="247" y="126" on="1"/>
        <pt x="247" y="18" on="1"/>
        <pt x="231" y="10" on="0"/>
        <pt x="213" y="5" on="1"/>
        <pt x="198" y="0" on="0"/>
        <pt x="159" y="-7" on="0"/>
      </contour>
      <contour>
        <pt x="113" y="582" on="1"/>
        <pt x="128" y="616" on="0"/>
        <pt x="148" y="651" on="1"/>
        <pt x="165" y="681" on="0"/>
        <pt x="213" y="754" on="0"/>
        <pt x="245" y="789" on="1"/>
        <pt x="262" y="779" on="0"/>
        <pt x="280" y="766" on="1"/>
        <pt x="295" y="755" on="0"/>
        <pt x="333" y="720" on="0"/>
        <pt x="351" y="698" on="1"/>
        <pt x="320" y="670" on="0"/>
        <pt x="264" y="610" on="0"/>
        <pt x="242" y="584" on="1"/>
        <pt x="216" y="554" on="0"/>
        <pt x="194" y="526" on="1"/>
      </contour>
    </TTGlyph>
    <TTGlyph name="icircumflex" xMin="27" yMin="-7" xMax="343" yMax="788">
      <contour>
        <pt x="138" y="-7" on="1"/>
        <pt x="85" y="-7" on="0"/>
        <pt x="27" y="46" on="0"/>
        <pt x="27" y="90" on="1"/>
        <pt x="27" y="97" on="0"/>
        <pt x="29" y="113" on="0"/>
        <pt x="31" y="121" on="1"/>
        <pt x="105" y="490" on="1"/>
        <pt x="258" y="490" on="1"/>
        <pt x="193" y="159" on="1"/>
        <pt x="191" y="146" on="0"/>
        <pt x="189" y="138" on="0"/>
        <pt x="189" y="133" on="1"/>
        <pt x="189" y="126" on="0"/>
        <pt x="193" y="115" on="0"/>
        <pt x="202" y="115" on="1"/>
        <pt x="207" y="115" on="0"/>
        <pt x="222" y="118" on="0"/>
        <pt x="235" y="122" on="0"/>
        <pt x="246" y="126" on="0"/>
        <pt x="247" y="126" on="1"/>
        <pt x="247" y="18" on="1"/>
        <pt x="231" y="10" on="0"/>
        <pt x="213" y="5" on="1"/>
        <pt x="198" y="0" on="0"/>
        <pt x="159" y="-7" on="0"/>
      </contour>
      <contour>
        <pt x="43" y="587" on="1"/>
        <pt x="78" y="627" on="0"/>
        <pt x="113" y="665" on="1"/>
        <pt x="143" y="697" on="0"/>
        <pt x="214" y="765" on="0"/>
        <pt x="246" y="788" on="1"/>
        <pt x="266" y="752" on="0"/>
        <pt x="302" y="678" on="0"/>
        <pt x="315" y="648" on="1"/>
        <pt x="330" y="613" on="0"/>
        <pt x="343" y="579" on="1"/>
        <pt x="261" y="524" on="1"/>
        <pt x="253" y="535" on="0"/>
        <pt x="243" y="549" on="1"/>
        <pt x="235" y="561" on="0"/>
        <pt x="213" y="594" on="0"/>
        <pt x="201" y="615" on="1"/>
        <pt x="184" y="595" on="0"/>
        <pt x="153" y="562" on="0"/>
        <pt x="142" y="550" on="1"/>
        <pt x="129" y="536" on="0"/>
        <pt x="117" y="524" on="1"/>
      </contour>
    </TTGlyph>
    <TTGlyph name="idieresis" xMin="27" yMin="-7" xMax="376" yMax="730">
      <contour>
        <pt x="138" y="-7" on="1"/>
        <pt x="85" y="-7" on="0"/>
        <pt x="27" y="46" on="0"/>
        <pt x="27" y="90" on="1"/>
        <pt x="27" y="97" on="0"/>
        <pt x="29" y="113" on="0"/>
        <pt x="31" y="121" on="1"/>
        <pt x="105" y="490" on="1"/>
        <pt x="258" y="490" on="1"/>
        <pt x="193" y="159" on="1"/>
        <pt x="191" y="146" on="0"/>
        <pt x="189" y="138" on="0"/>
        <pt x="189" y="133" on="1"/>
        <pt x="189" y="126" on="0"/>
        <pt x="193" y="115" on="0"/>
        <pt x="202" y="115" on="1"/>
        <pt x="207" y="115" on="0"/>
        <pt x="222" y="118" on="0"/>
        <pt x="235" y="122" on="0"/>
        <pt x="246" y="126" on="0"/>
        <pt x="247" y="126" on="1"/>
        <pt x="247" y="18" on="1"/>
        <pt x="231" y="10" on="0"/>
        <pt x="213" y="5" on="1"/>
        <pt x="198" y="0" on="0"/>
        <pt x="159" y="-7" on="0"/>
      </contour>
      <contour>
        <pt x="121" y="730" on="1"/>
        <pt x="159" y="730" on="0"/>
        <pt x="195" y="693" on="0"/>
        <pt x="195" y="660" on="1"/>
        <pt x="195" y="628" on="0"/>
        <pt x="149" y="580" on="0"/>
        <pt x="111" y="580" on="1"/>
        <pt x="73" y="580" on="0"/>
        <pt x="38" y="619" on="0"/>
        <pt x="38" y="650" on="1"/>
        <pt x="38" y="683" on="0"/>
        <pt x="82" y="730" on="0"/>
      </contour>
      <contour>
        <pt x="302" y="730" on="1"/>
        <pt x="340" y="730" on="0"/>
        <pt x="376" y="693" on="0"/>
        <pt x="376" y="660" on="1"/>
        <pt x="376" y="628" on="0"/>
        <pt x="331" y="580" on="0"/>
        <pt x="292" y="580" on="1"/>
        <pt x="255" y="580" on="0"/>
        <pt x="220" y="619" on="0"/>
        <pt x="220" y="650" on="1"/>
        <pt x="220" y="683" on="0"/>
        <pt x="263" y="730" on="0"/>
      </contour>
    </TTGlyph>
    <TTGlyph name="igrave" xMin="27" yMin="-7" xMax="261" yMax="789">
      <contour>
        <pt x="138" y="-7" on="1"/>
        <pt x="85" y="-7" on="0"/>
        <pt x="27" y="46" on="0"/>
        <pt x="27" y="90" on="1"/>
        <pt x="27" y="97" on="0"/>
        <pt x="29" y="113" on="0"/>
        <pt x="31" y="121" on="1"/>
        <pt x="105" y="490" on="1"/>
        <pt x="258" y="490" on="1"/>
        <pt x="193" y="159" on="1"/>
        <pt x="191" y="146" on="0"/>
        <pt x="189" y="138" on="0"/>
        <pt x="189" y="133" on="1"/>
        <pt x="189" y="126" on="0"/>
        <pt x="193" y="115" on="0"/>
        <pt x="202" y="115" on="1"/>
        <pt x="207" y="115" on="0"/>
        <pt x="222" y="118" on="0"/>
        <pt x="235" y="122" on="0"/>
        <pt x="246" y="126" on="0"/>
        <pt x="247" y="126" on="1"/>
        <pt x="247" y="18" on="1"/>
        <pt x="231" y="10" on="0"/>
        <pt x="213" y="5" on="1"/>
        <pt x="198" y="0" on="0"/>
        <pt x="159" y="-7" on="0"/>
      </contour>
      <contour>
        <pt x="180" y="526" on="1"/>
        <pt x="155" y="552" on="0"/>
        <pt x="129" y="583" on="1"/>
        <pt x="107" y="609" on="0"/>
        <pt x="57" y="679" on="0"/>
        <pt x="35" y="721" on="1"/>
        <pt x="50" y="733" on="0"/>
        <pt x="69" y="745" on="1"/>
        <pt x="86" y="756" on="0"/>
        <pt x="130" y="778" on="0"/>
        <pt x="158" y="789" on="1"/>
        <pt x="175" y="748" on="0"/>
        <pt x="211" y="673" on="0"/>
        <pt x="226" y="644" on="1"/>
        <pt x="244" y="610" on="0"/>
        <pt x="261" y="581" on="1"/>
      </contour>
    </TTGlyph>
    <TTGlyph name="j" xMin="-138" yMin="-223" xMax="287" yMax="724">
      <contour>
        <pt x="247" y="490" on="1"/>
        <pt x="158" y="39" on="1"/>
        <pt x="146" y="-18" on="0"/>
        <pt x="108" y="-95" on="0"/>
        <pt x="51" y="-152" on="0"/>
        <pt x="-29" y="-197" on="0"/>
        <pt x="-82" y="-223" on="1"/>
        <pt x="-138" y="-115" on="1"/>
        <pt x="-104" y="-100" on="0"/>
        <pt x="-55" y="-70" on="0"/>
        <pt x="-21" y="-32" on="0"/>
        <pt x="1" y="14" on="0"/>
        <pt x="7" y="46" on="1"/>
        <pt x="95" y="490" on="1"/>
      </contour>
      <contour>
        <pt x="203" y="724" on="1"/>
        <pt x="247" y="724" on="0"/>
        <pt x="287" y="681" on="0"/>
        <pt x="287" y="644" on="1"/>
        <pt x="287" y="608" on="0"/>
        <pt x="236" y="555" on="0"/>
        <pt x="193" y="555" on="1"/>
        <pt x="150" y="555" on="0"/>
        <pt x="110" y="599" on="0"/>
        <pt x="110" y="634" on="1"/>
        <pt x="110" y="670" on="0"/>
        <pt x="159" y="724" on="0"/>
      </contour>
    </TTGlyph>
    <TTGlyph name="k" xMin="17" yMin="-99" xMax="563" yMax="725">
      <contour>
        <pt x="171" y="0" on="1"/>
        <pt x="17" y="0" on="1"/>
        <pt x="155" y="705" on="1"/>
        <pt x="310" y="725" on="1"/>
        <pt x="282" y="578" on="1"/>
        <pt x="274" y="533" on="0"/>
        <pt x="229" y="436" on="0"/>
        <pt x="210" y="388" on="1"/>
        <pt x="248" y="452" on="0"/>
        <pt x="338" y="502" on="0"/>
        <pt x="393" y="502" on="1"/>
        <pt x="448" y="502" on="0"/>
        <pt x="516" y="441" on="0"/>
        <pt x="516" y="381" on="1"/>
        <pt x="516" y="338" on="0"/>
        <pt x="481" y="277" on="0"/>
        <pt x="460" y="257" on="1"/>
        <pt x="435" y="233" on="0"/>
        <pt x="404" y="218" on="1"/>
        <pt x="427" y="152" on="0"/>
        <pt x="507" y="31" on="0"/>
        <pt x="563" y="-33" on="1"/>
        <pt x="441" y="-99" on="1"/>
        <pt x="363" y="-27" on="0"/>
        <pt x="272" y="150" on="0"/>
        <pt x="248" y="244" on="1"/>
        <pt x="250" y="261" on="1"/>
        <pt x="258" y="264" on="0"/>
        <pt x="292" y="280" on="0"/>
        <pt x="326" y="304" on="0"/>
        <pt x="352" y="335" on="0"/>
        <pt x="352" y="353" on="1"/>
        <pt x="352" y="367" on="0"/>
        <pt x="341" y="382" on="0"/>
        <pt x="325" y="382" on="1"/>
        <pt x="302" y="382" on="0"/>
        <pt x="263" y="339" on="0"/>
        <pt x="231" y="273" on="0"/>
        <pt x="209" y="195" on="0"/>
        <pt x="202" y="160" on="1"/>
      </contour>
    </TTGlyph>
</ttFont>
